<svg width="341" height="406" fill="none" xmlns="http://www.w3.org/2000/svg"><path d="M25.998 6.427c21.767-7.22 35.541 3.06 55.033 5.894 33.135 4.803 74.81 6.481 111.923 7.934 10.92.423 21.446.811 31.267 1.256 17.141.783 33.676 1.391 51.203 1.733 2.634.061 5.218.122 8.32.244 1.627.07 3.183.121 6.011.359 1.528.156 3.166.233 7.097 1.021 1.972.423 4.877 1.106 8.677 2.682 3.795 1.52 7.928 4.186 9.056 5.032 6.661 4.835 9.783 8.856 12.362 12.223 2.496 3.382 4.151 6.233 5.553 8.871 2.746 5.248 4.435 9.682 5.872 14.055 2.148 6.383 2.68 12.781 2.404 17.805-.273 5.085-1.198 9.033-2.138 12.187-1.947 6.285-3.983 9.912-5.692 12.929-3.448 5.833-6.086 9.07-8.443 12.071-.343.429-.682.76-1.02 1.042-2.752 3.014-5.327 4.731-6.92 6.168-7.559 6.601-12.835 8.989-16.663 11.186a447.086 447.086 0 0 1-10.197 5.34c-2.672 1.35-5.131 2.532-7.189 3.428-10.883 4.74-26.969 11.84-41.058 17.163-5.034 1.898-10.058 3.644-14.739 4.958-7.627 2.244-16.806 4.009-19.799 2.209-1.498.214-2.429.997-3.099 1.695-.518.55-.88 1.048-1.149 1.143l-.023-.002c-2.054.704-7.144.023-8.156.262-.151.036 1.021 1.372-1.568 1.301-.227-.005-.182-1.037-2.273-.744-.577.083-7.161 2.618-8.974 2.991-2.629.53-6.812 1.019-10.907 1.533-5.498.677-11.385 1.587-14.853 2.506-.927.239-1.301.953-2.239 1.222-.483.139-1.373-.277-1.516-.232-.687.211-2.368 3.801-3.176-1.997a5.067 5.067 0 0 0-.322.162c-1.307.932-.126 2.445.194 3.583-1.052.589-1.693-2.031-.034.31.93-.437 4.337-3.586 5.141-5.196.807-1.564.062-1.253-.078.849.003-1.378-.311-2.837-.346-2.739-.047.003.178.953.615 2.217.722 2.172 2.171 5.484 3.654 8.341l1.242-.667c.354 4.152 3.243 3.959 2.833 6.193-.039.218-.109.46-.211.737a25.964 25.964 0 0 0 3.386 1.405c1.539 2.075 3.173 3.78 5.21 5.393 2.639 2.062 4.794 3.263 10.328 5.127 7.404 2.447 16.422 4.195 25.599 5.152 4.954.519 10.496.875 16.33 1.177 5.944.323 11.725.483 19.527 1.081 3.097.27 6.298.538 11.167 1.452 2.472.493 5.457 1.119 9.719 2.667 4.082 1.368 10.483 4.949 13.36 7.218 9.99 7.159 20.629 20.718 22.663 38.2 1.007 8.776-.315 15.448-1.746 20.519-1.492 5.102-3.256 8.819-4.954 11.977-3.425 6.233-6.68 10.298-9.748 13.873-7.937 8.703-13.176 11.199-17.159 13.684-3.974 2.279-6.829 3.666-9.026 4.801-.636.325-1.301.66-1.985.998-3.058 1.475-4.387 1.06-9.637 3.209-5.831 2.362-12.781 5.822-19.062 7.612-.228.065-.462.13-.702.196-5.53 1.501-12.589 2.462-17.558 3.695-1.171.291-1.821 1.131-1.95 1.164-.758.187-1.067-.768-1.797-.59-.868.214-1.688 1.222-2.654 1.457-3.674.894-6.84 2.218-7.133 2.308-1.658.473-2.162-.367-2.294-.332-1.284.37-.406.984-.661 1.03-.19.021-.297-.072-.256-.267.182-.479.554-.974 2.989-2.945 1.236-1.083 3.165-2.47 6.212-6.277a35.8 35.8 0 0 0 4.843-8.287c1.558-3.656 2.688-8.382 2.872-12.866a39.847 39.847 0 0 1-2.638 3.507c.523-8.547-.967-11.506-1.159-13.162-.34-1.585-.225-1.87.072-1.86.586.003 1.917 2.003 1.461 0-.069-.459-1.488-3.992-2.486-5.539-1.021-1.683-1.285-1.834-.842-1.229.598.856.839 1.212.886 1.294.297.552-.514 1.263-.486 1.318.114.18 1.624-.066 1.631 1.095.101 1.453-2.094 2.616-2.152 3.083-.024.082 1.127.582.959 1.28-.216.749-1.236.083-1.382.353-.194.159.92 2.634.066 3.321-.978.689-2.752-2.111-3.362-2.061-.124.003-.804 1.104-.899 1.086-.344-.147-1.993-1.396-3.963-4.055-.624-.806-.509-.799.104.201.603.934 1.47 2.984 1.628 3.391-.388-2.813-.609-4.128-.414-4.942.389.663 1.878 2.176 3.174 7.795-1.475-7.997-2.672-8.652-2.101-9.033.954-.705 1.582-.987 2.66.563.914 1.461 3.175 5.697 2.809 13.699-.21 3.845-1.404 7.933-2.925 10.806-1.523 2.933-3.156 4.731-4.429 5.852-2.581 2.177-3.896 2.139-4.448 1.881-.519-.27.735-2.755 1.23-5.428.217-1.268.066-2.15-.724-1.825-.744.256-2.406 1.882-4.107 2.914.621-1.01 1.564-2.436 2.513-4.707 1.437-2.026 2.797-5.361 3.151-8.593.392-3.244-.027-5.91-.36-7.58 1.019 1.936 2.255 6.292 1.493 11.162.691-1.641 1.183-3.446 1.472-5.134-.066-6.654-1.773-9.222-1.951-10.259-.323-1.035.05-.875.762-.408l.001.002c.299.79-.58 1.259-.407 1.78 1.817 5.672 1.662 1.006 3.609 3.41a18.33 18.33 0 0 0 .111 2.097c1.166-1.865 1.477.119 3.708.308-.56.496-1.121.987-1.699 1.466.636.28 1.34.823 2.121 1.441 2.511 2.042 6.688 5.085 6.06 1.638.755.652 1.55 1.306 2.375 1.956 1.004-.319 2.015-.644 3.023-.98 1.091.444 2.207.879 3.341 1.306l-.291.996c-.928-.284-1.845-.574-2.75-.871.348 1.225.719 2.451 1.11 3.678.747.051 1.497.098 2.249.14-2.636-1.841 1.688-2.223 2.997-3.306 2.59.208 3.729 2.367 4.56 2.667.397.157 5.843-1.797 3.177 1.159 1.384.096 2.768.177 4.145.243 1.14.054 2.261.094 3.365.118.865.448 1.726.885 2.587 1.314-2.298 1.245 3.19 4.219-1.242 4.116-3.354-.114-3.877-1.806-5.451-2.135l-.012-.003c-1.423-.302-2.409.52-3.98.192-10.447-2.246-19.339-5.204-26.353-9.115a6.908 6.908 0 0 0-.393-.21c-1.176-.583-2.347-.801-3.029-1.3-.832-.622.933-1.019-.306-1.451-1.272-.456-2.108.206-2.403.015-.187-.127-.131-1.28-.578-1.66-1.813-1.428-5.027-3.937-5.436-4.517l-.01-.015c-.09-.123-.571-.854-.558-.995-.204.007 1.518.113 2.286 7.312.237 3.505-1.13 7.712-2.45 9.798-1.323 2.2-2.287 3.065-2.814 3.616-1.055 1.004-.959.935-.998 1.027.157.014 1.365 3.321.169-.247l.025-.02c.232-.186.635-.439 1.084-.696.185.678.378 1.354.579 2.027 2.128-3.688 1.641-1.928 5.462-3.427 7.282-2.784 18.646-5.44 29.771-8.545 3.838-1.087 7.605-2.249 11.179-3.534 3.162-1.159 4.103-2.365 7.973-4.013 2.003-.844 6.26-1.962 8.696-3.143 1.578-.736 2.562-1.65 1.117-2.621 3.968-.338 6.189-2.162 7.895-3.801 1.779-1.71 2.947-2.979 6.78-4.059a92.5 92.5 0 0 0 1.171-2.958 17.669 17.669 0 0 0 2.157-1.574c3.724-2.605 3.905-4.798 7.065-10.914 1.42-3.327 1.794 1.882 2.429-6.78a28.468 28.468 0 0 0 1.685-5.505c.456.564.901 1.117 1.331 1.7.412-3.169.318-6.179-.032-8.507-.894-4.795-1.382-4.704-2.506-3.515-.845-5.044-2.89-9.739-5.563-13.644a30.896 30.896 0 0 0-2.549-.079c-.153.66 5.801 5.622 7.537 17.603.835 7.768-1.441 13.482-3.536 17.78-2.199 4.338-4.688 7.68-7.191 10.697-4.692 5.284-8.433 7.322-11.493 9.281-3.066 1.856-5.557 3.194-7.59 4.365-5.747 3.256-10.915 5.447-12.619 6.242-4.101.788-9.543 2.589-14.71 4.278-5.55 1.816-10.611 3.567-13.562 4.196-2.269.479-3.641-.638-6.872.092-3.241.73-6.726 3.135-8.257 3.675-1.74.6-6.45 2.16-8.539 3.074-.821.256-.856.708 1.147-1.489.941-1.084 2.299-3.269 2.902-5.664.635-2.395.522-4.442.356-5.513-.431-2.044-.516-2.162-.498.842-.019 1.491-.512 4.702-2.055 7.154-1.514 2.475-3.067 3.321-3.294 3.315a9.365 9.365 0 0 1-.762-2.08c1.481-.116 4.512-4.966 4.411-7.88.145-2.9-.354-3.806-.604-4.435-.473-1.022-1.537-1.46-.103.61l.015.021c1.316 1.993 5.297 3.829 2.986 5.958-1.735-1.173-3.012-2.929-4.307-4.971-1.003-1.371-1.083-2.724-.144.04.032.176.172.807.111 2.291-.025 1.435-.69 3.91-1.703 5.303-2.187 2.804-2.381 1.764-1.845 1.843.553-.076 1.126.871 1.587.907.369.021.698-.478 1.833-2.471 4.127 1.97 5.137-1.488 5.948-2.093 1.404-1.031 2.071.48 3.723.177 1.808-.326 2.734-1.726 2.978-1.804 2.365-.752 15.553-4.484 16.405-4.033-.462.428-.933.858-1.392 1.285 3.613-.5 2.449-1.923 3.323-2.371a651.7 651.7 0 0 0 2.083-.559c-.18.411-.361.823-.545 1.235 2.777-.825 2.166-1.228 3.175-1.883.531-.341 1.46-.739 3.515-1.344 3.86-1.123 8.392-1.273 8.763-1.514.103-.066-1.447-.472.136-1.155 2.625-1.102 7.372-3.031 8.403-2.181 1.289-.758.673-1.796.841-1.9.257-.164 2.218-1.147 4.502-2.42 3.363-1.841 9.166-5.145 10.904-6.471 1.922-1.367 4.132-2.964 6.56-5.705 1.979-2.284 4.006-4.818 5.892-8.09 1.799-3.312 3.901-7.319 3.866-13.855-.081-1.688.596-.885.561-2.224a2.78 2.78 0 0 0-.032-.35c-.147-1.22-1.176-4.813-2.964-7.7-1.734-2.942-3.978-5.106-4.515-5.656-1.078-1.142-2.85-2.935-4.777-4.396-1.411-1.137-3.879-2.562-5.486-3.169-1.657-.661-2.733-.902-3.177-.922-.181-.002 2.309 1.778-1.008 1.186-3.367-.413-1.299-1.351-1.485-1.416-3.717-1.018-6.169-1.006-8.437-.969-1.605.042-3.044.148-4.501.123-1.125-.021-3.112-1.2-4.674-.987-.179.024.111 1.011-.066 1.047-2.366.361-4.416-1.56-5.405-1.738-2.416-.434-1.171.97-1.3.971-1.622-.058-3.76-.672-6.195-.778-5.167-.228-9.819-.529-14.402-1.011a154.737 154.737 0 0 1-15.765-2.478c-1.359-.284-2.756-1.549-2.957-1.596-.633-.137-.696.983-2.525.525-3.5-.892-6.744-1.747-10.038-2.819-.325-.105-.641-.21-.964-.32-.729-.248-.705-1.317-1.24-1.527-1.809-.616-8.751-.71-7.347-3.788-4.507 1.058-5.333-2.416-7.618-3.967a74.62 74.62 0 0 1-.764-.529c-4.936-3.328-11.15-9.012-14.718-14.516a41.202 41.202 0 0 1-1.454-2.335c-.75-1.311-.395-2.367-.789-3.107-.78-1.26-5.256-8.814-5.245-9.312-.127-.931 3.42-1.961-1.251-4.726-.288-.566-.4-1.007-.408-1.347-.039-1.074.822-1.293.752-1.675-.76-3.889-4.34-5.615-1.186-5.635-.341-.709-.671-1.21-.916-1.792-.613-2.42-.67-4.277 1.599-5.026-1.419-.178-1.973-2.273-.814-4.159 1.765 2.811 3.116 2.54 2.183 7.652-.012.084-1.036-.144-1.048-.059-.059.376.019.971.12 1.63.11.37.246.699.254 1.068.033.759-.716.442-.654.779.071.34 1.039.14 1.159.653.401 1.73 1.427 3.868 1.978 5.28l.001.003c.323.837-.074 2.174.228 2.886 1.116 2.744 4.705 8.396 6.644 11.706.398.696-.62.926.25 2.459.103.176 1.359.268 2.361 1.366.207.226.382.456.533.683.579.865.844 1.728 1.354 2.257.539.552 1.052-.243 2.06.913.567.875 6.499 7.694 9.986 10.231.888.722 1.496 1.185 1.615 1.302.796.776.578 2.13 1.247 2.352.121.034.92-.918 1.312-.793 2.959.967 7.245 2.97 12.86 4.955 6.511 2.356 13.971 4.463 19.043 5.33 3.62.631 7.24 1.121 10.855 1.495 11.494 1.2 22.897 1.208 36.429 2.064 2.616.205 5.284.433 8.689 1.051 1.715.326 3.662.74 6.157 1.63 2.422.809 5.883 2.713 7.711 4.127a36.137 36.137 0 0 1 2.279 1.812 30.87 30.87 0 0 1 2.271 1.251 36.603 36.603 0 0 0-4.151-3.6c-2.199-1.761-6.476-3.944-9.102-4.713.15-.559.299-1.119.445-1.678-5.941-1.797-4.887.105-5.078.842a157.052 157.052 0 0 0-4.482-1.811c-.624.754-2.52.773-4.693.595-3.063-.257-6.645-.946-8.931-1.089-2.542-.16-5.535.43-6.828.289-2.733-.294-2.571-1.531-2.784-1.564-.362-.051-4.212.797-6.876.548-3.934-.375-4.201-2.287-9.555-1.217-.43-.113-.863-.221-1.294-.324-6.126-1.459-12.85-2.106-19.181-3.416 1.667-1.414-4.706-1.196-7.301-2.024a100.896 100.896 0 0 1-3.165-1.014c-6.343-2.151-11.431-4.612-16.117-8.304-4.859-3.774-8.834-8.315-12.053-13.402a81.305 81.305 0 0 1-3.581-6.283c-.94-1.826-.739-3.689-1.282-4.68-.292-.538-1.511-.236-1.743-1.081-.035-.149.935-.749.436-2.233-.406-1.226-1.293-2.954-2.059-4.61-1.78-3.867-2.297-5.891-.793-5.838a.985.985 0 0 1-.028-.135c-.09-4.55.889-8.231 2.166-10.4.344-.547-.278-.079.431-.674.652-.506 2.448-1.41 4.765-2.211.885-.306 1.811-.611 2.744-.907.475.349.947.701 1.422 1.053 1.888-3.108 13.299-4.356 18.806-5.373l.456-.091c9.666-1.951 22.781-4.341 32.662-6.095.183-.033.364-.06.542-.083 1.982-.259 3.835-.019 5.911-.459.976-.208 2.018-1.336 3.049-1.583 8.029-1.867 17.008-4.829 24.387-7.527 3.648-1.332 7.074-2.655 10.123-3.944 12.691-5.39 24.62-10.572 37.037-16.341 3.31-1.555 6.599-3.077 10.429-5.034 1.945-1.011 4.015-2.086 6.728-3.845 2.603-1.667 6.478-4.708 9.352-8.412a130.304 130.304 0 0 0 3.373-4.431c1.749-2.452 3.624-5.085 5.676-9.258 1.009-2.13 2.112-4.657 2.914-8.402.769-3.65 1.193-9.132-.801-15.049-1.189-3.49-2.586-6.983-4.65-10.827-2.305-3.858-4.12-8.086-11.73-13.861-.709-.522-2.981-1.98-5.084-2.817a26.732 26.732 0 0 0-4.918-1.5c-2.326-.457-3.469-.519-4.562-.617-2.06-.153-3.463-.183-4.912-.22a415.849 415.849 0 0 0-7.917-.081c-27.962.076-55.533-.753-83.459-2.068-32.407-1.547-64.91-3.611-97.35-6.048-1.009-.076-.893-1.082-1.672-1.142-4.599-.364-14.957-.245-20.167-.653-4.147-.324-10.627-2.327-12.167-.874 14.589 3.384 30.179 4.287 45.475 5.982 1.092.12 1.162 1.09 1.296 1.116 2.464.5.981-.926 4.583-.743 1.218.063 12.127 3.866 11 .728 2.593 1.402 21.319 3.234 24.962 3.054 1.11-.053.387-1.006.609-1.038.961-.14 1.309 1.133 2.15 1.218 2.256.221 8.05-.433 9.15-.359 2.469.165 9.99 1.638 13.282 1.59 3.07-.038 2.556-1.374 5.185-1.341 2.08.028-.22.995 4.347 1.587 1.611.205 6.013.102 9.149.049 1.394-.02 2.532-.032 3.115-.002 1.909.1 4.057.993 6.733 1.067 3.843.11 12.264.069 16.182-.018.235-.004.847-.993 1.415-.948 1.169.091.78 1.329 1.679 1.493.898.18 16.467.6 19.136.673 1.803.061 3.116-.649 4.098-.615.786.028.858 1.074 1.66 1.106.243.007 2.391-.844 4.512-.775 2 .073 9.583 1.069 10.464 1.084.576.012-.05-.738 1.648-.698 1.538.038 2.546 1.012 3.432 1.035 2.046.053 4.353-.748 6.549-.735a32.82 32.82 0 0 1 2.969.134c3.348.327 3.168 1.116 3.495 1.15 1.081.123 1.548-.96 1.913-.976 1.533-.064 5.34-.19 7.691-.003 1.225.099 2.365.397 4.216 1.047.936.336 2.123.784 3.612 1.534 1.478.725 3.174 1.895 3.817 2.43.451.352.918.726 1.383 1.103 2.94 2.287 7.092 5.866 9.315 9.828 2.134 3.72 3.699 7.38 5.001 11.08 1.595 4.661 1.452 9.142.907 12.284-.561 3.21-1.438 5.484-2.262 7.389-1.673 3.735-3.267 6.104-4.694 8.185-1.454 2.062-2.416 1.723-2.857 2.282-1.049 1.301-1.678 2.397-2.122 3.309-1.284 2.043-2.37 3.511-3.163 4.229-4.445 3.944-8.734 5.709-12.331 7.203-3.648 1.461-7.09 2.631-9.993 3.723a90.738 90.738 0 0 0-3.886 1.544c-2.246.99-11.615 6.059-17.145 8.317-.631.261-.343-.676-.993-.265-1.556.984-.796 2.303-1.662 2.63-.42.153-1.691-.224-2.916.213-6.351 2.266-10.379 4.674-13.254 5.82a671.71 671.71 0 0 1-6.736 2.644c-4.878 1.873-9.909 3.764-15.505 5.462-5.591 1.721-11.712 2.974-16.956 3.79-12.04 1.874-23.135 3.091-33.467 4.844-4.62.78-9.136 1.679-13.49 2.7-2.718.641-5.821 2.358-9.892 2.702-.256-.413-.511-.825-.772-1.236.003.483.009.965.019 1.447l-.004.001c-3.576 1.447-4.533 2.565-6.541 3.171-.128.022-1.914-1.311-.345.863-2.306-.422-.367.325-.91 1.37a2.041 2.041 0 0 0-.024.047c-.868 1.605-2.203 3.133-2.947 5.233-1.353.98-1.707-4.832-1.381-5.13.263-.505 1.692-.35 1.997-.719.168-.205.301-.423.419-.644.408-.819.405-1.574 1.217-1.027-.114-1.648-.639-.253-1.377-1.091.924-.316 1.82-.447 2.973-.618-1.309-2.581 3.618-2.917 6.259-3.53 1.053-.289 1.648-.68 1.214-1.382 1.02.301 2.04.611 3.058.93 2.823-4.58 5.857-2.704 11.315-2.791-.476-.375-.961-.748-1.441-1.121.056-.225 4.601-1.945 3.326.359 3.526-2.923 4.598-.498 6.942-1.704.51-.26 1.089-.69 1.783-1.38 2.567-.84 1.265 1.223 6.018.437 2.826-.46 6.246-1.937 9.484-2.479.744-.122 1.227.881 1.892.783.67-.098.843-1.176 1.652-1.322 1.665-.301 3.969.095 5.024-.137.943-.205 2.169-1.318 4.473-1.835a68.314 68.314 0 0 1 2.863-.593c4.783-.889 3.294.395 4.525.554 1.573.164 2.29-1.724 5.32-2.254.307-.054-.217 1.186.758.899.786-.238.908-1.454 3.406-2.399 1.186-.237 14.609-5.339 17.346-6.601l.325-.135c3.214-1.318 10.654-3.349 13.909-4.75 1.258-.536 2.227-1.973 3.561-2.54 4.418-1.873 11.48-4.875 17.057-7.33 3.233-1.419 8.411-2.813 12.223-4.482 2.073-.904 3.735-1.878 4.434-2.952 6.938-3.573 10.124-3.714 10.799-4.088 1.916-1.151 2.272-2.524 4.971-4.976a28.314 28.314 0 0 0 2.965-3.262c1.912-2.533 3.952-5.199 6.126-8.821 1.076-1.843 2.224-3.904 3.235-6.893.928-2.901 2.069-7.5.217-13.183-1.04-3.058-2.264-6.137-3.995-9.398-1.885-3.26-3.54-6.76-9.03-10.933-.529-.39-2.017-1.344-3.405-1.899a18.263 18.263 0 0 0-3.329-1.016c-1.649-.33-2.585-.397-3.493-.482-1.74-.142-3.081-.189-4.457-.239a462.187 462.187 0 0 0-7.724-.174c-11.061-.152-21.469-.387-30.628-.607-17.641-.407-35.405-1.097-53.188-1.953-37.694-1.848-75.618-4.27-113.425-7.168l-.544 1.376c6.563.758 14.236 2.105 20.717 2.734 8.658.838 21.66-.251 27.807 3.372-2.607.11-6.717-1.397-6.754.256 4.582.423 9.212.847 13.81 1.265l-.262-2.311c4.832.093 9.744.576 14.58.774.843.035.291-.694 1.023-.651.817.05.219.718.371.733 2.061.137 2.72-.536 2.978-.51.648.07.104.715 1.96 1.022 3.416.57 6.033-1.076 5.028 1.872l3.341.205c.341-.798.683-1.597 1.023-2.396 6.651 3.713 10.2-1.882 13.696 2.925 1.295-.628 2.601-1.256 3.882-1.886.656.856 1.299 1.712 1.972 2.57l.534-2.08c2.656.355 5.419.499 8.12.564 4.207.104 8.332.028 12.23.268 4.495.275 5.55.6 9.517.728 8.836.266.011 1.28 7.284 3.093-.348-.876-.71-1.752-1.048-2.628 1.237-.263 2.477-.528 3.68-.796.829.736 1.654 1.47 2.465 2.204 3.896-3.493 6.214-.473 6.717-.456.397.007 1.896-2.13 6.272-.136-1.733-3.05 3.371.085 3.81.113.396.025 5.503-.508 7.556-.436 1.603.06 5.069.776 7.482.784 2.13.007 1.934-1.014 2.087-1.022 2.628-.046.966.72 2.864.785 1.883.063 3.375-.788 3.792-.707.205.044-.493.984.448 1.085 2.172.238 5.901-.32 8.78-.446.483-.02.908-.029 1.324-.021 1.046.018 2.374.839 3.557.883 1.807.067 2.721-.976 3.838-.907.19.014.894.45 2.008.896 1.336.566 1.979.498 6.402 1.708.59.157 2.64.557 3.732.937 1.768.536 3.642 2.171 2.541 5.578a51.62 51.62 0 0 1 2.093-.728c6.477 7.143 5.017 11.504 6.177 14.525 1.172 3.683 1.32 6.654 2.23 9.813-2.289 6.214-3.372 5.585-3.709 5.241-.374-.55-.267-2.06-.635-1.644-.455.587-1.425 3.362-1.621 3.578-.334.422-.82.017-1.123.494-5.63 8.242-2.155 5.202-3.399 8.118l-.025.055c-3.194 5.318-7.409 6.686-8.268 6.579-.507-.062-.44-.463.588-1.311.968-.9 3.28-2.062 6.673-5.617l-.813-.664c-1.24 1.929-4.38 4.553-6.417 5.497-2.085 1.036-3.436 1.178-2.703-.239.412-1.001 4.56-3.267 7.333-7.105 2.388-3.36 4.011-5.945-.247-2.108-.419.365-.72.738-.998 1.121-1.055 1.43-2.398 3.224-6.103 3.386-2.335 1.294-1.196 4.291-4.946 4.778a90.238 90.238 0 0 0 3.102 2.161c-2.992 2.841-7.341 3.82-10.528 5.144-.874.361-1.671.749-2.333 1.204-1.02.712-2.847 7.38-4.108 2.124-1.745 1.173-10.982 4.23-12.438 5.38-.351.277.275 3.101-5.872 4.696a628.55 628.55 0 0 1-1.621-.455c4.847-3.218-4.848-.167-3.387-3.717 1.331.74 5.782-.389 6.692-.128 1.561.456-1.307 3.177 2.887.942.931-5.297-6.049.006-6.552-4.418-4.889 4.284-6.218 2.778-7.531 3.255-5.631 2.047-8.935 3.919-14.351 5.573a.172.172 0 0 0-.021.007c-.131.178-.063.284.157.332 1.394.332 8.999-1.831 9.882-2.567-3.121 4.664 4.38 1.68 6.773-1.354.632.748 1.26 1.497 1.892 2.244-4.273 1.28-8.351 2.719-12.131 5.107-.395-.216-.797-.429-1.196-.644.717-.864 1.427-1.727 2.131-2.589-3.704.595-.632 2.291-6.056 1.912a12185.163 12185.163 0 0 0 .763 3.101c-4.511 1.432-9.057 2.827-13.823 4.019-1.713 2.927-11.451 4.476-10.27 1.349-3.731.591 1.14 1.067-2.213 2.429-1.05.421-2.86.852-4.096.827-.481-.01-.888-.086-1.122-.258-.038-.731.279-1.341.754-1.882 1.246-1.397 3.657-2.385 4.331-3.845-.274-.122-2.252.331-4.847.843-5.964 1.187-15.15 2.742-14.23.472-1.628-.132-.678 1.315-3.459 2.13-4.421 1.295-10.436 1.459-15.838 2.384-4.114.702-7.882 1.862-10.207 4.106 5.298.349 7.761-.705 10.619-1.788 1.33-.5 2.742-.997 4.552-1.322 3.589-.701 26.049-4.329 21.435-.88.783-.472 1.558-.945 2.339-1.42.964.68 1.944 1.355 2.921 2.027-2.376.504-4.736.981-7.088 1.45-.682-.725-1.369-1.45-2.05-2.177l-.524 1.848-2.924.781.53-2.206-4.624.316 1.64 2.602c-7.111 1.296-4.768.353-8.984-.767-2.959.294 2.255 1.269-3.836 2.733-1.221.299-2.104.444-2.771.485-3.187.225-1.69-2.033-9.169.035-.034.486-.066.971-.098 1.457a220.142 220.142 0 0 0-6.294.014c.4.5.804 1.001 1.2 1.503-4.163.75-9.297 3.405-11.268 1.66 4.315-.187 3.223-3.97 1.928-4.369-.421-.123-1.583.041-3.26.459-4.306 1.063-12.552 4.16-16.387 10.835-4.285 6.732-5.087 14.529-5.31 17.201a105.515 105.515 0 0 0-.302 4.258c-.234 4.656.741 9.089 3 13.333a23.88 23.88 0 0 0 2.086 3.208c-.097-.942-.42-2.213-.83-3.678-1.076-3.782-2.685-8.813-2.509-12.831.073-3.878.732-7.104 1.398-8.203.187-.318 3.673.647.18-2.281 1.194-3.108 2.402-6.447 4.301-9.68 1.744-3.05 4.271-5.605 7.907-7.393.259 1.05.549 2.087.861 3.115-5.373.377-3.776 6.649-6.629 3.636-.347.439-.68.902-1.003 1.392a29.8 29.8 0 0 0-.506.797l1.801 1.103a27.833 27.833 0 0 0-1.809 3.494l-1.938-.838a33.336 33.336 0 0 0-1.234 3.344c.633.327 1.269.648 1.908.962-1.766 1.938-1.158 8.547-1.348 10.624-.117.674-.508.868-1.442-.027a8.227 8.227 0 0 1-.517-.667c-.007.218-.013.44-.017.658a20.691 20.691 0 0 0 .317 3.96l1.52-.277c.176.617.381 1.253.61 1.899a45.932 45.932 0 0 1-1.516-.346c1.109 2.146.783 4.856 1.528 6.861.255.686.641 1.271 1.261 1.682a60.32 60.32 0 0 1-.302-2.041c-.12-.885-.222-1.76-.298-2.615.067.737.328 1.593.696 2.465 1.057 2.525 3.094 5.102 3.248 5.424.636 1.351.045 2.522.741 4.018.636 1.345 1.256.789 1.357 1.047 3.086 7.339-1.984 7.002 4.288 7.461-.381.705-.756 1.416-1.123 2.132.779.124 1.555.236 2.328.334a71.45 71.45 0 0 0 3.98 5.574c.188-1.143.406-2.27.648-3.385 2.316 2.33 2.065 4.583 2.253 4.866.544.748 1.632.291 1.824.49 9.482 9.09 3.203 4.5 5.793 11.616.056.132.116.267.18.407 2.986.132 1.85-2.619 2.527-4.153l.022-.051.008.01c2.145 2.458 3.231 2.621 6.08 4.313.744.434 1.18 1.655 1.68 1.914.433.229 2.201.022 3.266.475 1.775.766 4.031 2.251 6.687 3.125.333.11.771.237 1.303.38 2.959.821 8.701 1.907 12.887 2.806 2.102.461 1.454 1.124 2 1.242.233.05 2.068-.541 3.429-.291 4.464.833 9.007 1.606 13.602 2.251a270.525 270.525 0 0 0 21.013 2.084c5.047.314 10.139.291 15.563.569 3.7.268 7.173.336 12.255 2.035 2.838 1.129 1.064 1.185 2.298 1.785.278.173 1.365-.285 3.452 1.181.451.323.954.754 1.507 1.352 1.037 1.158-.836.608.225 1.646.464.581 1.618-.28 4.539 3.428 2.619 3.579 3.262 7.285 3.241 9.742.013 3.021-.682 4.291-.688 4.709-.189 1.529.784 1.307.282 3.217-2.107 6.651-5.004 10.075-7.776 13.523-1.409 1.642-2.819 2.856-4.176 3.9-1.637 1.447-8.17 5.162-12.432 7.268-3.217 1.673-6.127 2.91-6.498 2.999-2.146.521-.998-1.94-3.502-.859-.537.714-1.083 1.422-1.635 2.125a94.209 94.209 0 0 0 3.82-.355c-3.39.762-6.649 2.78-8.974 3.507-.435.146-4.577.584-6.518 1.242.746-.582 1.475-1.163 2.215-1.752-.386-.19-.766-.382-1.144-.576a53.494 53.494 0 0 1-3.98 1.499c-2.612.873-5.288 1.585-7.894 2.253-1.423.364-1.133-.457-2.572-.092-8.358 2.131-5.431 4.38-14.852 1.278 2.768-.316 12.397-3.695 13.894-3.901 1.031-.145 6.171 3.353 3.465-.937 7.384-2.013 2.707 1.625 7.604.161.455-.138.958-.31 1.584-.544-.319-.523-.639-1.046-.956-1.571 2.547-1.13 4.394-2.016 6.319-1.536-.345-2.873 9.142-4.25 13.865-6.829a77.022 77.022 0 0 0 2.948-1.614c4.551-2.746 9.877-5.245 14.253-10.188a65.937 65.937 0 0 0 2.078-2.674c1.57-2.137 3.307-2.973 3.494-3.297.266-.471.087-2.236.474-3.22.491-1.31 1.717-3.617 1.516-7.05-.186-5.587-4.867-10.605-7.393-10.213 3.079 2.498 5.483 6.202 5.966 10.382.347 6.741-3.599 11.241-6.966 15.344-4.329 4.585-9.543 6.605-14.32 9.158-5.422 2.818-11.203 5.022-16.966 6.859 1.374.232-2.439 1.874-6.937 3.361-4.876 1.617-10.46 3.126-10.99 3.24-.942.194-.41-.93-.701-.91-2.156.166-3.538 1.965-4.185 2.144-.494.136-1.664-.209-3.413.296-.322.092-.227.771-.571.871a332.807 332.807 0 0 0-6.787 1.972c-.135.035-1.004-.739-1.573-.564-.571.177-.842 1.302-.981 1.35-1.793.553-5.039.968-6.696 1.597-.571.218.09.743-.549.983-1.821.716-1.868-.683-3.718.383a5.344 5.344 0 0 0-.29.186c-.665.482-.172 1.413-1.435 2.021-.841.433-1.907-1.154-2.093-1.109-.101.024-.744.969-1.02 1.78-.293.838-.204 1.235-.746 1.865-1.752-.982-1.862-.387-1.047.649.83.94 2.541 1.421 3.064.939.279.92.726 1.923 1.209 2.94.233.493.473.986.716 1.474.627.207 1.256.407 1.879.586 3.041 5.938 6.88 7.838 12.077 11.548.146.106 1.614 1.26 2.835 2.234.906.733 1.662 1.384 1.469 1.532a15.822 15.822 0 0 1-1.989-.514c-2.53-.839-4.595-2.366-5.279-4.361-4.596.502-3.403-1.43-7.797-4.944-1.454-1.234-2.133-.789-2.298-.938a48.295 48.295 0 0 1-4.227-4.6c-.924-1.151-1.895-2.379-2.64-3.893-.754-1.45-1.149-3.644-.236-5.305 1.889-3.15 4.797-3.789 6.834-4.202a9.267 9.267 0 0 1 1.784-.103c.661-.735-1.028-.303-1.908-.155-.516.088-.781.057-.201-.42a.027.027 0 0 0 .006-.005c.679-1.397 25.225-9.453 18.102-4.424.792-.31 1.589-.618 2.386-.924.099-2.771 4.358-3.326 4.588-.665l.732-1.872c.645-.648 1.487-1.131 2.717-1.615 1.657-.658 6.344-1.913 11.73-3.397 10.039-2.542 21.948-7.32 22.679-8.172l-.739-1.719c-7.203 3.163-14.475 5.927-22.427 8.193-4.944 1.395-10.124 2.566-15.669 3.382.561.451 1.119.903 1.679 1.355-5.782.74-11.571 1.497-17.441 2.545 5.626-2.972 14.87-6.411 21.261-7.242 1.134-.147.546.856.823.883.729.067 1.067-1.487 3.381-2.264 1.186-.398 3.375-.766 5.276-1.067 1.823-.288 3.398-.52 3.654-.612 1.011-.361 3.262-2.753 4.935-3.297 2.218-.721 1.062.727 1.513.596 1.871-.539 3.314-1.604 4.723-2.082 2.081-.664 7.026-1.016 7.254-4.063a86.889 86.889 0 0 1-4.377 1.699 47.676 47.676 0 0 1 4.414-2.256c4.997-2.264 10.498-3.647 12.091-6.56a11.858 11.858 0 0 0 1.322-2.797c-1.592-3.069-4.58 1.528-2.877-2.914-.41.657-.89 1.348-1.418 2.046.368.579.73 1.165 1.08 1.76l-.163.106c-.655.079-1.788.438-3.161.784.652.273 1.3.538 1.947.79-2.345 2.06-6.331 4.377-9.569 5.321-1.644.449-3.069.414-4.213-.274.203.742.406 1.484.603 2.228-5.469 1.589-13.384 7.343-13.016 2.81-.205.3-.413.6-.628.901-3.815.267-1.791 1.468-3.092 2.063-.121.055-.979.22-2 .341-2.077.242-4.823.288-2.914-1.118-7.271 1.016-4.089 4.222-5.998 4.925-5.073-.662-12.629 4.496-9.957.541-.723.082-1.443.165-2.17.251-1.61 2.985-4.604.99-7.403.888-.865.208-1.74.425-2.62.65-.328.964-.65 1.929-.966 2.896-9.618-.756-2.85 8.14-10.503 1.721.445-.804.887-1.587 1.343-2.364 1.452-.896 2.83-1.696 4.188-2.459-2.142.691-4.337 1.441-6.844 2.542-2.295 1.074-4.715 2.106-8.086 5.069-1.64 1.518-3.714 3.754-5.156 7.41-1.498 3.638-1.475 8.249-.693 11.174 1.56 7.645 3.52 9.165 4.703 11.118 2.726 3.669 6.292 6.7 10.711 12.081.888.418 1.783.816 2.674 1.185-1.956 1.036-4.859-1.452.25 3.434-.309 1.558-4.398-1.149-5.354-3.464-.214-.528 3.879 1.473.094-1.77-2.453-2.346.718 3.337-6.045-4.428-.005.512 0 1.03.01 1.549a71.824 71.824 0 0 1-2.213-2.489 51.18 51.18 0 0 1 .064-3.715c-.747-.338-1.46-.572-2.167-.857-.77-.319-1.585-.739-2.632-1.8-1.031-1.196-2.449-2.445-4.269-7.659.981 1.932 1.319 1.347 1.142-.535-.089-1.844-1.098-6.069.112-11.873l-1.718-.373c1.794-7.493 4.773-9.839 6.156-11.391 1.53-1.463 2.459-2.005 3.258-2.509 1.58-.936 2.87-1.798 5.774-4.077.542.065 1.078.14 1.61.223.264.051.527.105.787.16 2.513-3.425 11.276-7.694 10.478-4.384 1.679-3.514 7.237-3.86 9.692-2.23-.018-.6-.035-1.201-.051-1.802a658.95 658.95 0 0 1 2.878-1.184c.647.184 1.289.37 1.93.558l1.798-1.593c.573.448 1.142.898 1.712 1.347.921-.978 1.835-1.952 2.748-2.926.789.269 1.584.535 2.367.806-.227-1.199 6.199-3.232 8.113-2.958.117-.136.232-.272.346-.408.307-.353.604-.704.895-1.055.415.483.828.967 1.239 1.45.24-.554.5-1.115.735-1.67 1.002.184 1.983.369 2.978.543 2.554-3.793 3.371-1.471 4.132-1.745 1.463-.507 5.118-3.853 5.76-4.075.711-.211 1.457.569 2.053.397a29.38 29.38 0 0 0 2.833-.964c7.32-3.022 2.794-3.195 4.369-4.457.802-.706 1.83-.203 2.327-.636.35-.236 1.372-1.603-.098-.553 1.107-1.808 1.264-2.835 1.319-2.786.241-.067 3.907 2.584 3.223 1.42-1.06-.56-1.013-.715-1.269-.313-.235.368-.628 1.127-2.023-.295-.051.773-.227 2.166.164 4.399.275.994.682 1.74 1.122 2.327-2.74.995.067 2.313.57 2.776.068.085.124.173.16.252.016.234 2.281 1.603 2.507 1.725.379.25-.258.194-1.006.128-1.567-.162-3.512-.555-3.679-1.607a1.171 1.171 0 0 1 .012-.447 181.83 181.83 0 0 1-3.217 1.765c-7.277-1.445-15.352-.862-23.573-1.493-3.457-.264-7.009-.59-10.686-1.028-12.346-1.486-25.022-4.025-37.746-8.362-9.062-3.032-19.481-7.915-27.8-14.309a95.876 95.876 0 0 1-2.969-2.327c-1.115-.917-.35-1.535-1.133-2.202-4.074-3.195-13.796-12.378-17.836-18.816a51.129 51.129 0 0 1-.486-.736c-1.269-1.972-1.067-3.412-1.419-4.039-1.166-2.138-1.901-1.009-2.455-1.985-.953-1.543-4.319-10.105-5.47-13.043-.61-1.437-2.27-2.745-2.729-4.627-.04-.16 1.006-.271.97-.404-1.198-3.254-1.216-.998-1.616-2.125-.13-.375-.264-.769-.393-1.154-1.73-5.391-4.173-12.405-3.95-21.713.088-2.672.326-5.386.75-8.131.371-2.566 1.886-6.365 2.59-8.54.27-.837-.94.476.025-2.444.35-1.004 1.404-1.022 1.871-2.109 2.065-4.582.141-7.804 4.774-10.465.156-.258.319-.522.489-.792 2.438-4.122 7.637-9.945 12.88-13.312 5.217-3.491 9.889-5.35 13.013-6.425.474-.16.887-.235 1.281-.279.784-.069 1.459.011 2.346-.264.908-.283 2.265-1.626 3.673-2.025 1.417-.403 3.851-.158 6.521-.841 2.812-.724 6.199-1.986 6.836-2.115.766-.163 1.345.834 2.107.662 1.488-.331 4.527-1.4 7.293-2.246 1.495-.46 2.893-.857 3.914-1.068 3.126-.64 5.058-.396 6.111-.57.973-.165 1.968-1.249 2.411-1.323.687-.118 1.009.925 1.879.786 1.419-.229 2.781-1.115 4.882-1.441 4.939-.77 9.802-1.502 14.292-2.285 4.619-.803 8.141-1.583 12.042-2.806 3.895-1.214 8.233-2.855 12.683-4.601a1306.232 1306.232 0 0 0 45.143-18.92c2.669-1.193 5.303-2.371 7.694-3.493a77.176 77.176 0 0 0 4.802-2.43c.083-.04-.477.36-.752.578 1.094-1.665 2.302-3.594 3.61-5.262.654-.819 1.455-.007 1.422-.4-.086-.032-.871-.463-1.05-.077-.201.519-1.154 3.241.317 7.56-.539-2.203-.977-3.972-1.294-4.54-.181-.338-1.291-.272-1.453-.477-.082-.172-.22.063 1.552 1.398.147.119 1.544 1.041 2.855 1.578 1.301.551 2.222.765 2.715.875.981.196.87.136.684.129a57.831 57.831 0 0 0-2.629-.13 418.394 418.394 0 0 0-7.229-.15c-7.039-.09-14.475-.183-21.482-.237-7.291-.043-18.343.146-26.682-.104-12.215-.355-24.851-.97-37.162-1.656-10.9-.607-21.583-1.267-31.368-1.821-31.458-1.795-62.733-3.018-93.949-6.283 14.475 3.422 34.413 4.596 50.717 5.944 24.171 1.993 49.178 3.43 74.472 4.538a2488.708 2488.708 0 0 0 72.204 2.08c4.193.06 8.748.092 13.227.136 2.384.025 4.811.057 6.997.124 1.075.032 2.164.085 2.621.129.174.006.297.072-.792-.13-.549-.115-1.562-.323-3.127-.956-1.547-.598-3.37-1.773-3.573-1.938-3.303-2.632-2.153-2.218-1.927-1.406.443.876 1.042 2.366 1.517 3.938-1.155-3.373-.984-6.328-.738-7.854.263-1.592.54-2.181.607-2.421.154-.414-.333.43-1.061 1.355-.296.389-.371 1.81-1.347 2.94-.079.09-.622.461-1.353.977.251-1.028.968-2.26.771-2.109.689 1.025.892.994.128 1.185-.723.166-2.383.434-3.082.82-1.392.785-4.158 3.05-8.153 4.844-.858.385-1.801.755-2.777 1.064-4.821 1.523-3.972.074-4.245.136-1.787.389-1.716 2.043-2.905 2.75-4.133 2.49-24.9 10.964-35.103 14.787-1.63.62-2.985 1.126-3.967 1.498-1.825.689-2.21-.217-2.609-.07-1.057.39-2.219 1.846-3.814 2.382-2.909.989-6.073.885-7.546 1.215-1.474.343-3.57.965-6.241 1.648-3.635.938-8.042 1.963-11.604 2.5-1.736.261-1.781-.76-2.571-.641-3.456.52-12.599 3.084-17.241 3.909-.68.118-1.367.234-2.055.348-6.944 1.151-14.146 2.151-21.215 4.346-.612-.307-1.234-.609-1.857-.908a276.8 276.8 0 0 0-1.998 2.046 96.805 96.805 0 0 0-4.234 1.209c-4.516 1.425-9.456 3.331-14.885 6.753-5.387 3.299-11.215 9.02-14.602 14.57-3.453 5.445-5.84 11.245-7.442 16.874-.815 2.064-3.325 12.107-3.26 13.78-.085 1.215.698 2.444.782 4.051.011.315.009.648-.013.996-.105 3.721-2.55.375-1.329 6.459.391 1.545 1.046-.02 1.848 2.895.108.812 2.22 8.376 3.931 12.31.884 2.213 1.595 3.792 1.675 4.042.386 1.189-.96 2.988-.864 3.305.487 1.615 1.829.917 2.418 1.849 1.736 2.747 2.804 6.899 3.087 7.357 1.836 3.057 4.878 7.396 8.188 11.703 2.602 3.406 5.315 6.656 7.201 9.237.594.814-.314 1.476-.222 1.633.609 1.013 2.031.661 2.804 1.42 3.295 3.299 8.07 8.23 12.407 11.719a62.684 62.684 0 0 0 3.163 2.425c.571.407 2.143.688 3.178 1.383 5.924 3.853 3.533 3.504 3.846 3.762.803.542 2.79.359 5.05 1.332 3.465 1.512 8.667 3.562 13.342 5.098a182.593 182.593 0 0 0 8.663 2.647c4.283 1.175 3.934 2.327 4.21 2.427.598.186 2.506-.379 5.343.098 5.465.88 4.664 1.679 6.906 2.041.185.03.03-.957 2.504-.651 2.46.303 6.432 1.091 10.413 1.761 3.772.639 7.431 1.175 9.808 1.348 1.879.136 2.387-.751 4.284-.628 3.026.199 9.575 1.605 10.073 1.632.145.009.529-1.032 1.377-.98.924.057 1.799.657 2.479.696 3.982.21 10.119-1.161 8.126 2.486.375-.281.761-.56 1.118-.84a94.78 94.78 0 0 0 2.124-1.664c1.343.194 2.557.425 2.736.471.079.011-.182-.035-.972-.382-.742-.298-2.15-1.2-2.249-1.329-.64-.528-2.644-2.748-2.94-6.326a14.42 14.42 0 0 1-.035-2.758c.286-2.63.051-3.368.18-3.672.081-.147.347-.015.201.693-.117.668-.569 1.685-.852 2.136.091-.081.156-.139.198-.182.669-.719 1.066-.691-.956.513-1.812 1.074-4.814 2.576-5.474 2.872-.274.121-.559.23-.852.33-2.02.613-4 .161-4.585.715-.524.495.415 1.058-.711 1.802-1.93 1.298-6.424 1.645-7.204 1.906-.339.113.544.572-2.601 1.609-1.706.556-2.883.109-3.513.298-.152.047.186.674-1.165 1.35-.437.22-1.078.45-1.991.663-2.548.591-3.913-.023-4.186.049-.406.105-1.121 1.349-2.793 1.767-3.885.961-11.505 1.838-15.487 2.926-.768.21-.143 1.287-3.248 2.112-2.231.603-2.153-.434-3.002-.207-1.374.381-2.977 2.131-6.181 3.261-.982.369-3.167 1.017-7.031 2.715-1.763.808-3.881 1.791-6.764 3.769-2.706 2.1-7.533 4.994-11.024 14.196-1.617 4.496-1.757 9.928-.98 13.748.75 3.897 1.944 6.462 2.903 8.383 1.971 3.757 3.315 5.417 4.259 6.812 3.41 4.942 7.455 9.181 7.855 9.695.822 1.082 1.976 2.121 2.142 2.958-.768.007-1.532.009-2.311-.012-3.188-5.422-2.78-2.318-4.028-3.363-1.29-1.088-4.542-4.946-6.358-7.195-.712-.852-1.513-1.818-2.052-2.37-.345-.35-.419.086-.843.108-.467-.103-1.077.024-3.427-3.528-2.579-3.931-4.628-10.855-4.306-17.47.256-6.657 2.057-11.566 2.841-15.733 4.316-6.064 8.014-8.425 10.333-10.212 2.387-1.724 3.828-2.723 4.635-3.512.782-.758.958-1.275.302-1.321-.696.008-2.005.222-5.252 2.309-.811.564-2.273 1.489-4.874 3.98-2.374 2.473-7.078 6.907-9.768 16.859-1.263 4.838-1.335 10.485-.501 14.919.813 4.497 2.198 7.81 3.393 10.283 2.463 4.902 4.28 7.114 5.454 8.825 3.214 4.599 8.464 10.551 13.287 14.611a84.384 84.384 0 0 0 11.088 8.053 54.781 54.781 0 0 0 4.566 2.455c5.905 2.871 12.705 5.014 17.272 6.75 3.512 1.4 11.895 4.006 11.159 5.224 2.998 1.024.151-1.219.843-1.227 1.44.035 10.61 3.368 12.432 3.695.612.127 1.248.25 1.884.366 8.619 1.65 20.302 2.073 28.219 4.274-.439.341-.881.68-1.323 1.018-1.987.582-11.535-1.508-12.928.039 9.254 1.362 17.95 1.9 25.838 2.298 4.507.224 8.905.399 13.265.559-.136-1.524 14.633-1.01 15.27-.304l-.841 2.196c-8.205-3.077-7.596.66-13.164-1.51-2.298-.111-1.654 1.137-2.798 1.327-11.507 1.854-.046-2.5-8.888-1.784 1.53 1.126-.406 1.701-2.967 1.981-1.743.191-3.791.24-5.184.248-.677.049-11.313-1.207-12.76-1.393-5.972-.437-16.127-1.4-22.999-3.235-1.698-.437-3.249-.916-4.581-1.432-5.46-1.442-8.785-1.026-13.943-2.236-3.928-.953-2.561-1.476-4.386-2.063-3.828-1.264-6.078.8-7.338-3.672a118.923 118.923 0 0 1-8.931-2.06l.705-1.61a116.197 116.197 0 0 1-5.666-2.659c-.245.067-.491.133-.738.198-.605.156-1.21.307-1.818.454-5.991-4.201-2.595-4.003-2.921-6.088a95.761 95.761 0 0 1-3.791-2.822 73.81 73.81 0 0 1-5.314.925c-6.003-4.509-11.836-10.364-16.104-15.819a57.36 57.36 0 0 1 .551-2.107l-1.395 1.059c-.401-.491-.785-.971-1.147-1.429-1.194-1.585-3.005-3.607-5.858-8.74-1.393-2.627-3.157-6.211-4.434-11.738-1.295-5.414-1.627-13.344.375-20.561 1.922-7.24 5.486-12.82 8.483-16.457 3.056-3.694 5.699-5.906 7.925-7.635 4.48-3.381 7.523-4.899 10.23-6.259 2.652-1.294 4.748-2.163 6.705-2.945 1.057-.864-1.855-.378-7.243 1.824-2.866 1.221-6.487 2.967-10.686 6.026-4.092 2.845-8.603 7.899-9.659 9.425-2.648 3.486-6.422 9.343-8.257 18.03-1.925 8.613-.536 18.146 1.533 23.847 4.396 11.572 7.745 14.118 9.229 16.462 3.734 5.047 8.797 10.456 7.977 11.176 2.546 1.444 6.97 5.06 11.324 8.322 4.346 3.313 8.497 6.303 10.17 8.251-6.347-3.527-12.929-8.077-18.909-13.642-.273.693-.536 1.395-.802 2.092-5.176-8.272-6.358-10.038-12.338-14.21-.501-.35-1.09-.79-1.83-1.429l2.241-1.691c-1.814-1.18-3.957-3.327-6.835-9.179-1.393-2.955-3.011-7.056-3.932-12.734-.946-5.6-.785-12.906.961-19.267 3.721-13.139 10.113-18.867 12.924-22.035 3.107-3.187 4.398-4.524 3.981-5.508 5.269-3.723 8.686-5.119 11.732-6.384a64.547 64.547 0 0 1 3.749-1.347c3.459-1.698 2.105-2.086 3.342-3.301 1.127-1.141 5.116-3.219 14.836-5.447 1.327-.301 1.351.756 3.257.136.529-.173 3.367-2.537 9.077-3.93.887-.216 1.186.623 2.119.486 2.175-.313 5.666-3.087 4.621.165 6.887-1.147 4.819-2.302 5.492-3.595.101-.207.263-.416.523-.626 1.245-1.008 1.441.699 2.527-.027 1.233-.889.062-2.235 5.286-3.172a54.82 54.82 0 0 1-1.549.895c.431.346.875.686 1.301 1.031 2.389-2.008 2.604-.385 2.74-3.228 1.883.401 2.75.211 4.793-.993.291-.163.579-.325.864-.488 3.55-2.035 3.137-2.761 3.492-3.271.108-.22.286-.335.432-.118.057.325.435.478-1.478 3.331-.852.463-1.913 1.163-3.182 2.277-.156-.295-.379-.52-.687-.631.569 1.132 2.199 1.149 1.495 2.797-.765-1.366-1.35-1.388-2.579.095-.615.767-1.432 2.081-2.318 3.866-.888 1.735-1.765 4.014-2.543 5.114.503.586 1.017 1.16 1.541 1.749a37.65 37.65 0 0 0 .284 10.306l-1.386.258a32.255 32.255 0 0 0 3.667 8.309c.457 2.1 1.096 4.11 1.841 5.968 2.658 2.052 5.287 3.274 7.532 3.863.407.304.801.579 1.184.832.542.357 1.943 1.287 3.448 2.079-1.104.183-2.233.308-3.263.463 2.93 1.73 6.994 3.204 8.723 3.466-1.297.175-1.895.608-1.052 1.413.76.783 2.6 1.613 3.103 1.672.325.045.233-.589.317-1.058-.023-.48.226-.83-1.541-.514-.098.017-.233.262-.581.556-.591.491-1.711 1.115-4.997 1.062-6.548-.101-3.348-1.134-4.522-1.252-.234-.021-2.397.71-4.467.705-1.169-.002-2.27-.769-2.428-.777-.737-.016-1.014.951-2.046.919-2.621-.088-6.204-.828-8.932-1.007-1.236-.081-2.469.394-3.034.35-.875-.072-1.911-1.063-2.811-1.148-1.395-.13-3.174.209-4.896.314-2.37.149-4.549-.144-5.158-2.63-3.854 3.308-10.189-2.39-10.096.176-6.042-1.651-19.86-3.499-27.767-6.737-3.509-1.388-5.799-2.903-5.085-4.044-7.057 1.232-5.726-1.153-8.242-2.158-2.903-1.227-1.699.091-4.01-1.027-5.42-2.662-10.63-6.009-15.622-9.465 1.115.061 2.232.109 3.349.142-2.924-2.051-3.797-2.25-5.016-2.624-.929-.292-2.05-.686-4.313-2.307-9.356-7.063-4.772-4.836-5.073-7.059-.753 1.534-10.324-8.362-10.9-9.634-.41-.706 3.214.804-2.39-5.082-.185.708-.36 1.423-.53 2.139-.92-1.786-3.239-4.655-5.22-7.256-1.789-2.327-3.282-4.333-3.606-5.016-.343-.701 1.711-6.289-3.148-7.328.307-.642.619-1.28.934-1.914a157.4 157.4 0 0 1-6.944-8.913c.697-.99 1.397-1.98 2.106-2.958-.492-1.075-.98-2.176-1.461-3.301a316.37 316.37 0 0 0-1.591 3.351c-.931-2.438-2.12-5.059-3.205-7.848-1.906-4.757-3.434-10.589-1.76-12.548a55.647 55.647 0 0 1-3.199-7.272 101.593 101.593 0 0 1 2.532-6.024 93.64 93.64 0 0 1-.288-5.673c-.155-5.745-.721-6.75-.878-12.562.769.389 1.54.769 2.313 1.141-.531-4.961.502-14.672 3.743-22.417 1.403-3.694 5.81-9.263 6.271-10.096.123-.26.308-1.33.673-2.707.942-3.618 4.261-9.821 6.958-8.643 5.73-7.436 11.259-10.981 15.083-13.079 3.911-2.088 6.657-2.909 9.002-3.996 3.003-1.354 3.973-2.721 7.03-3.917a42.231 42.231 0 0 1 3.201-1.081c2.517-.732 4.761-1.134 6.139-1.571 1.054-.337 1.012-1.255 1.733-1.481 3.395-1.047 1.633.359 5.175-.6.323-.092 2.658-1.8 5.577-2.31 1.64-.299 6.027.042 6.381-.026 1.593-.334-.133-2.535 5.87-.762l-.731-1.293a25.408 25.408 0 0 1 1.86-.607c4.958-1.391 6.087.171 7.277.106.167-.015 1.582-1.056 2.509-1.087 1.566-.05 2.337.951 2.68.948 1.213-.015 5.056-1.077 7.669-.38-.916-3.04 7.361-5.383 9.525-2.13a77.4 77.4 0 0 0 3.615-2.717c.185.136.368.272.549.41.472.345.924.693 1.37 1.04.208-.63.406-1.26.584-1.888 1.764.978 3.211 1.98 4.671 2.938-.242-1.267-.49-2.533-.744-3.797.33.066.664.128 1.006.185a75.38 75.38 0 0 0 1.597 2.734c.364-.311.742-.633 1.138-.965-.111-.742-.23-1.482-.347-2.223 2.323-1.702 3.064 5.6 7.043-2.57 1.203.158 2.437.296 3.711.413l.001-.03c.134-3.074 3.026-2.408 4.758-3.471 1.224-.752.715-1.762 2.496-2.535 1.788-.778 2.144.242 2.288.19 1.494-.56 2.237-1.91 3.392-2.197.173-.043 1.088.96 2.501.443 1.417-.52 1.71-2.131 3.872-2.789 1.108-.339 1.845.519 2.82.197 4.666-1.529 6.894-8.507 12.848-4.078.418-1.085 4.572-6.138 6.778-6.996.236-.091.449-.166.642-.228 2.915-.97 2.274.572 3.658.157.179-.05 1.213-1.002 3.678-2.127.428-.196.004-.788.06-.826.958-.463 2.346-1.116 2.146-.883-.117.142-.766.568-2.198 1.78-1.393 1.156-3.536 3.34-4.854 5.127a51.84 51.84 0 0 0 1.462-1.67c.065-.04-.622-2.605 1.063-.233-.605.232-1.303.896-2.475 4.227-.557 1.702-1.287 4.19-1.626 8.246-.328 3.98-.098 9.993 2.168 16.388.082-.563.153-1.058.267-.82.168.262.189 1.222 1.614 4.312.903 1.25 3.817 3.106 5.15 4.156.577.481 1.198.972 1.815 1.435.877.757 5.215 3.473 8.075 4.638 2.991 1.297 4.9 1.85 6.23 2.259 2.593.759 3.505.975 4.175 1.117 1.222.233.54-.189-2.805-1.744.541 1.12-1.065 2.088-3.655 1.978a7.22 7.22 0 0 1-1.024-.111c-2.384-.459-.385-2.081-3.305-1.953l-.013 1.752c-7.626-1.635-9.293.85-17.119.728-2.816-.047-6.986-1.437-7.624-1.457-.266-.002-3.364 1.328-3.672 1.329-1.646-.001-2.586-.677-3.992-.722-4.698-.149-10.38 1.481-9.24-1.806-1.308.656-2.639 1.31-3.941 1.964-4.722-3.729-8.568 1.006-9.429-2.481-.888.675-1.788 1.349-2.698 2.023a2470.92 2470.92 0 0 1-25.476-1.687c-12.173-.867-24.24-1.8-36.319-2.764-.875 1.059-9.776.103-10.229-.1-2.04-.914.334-3.186-3.99-2.91-.542 1.028-1.095 2.054-1.63 3.082-5.384-.002-2.74-.888-4.821-1.743-.904.072-.662.912-1.863.894-6.533-.096-19.869-.945-26.979-1.361-1.439-.083-1.171-.836-1.617-.868-1.217-.075-3.69.728-6.157.561-15.176-1.04-36.61-3.082-51.8-4.967-1.03-.129-1.094-1.053-1.789-1.148-.963-.128-3.18.46-4.194.31-.954-.138-1.518-.876-2.538-1.03-4.674-.71-11.065.017-15.944-2.387-.412-.203-5.409-4.258-5.512-4.508-.597-1.484 4.238-3.404-3.293-6.047 6.995-1.344 5.077-4.732-3.724-6.945l13.5-.273.102-1.15c-3.936-2.189-7.93-3.107-14.106-3.722l.654-1.024c5.594-1.387 12.207-1.248 16.545-3.374-5.98-2.224-11.956-4.449-17.934-6.674l.974-.775c2.978-.52 9.4-.494 11.879-1 9.463-1.928-7.987-2.51-5.016-3.886 9.793.752 19.591 1.502 29.388 2.25.425-1.135-37.047-7.013-36.41-10.494l9.29-.051c-1.312-.988-2.619-1.976-3.929-2.965l1.195-.765 15.733-.972c-15.842-.422-23.15-1.45-26.437-8.733l1.324-.444c3.11 4.631 19.365 4.357 28.01 4.089-1.66-1.41-9.287-.951-10.83-1.837-.436-.254 1.204-1.035.189-1.566-2.655-1.381-14.229-3.738-12.428-5.072 1.161-.857 20.043-.807 23.7-.45-8.471-2.287-17.29-3.4-25.763-6.053 5.641-2.46 10.707-5.602 20.644-5.054 3.132-1.278-17.737-4.836-18.168-5.687l11.098-1.85-9.28.046.036-.879c8.066-.79 15.533-2.763 24.638-1.95-.183-1.567-5.652-1.8-8.297-2Zm189.089 389.42c-.068 1.305-3.898.225-6.059-.339l.813.92c-4.58-1.308-13.096-4.249-14.172-1.999-3.493-.735-1.351-2.356-2.37-2.929-.387-.221-5.248-.436-8.452-3.249-.879-.313-1.77-.639-2.672-.978-.466.698-.935 1.394-1.407 2.088a416.51 416.51 0 0 1-2.753-4.316c13.533 5.355 24.987 8.221 37.054 10.798l.018.004ZM185.59 265.963c3.992-.622 9.695-1.409 7.986-3.268-2.238.732-4.552 1.481-6.922 2.254l-1.064 1.014Zm10.568-170.58c2.279 1.696 3.204-.529 6.745-1.363l-.484-1.312c-1.129 1.604-4.504 1.93-6.261 2.676ZM315.379 395.25l2.066.664c-3.029 2.3-3.405.505-6.657.517-.201.001-.171.578-.238.577-.776-.017-1.471-.758-2.178-.799-1.373-.077-2.55.539-4.975.338-1.38-.117-1.709-.743-2.062-1.074l1.126.064c-.116-.113-.233-.189-.396-.188-.51.003-5.989 2.828-9.49 1.41-3.598-1.447 3.077-2.027 9.924-2.154l-1.096-.062c6.28.118 13.018.533 13.976.707Zm22.356 3.247c-.72.008-1.463.016-2.241.019 2.031-1.566-1.243-1.405-5.759-1.556-.246-.037-.999-.039-1.244-.085l-.537-.034c.04-.312.26-.522.597-.659.24.045.977.047 1.219.083 2.969-.525 8.002-.153 10.23-.544-.73.926-1.482 1.852-2.265 2.776Zm-86.81-7.596c2.86.011 2.264 1.996 2.11 2.592-.907-.053-1.818-.108-2.74-.168.211-.808.424-1.616.63-2.424Zm20.648.254c-.877 1.345-6.726 1.726-9.551 1.711-.125-.005.689-.723-1.309-.742-.286-.002-1.91.596-3.307.833-1.449.243-2.666.104-1.91-1.437.672-.006 1.317-.016 1.983-.025 4.785-.073 9.455-.199 14.086-.341l.008.001Zm5.815 1.014c-1.101.395-2.205.788-3.311 1.181l-1.625-1.993c1.248-.118 2.495-.238 3.738-.358l1.198 1.17ZM141.111 91.092l.617 2.113c.926.483 5.871-2.213 4.405-2.888-1.671.26-3.364.516-5.022.775Zm-19.835-2.74c-.965-.413-1.917-.825-2.871-1.237a1184.31 1184.31 0 0 1-3.619 3.276c4.849 1.115 10.008 2.365 9.391-1.133l3.365.222c-1.043 1.36-.938 1.839 1.937 2.934.76-1.94 3.755-.73 7.242-.943-2.501-.278-5.057-.56-7.557-.84l.069-1.047c5.606.492-1.23-2.177-4.994-1.031l-.774-1.452c-.728.417-1.457.834-2.189 1.25ZM84.094 177.87c.43-1.07.883-2.13 1.357-3.181-3.397-4.154-1.753 2.056-3.24 7.597-.266 1.304-.602 2.661-1.064 3.966 1.323-1.519 2.031 1.119 2.719 3.891.67 2.805 1.307 5.58 1.462 5.847a125.209 125.209 0 0 1 2.028-4.226c-1.042-2.806-1.897-6.145-2.412-9.428a75.373 75.373 0 0 1-.85-4.466Zm12.642-30.387c-1.264.758-1.195-.406-.186-2.573 1.227-2.619 4.386-7.101 8.36-10.644 3.941-3.588 8.066-5.933 10.362-6.987 1.671-.794 4.855-.914 5.805-1.488.444-.7.883-1.388 1.337-2.072.654.573 3.493-.594 6.464-1.876 2.737-1.243 5.711-2.796 7.362-3.696.476.476.947.955 1.42 1.434a256.989 256.989 0 0 1 3.54-1.621l-.045 1.809c.757-.909 1.527-1.816 2.295-2.716 3.48-1.605 1.931 2.004 4.438.432 2.799-1.732-2.578-2.497-2.769-3.705-2.43.857-7.956 2.96-10.55 3.735-1.499.459-.343-2.247-6.23 2.207l-.138-.008a61.906 61.906 0 0 0-5.713.176c-3.063 2.186-6.339 4.681-9.695 7.783a44.27 44.27 0 0 0-3.519-.674c-.252.088-2.508 2.093-4.493 4.449-1.995 2.327-3.553 4.875-3.101 4.845-2.233 1.174-5.121 3.819-7.544 7.025-2.286 2.944-4.435 6.689-6.117 10.595.092.922.207 1.826.342 2.719 2.172-7.757 1.396-2.164 3.115-3.978.991-1.05 3.809-4.29 5.26-5.171Zm75.645-56.26c-7.644 1.542-2.9.18-11.01-.309a1185.01 1185.01 0 0 1 1.509 3.26c4.111-1.68 10.617-.016 9.509-2.95l-.008-.001Zm-79.53-1.617c4.308-.345 2.293-2.124 7.746-2.28h.007c-2.79-.307-5.599-.617-8.388-.926l.635 3.206Zm166.964-9.427a26.82 26.82 0 0 0-1.087.391c-2.449.926-2.026 1.274-5.504 1.266-4.035 4.023-.03 1.89.714 3.532a377.83 377.83 0 0 0 2.647-2.964c3.35.303 1.208 2.236 1.269 2.385.003 0 .005-.002.007-.003.226.492.193.634 1.348.457.106-.977.24-1.968.333-2.942.1-.711.191-1.418.273-2.122Zm-14.462 9.047c.771-1.654.701-3.303-2.899-2.546l-.006.003c.822 2.564-3.218 1.985-4.59 2.78l-.788 1.297a1207.27 1207.27 0 0 0 8.283-1.534Zm-50.967 21.945c-.526-2.911 1.904-3.637-2.113-5.681-.176.045-.355.089-.538.134-.527.131-1.071.263-1.626.394-.384.721-.782 1.443-1.188 2.164-5.268-1.844-8.606-.477-8.385.67.132 1.141 4.169 2.072 11.629-.728.178-.068.356-.138.532-.211a.043.043 0 0 0 .006-.007c.558 1.09 1.121 2.178 1.683 3.265Zm13.95-4.071c-.422-1.498-.845-2.996-1.271-4.493 2.874 2.565 4.195-.742 8.169-.772.404-.002.841.029 1.318.101.193-.588.38-1.173.576-1.763 1.874.407 17.333-5.83 13.069-6.62-1.858-.336-4.453 2.304-4.733 2.387-.968.282-2.677-.445-4.188.27-.866.412-2.147 2.642-3.947 3.374-.763.31-1.699.527-2.717.703-4.479.801-10.327.716-12.524 4.742a48.07 48.07 0 0 1-1.26-1.089c-2.772 1.063-1.417 2.247-4.616 1.153-.262 3.814 2.727 3.146 5.302 2.115 2.601-1.015 5.508-2.548 4.912.834l.006-.002c.622-.303 1.255-.616 1.904-.94Zm73.463-12.074c-.092-1.339-4.936.626-3.772-2.527a267.895 267.895 0 0 1-3.255 2.153c-.542.37-1.14.74-1.693 1.11l.031.885c.536-.073 1.12-.145 1.646-.218 1.102-.144 2.177-.287 3.231-.427l-.001 1.404c.917-.659 3.134-.918 4.8-.854.748.019 1.593.186.62.209-.536-.026-1.724-.022-4.505-.847-2.807-.767-6.492-2.963-6.803-3.101-1.637-.868-2.247-1.09-2.411-.759-.354-1.248-.335-2.262-.14-3.1-3.452-1.677-.438-.287-.954 2.173a29.731 29.731 0 0 1-1.653-6.208c.451-1.805 1.109-3.241 1.813-4.324-.379-.81-.726-1.553-1.059-2.243.957-4.197 1.475-4.343 1.26-4.265.34 1.217 1.581 1.302 2.484 1.366.411.124.478.541.203 2.086-.29 1.434-.554 4.44-.561 5.678.079.73-1.64.214-.709 5.589.098.437.236.968.432 1.58-.271-.575-.681-2.07-.947-2.868-.057-.823-.879-.518 3.704 3.222.51.518 4.692 2.837 6.479 3.313 1.943.647 2.682.77 3.138.918.182-.785.353-1.571.515-2.36 1.323.977-.664 1.608-1.893 2.415Zm-110.846 16.546c-.412-.765-.825-1.53-1.239-2.294-4.912 1.57-8.358 1.435-6.574 3.878l.008-.001a692.418 692.418 0 0 1 7.805-1.583Zm-1.676 172.935c.707 1.473 3.649 1.076 6.557-1.053l-.903-1.2c-1.38 1.921-3.974.08-10.254 2.848l.907 2.28c1.306-1.021 2.509-1.962 3.693-2.875Zm6.005-173.222c1.647.732 5.353-2.767 2.611-2.511-2.105.198-3.492 2.118-2.611 2.511ZM76.124 86.871c1.09.247 2.193.494 3.286.741l1.87-1.963h-.007c-1.71.407-3.435.814-5.148 1.222ZM269.33 75.304c-.635.537-3.997 2.344-7.037 3.892l.489 1.274c2.488-3.018 4.292-1.938 4.971-2.157l-.007.004c2.089-.616 3.717-1.412 2.945-.203a6.205 6.205 0 0 0-1.361-2.81Zm1.77 1.233c-2.763-1.388-2.967-1.793-3.972 2.542.238-.137.508-.294.802-.452.132.446.284.877.463 1.283l-.094.097c1.311-2.055 1.303-3.245 2.443-2.015.161-.53.287-1.024.358-1.455Zm-38.75 17.805c1.025.674 5.539-2.403 5.063-2.76-.187-.135-7.061 1.446-5.063 2.76Zm-64.582 270.616a86.118 86.118 0 0 1-4.404-3.906 76.912 76.912 0 0 0 6.923 3.424c-.828.176-1.67.335-2.519.482Zm19.045 4.522c.879.772-3.55 2.188 2.377 5.23-4.314-1.533-8.729-3.258-13.593-5.665a93.096 93.096 0 0 1-.632-.318 82.29 82.29 0 0 0 7.421 1.968c-.054-.926-.093-1.847-.138-2.773 1.55.567 3.068 1.081 4.565 1.558Zm3.996 3.774c-1.545-2.809 10.661 1.142 11.659 1.604.23.135.951 2.075 1.295 2.543a218.935 218.935 0 0 1-5.494-1.639c.459.692.922 1.382 1.387 2.07a187.494 187.494 0 0 1-6.707-1.596c1.112-.175 2.212-.362 3.302-.56a199.553 199.553 0 0 1-5.442-2.422Zm-50.495-58.358c-1.275 5.541-.715 11.2.327 15.016 1.05 3.906 2.333 6.409 3.372 8.333.283-1.159.562-2.382.863-3.665-1.267-2.758-2.947-6.996-2.985-13.035-.766-1.993-1.313-4.281-1.577-6.649Zm31.694 49.184c-4.732 1.826-6.722-9.948-.594-2.092.622.766 1.029 1.906.594 2.092Zm34.821 12.505c5.427-1.523 2.775 4.347-1.23 1.333-.197-.157.821-1.225 1.23-1.333Zm36.524 6.738c.384.053.946 2.186 4.8.518.597.278 1.176.553 1.772.828-1.348.951-14.143.262-12.168-1.623 1.967.203 3.622.031 5.596.277Zm-11.173-9.029a176.88 176.88 0 0 1-5.531-.793c.482.746.966 1.49 1.463 2.233-.943.008-1.881.009-2.816.004a151.12 151.12 0 0 1-3.863-4.198c3.871.666 7.862 1.25 11.879 1.683-.375.358-.752.715-1.132 1.071Zm-46.602-14.865c3.175 2.309 7.694 3.178 13.092 5.112l.006.009c.267.098.477 1.098 1.345 1.414.771.42 15.699 3.528 14.196 4.597-6.061-.143-7.64-2.768-9.95.035-.085-.756-.167-1.512-.247-2.267-5.144-2.819-7.46-1.074-10.951-1.365l.576-1.479c-2.089-.81-4.184-1.67-6.319-2.619.171.449.34.895.513 1.341-.76-.31-1.531-.633-2.307-.969-1.268-2.255-3.45-3.689.046-3.809Zm54.88 16.85c1.596-2.741 10.54-1.255 17.814-.691 2.662.223 5.147.362 7.03.214-1.999 1.198-4.54 1.223-7.087.936-2.274-.255-4.558-.758-6.504-.894-8.064-.609-2.599 1.255-4.019 1.805-.714.276-5.152-2.686-7.234-1.37Zm-68.141-23.477c3.464 2.731 6.071 3.411 8.673 5.687.366.317.742.667 1.116 1.052-.435.113-.883.218-1.327.322a8.733 8.733 0 0 0-.361-.254c-2.204-1.259-10.425-7.596-8.101-6.807Zm103.166 24.431c-7.366-1.702-3.84 2.058-7.608-.809 2.559-.074 5.102-.155 7.644-.24l-.036 1.049Zm-89.688-252.239c3.041-.358 6.48-.156 7.957-1.942-2.003.098-4.057.182-6.126.26-.608.561-1.219 1.122-1.831 1.682Zm-70.515 49.775c.456-.603.05-3.514.154-3.808.147-.525.615-.235.749-.205.959-3.386-1.616-.767-1.068-3.44.045-.443 2.643-4.958 4.402-7.268.198-.281.378-.538.529-.764 2.177-3.37 5.55-5.68 6.775-6.465 2.013-1.421 5.795-4.543 9.774-5.844.085-.029.17-.055.252-.077 1.448-.381 2.294.283 3.816-.185 5.64-1.75 14.322-4.255 22.701-6.009 6.968-1.47 13.642-2.545 17.976-2.901 2.357-.188 4.77.758 5.988.47.907-.61 1.805-1.22 2.706-1.832 3.489 3.58 4.033.134 6.835-.963a4.64 4.64 0 0 1 .35-.12c1.973-.597 3.146.446 3.42.391 1.798-.377 2.554-1.153 3.92-1.571 1.532-.462 3.898-.523 4.427-.786.31-.19-1.186-1.357 4.666-3.257 3.776-1.271 7.524-2.646 11.318-4.089a399.953 399.953 0 0 0 6.628-2.591c-3.934-3.813-4.337.078-6.731 1.242-.219.106-.348.068-.446-.017-.19-.161-.266-.491-.636-.318-1.58.74-4.396 2.681-5.803 3.001-1.522.348-1.665-1.568-3.25-.27-.08.066.467.682.083.955-3.923 2.691-5.752 1.953-11.254 3.242-1.078.245-3.752.883-7.148 1.536-8.174 1.571-20.257 3.514-20.88 3.282-3.969-1.736 13.558-4.572 20.465-5.698 1.254-.202 2.178-.345 2.605-.393.987-.111.124.913 1.042.902.404-.013 3.422-2.227 6.504-3.217 3.722-1.097 11.872-2.925 15.629-4.491.596-.243 1.162-.475 1.762-.722 15.282-6.357 30.653-12.907 45.648-19.671 3.277-1.498 6.555-2.986 9.611-4.507 3.091-1.545 5.714-3.04 6.86-4.538 1.862-2.297 3.652-4.611 4.989-6.795 1.433-2.1 1.777-4.483 1.713-3.82-1.195-3.652-2.87-7.373-4.749-9.655-.241-.294-1.191-.33-1.634-.366-.166-.056.272.26.567.356.724.184-.584-.08-1.489-.103a97.21 97.21 0 0 0-3.226-.131c-2.249-.06-4.532-.091-6.86-.12-27.895-.187-56.431-1.582-84.687-3.156-13.615-.759-27.216-1.55-40.726-2.267-10.044-.533-20.119-.281-30.2-1.671-1.304.618-2.613 1.237-3.927 1.854 3.277-.341 9.063 1.637 9.602 1.696.198.02 1.446-.693 3.432-.52 2.776.238 3.931 1.002 4.159 1.017.699.048.289-.712.964-.665 5.032.359 8.901.4 13.53.685 5.193.322 7.75 1.847 11.644.586l1.173 1.827c3.003-2.34 19.84-1.057 26.689-.557 2.167.161 1.725 1.164 2.448 1.203.233.012.321-.329 1.073-.595.755-.257 2.151-.443 4.913-.17 2.877.283 3.506 1.294 4.974 1.336.781.02.705-.955 1.815-.9 6.441.316 11.677.87 18.01 1.31 1.777.123 1.752.931 2.146.937 1.495.023 4.08-1.246 7.802-1.11 6.111.238 18.353.584 23.356 1.335.749.114 1.344 1.097 1.879 1.092.815-.01 1.174-1.017 1.314-1.02 2.73.028 1.095.944 2.921.743 1.004-.109 2.055-1.249 4.357-1.352 3.05-.138 2.412 1.226 3.707 1.101.14-.02.17-.974 1.431-.994 1.836-.028 4.007-.073 6.186-.11 3.449-.057 7.054-.096 9.473.026.56.028 1.024.22 1.42.42.327.168.958.52.06.268-.24-.046-1.233-.59-1.175-.586-.084-.59 3.535 4.433 4.931 9.16-.368-1.63.005-1.183-.372-.523-.285.655-.717 1.333-.888 1.488-.097.081-.688-1.684-1.667.062.177.83.29 1.725.362 2.65-1.457.458-2.954.898-4.474 1.335.827.617.962 1.681.639 2.8.37 1.237-2.136 2.347-3.335.399-.597.213-1.278.449-2.006.692-.331 2.78-1.765 2.575-4.35 5.319-.811-.388-1.611-.783-2.412-1.179.076.482.151.965.224 1.448-1.624-.848-2.898.007-3.768.923-.604.655-1.02 1.354-1.156 1.424-1.313.673-2.579.546-3.199.854-2.308 1.138-7.052 4.254-9.992 5.106-.139.039-.45-1.009-1.291-.782-1.518.408-1.016 1.922-3.662 1.051-.195.597-.388 1.193-.584 1.79l-1.511-.131c-2.351 1.163-4.705 2.32-7.062 3.467 1.46-2.626-1.457-2.483-3.267-.141-.613.793.54 1.516.337 1.787-.282.388-11.312 4.389-12.296 3.983-.373.532-.756 1.066-1.133 1.598-.275-.291-.549-.582-.822-.874-.247-.258-.492-.516-.737-.775-.19.341-.377.681-.56 1.019-3.262.004-9.341 5.27-10.689 5.421-.702.092-1.06-2.901-4.071-1.691.121.822.235 1.647.348 2.471-.699.32-1.404.631-2.114.932-1.409.288-3.765-.668-4.024-1.614a87.254 87.254 0 0 1-.98 1.992c-.67-.688-2.161-.753-3.934-.489-2.409.362-5.318 1.338-6.832 2.273-.907-.445-1.809-.891-2.72-1.338a686.027 686.027 0 0 1-3.025 2.569c-2.555.587.008-.964-.557-.98-1.189-.029-6.882 2.796-6.853.319-.82.116-1.642.234-2.466.353l-.952 2.269c-1.784-2.162-4.083-.968-9.337-.954-.238.442-.475.885-.709 1.328l-.288.54a246.676 246.676 0 0 0-5.189-1.434c-.148.966-.297 1.933-.437 2.899-.659.268-1.317.538-1.971.81-1.819-1.727-3.846.999-5.301.468-2.138-.768-1.051-2.566 2.383-3.614-.573-1.463-10.868 1.706-13.264 2.586.24.237.484.472.72.71a209.078 209.078 0 0 1 7.201-2.6c2.92 3.173-3.906 3.776-6.81 5.14-.257.124-1.35 1.8-4.193 2.67-.11.034-.221.066-.334.098-1.199.271-6.973.251-8.085.716-4.277 1.531-4.624 2.549-4.961 3.076-.361.663-.772.682-5.496 3.02 2.877.087-2.457 2.404-5.302 7.267-.114.191-.225.385-.331.581-.63.805-2.542 8.301-2.516 8.757-.819 2.976-1.408-.808-2.363 3.627.292.649.596 1.288.912 1.912a52.71 52.71 0 0 0-.693 2.937c-5.232 5.322-2.099 7.359-1.841 9.406.115.78-.721-.071-.769 1.38a6.13 6.13 0 0 0 .026.694c.098.996.977 2.096 1.351 4.606 1.118 6.28-.316 9.419 2.333 12.951.584.75 1.369 1.484 2.429 2.199a119.17 119.17 0 0 0-.51 3.246c.892.29 1.784.568 2.674.831.179 5.115 1.341 2.679 2.063 4.194 1.86 4.026 6.335 12.015 5.513 13.64a6.162 6.162 0 0 1 1.958.77c3.229 2 3.105 6.826 4.145 7.828.98.426 1.964.833 2.948 1.217.41 1.138.85 2.276 1.32 3.412 2.248-3.024 3.836 3.609 4.311 4.029.284.304 3.438 2.453 6.494 4.244 1.77 1.056 3.521 2.028 4.566 2.688 2.798 1.855 7.617 5.375 8.102 5.562.545.286 6.137 1.612 10.107 2.93.458.159 1.191.434 2.132.78 6.232 2.537 21.733 6.664 20.857 4.918-1.278-.71-3.128-1.487-4.746-2.058-2.061-.727-8.337-2.392-15.424-4.984-8.807-3-19.007-8.676-23.656-12.518a87.376 87.376 0 0 1-18.665-19.792 111.107 111.107 0 0 1-11.528-21.835c-.347-.897.507-1.393.229-2.163-.093-.254-.267-.587-.478-.952-.753-1.282-2.007-3.149-2.278-4.111-1.153-3.77-1.902-8.976-1.698-12.242.02-.558.045-1.054.067-1.467.334-5.714 1.715-9.529 3.112-13.658.34-1.108 1.401-6.767 4.216-10.679.386-.555.799-1.078 1.229-1.548a29.223 29.223 0 0 1 2.434-1.649 30.937 30.937 0 0 0-2.417 4.018c-1.224 2.4-2.245 5.204-2.852 6.829-1.509 4.039-2.705 6.04-3.062 7.608-.349 1.253-.441 7.422-.293 10.591l.005.54c.013.992-.998 1.241-.94 2.127.3 4.622 2.036 9.913 4.141 13.018.104.154.209.305.316.452-.922-1.26 2.148 7.653 2.455 8.048.367.759 1.621 1.155 2.398 2.664 1.517 2.88-.436 3.53 3.362 6.081.014 1.17.048 2.348.106 3.534.907-.536 2.023 1.135 3.481 3.39 2.198 3.494 5.571 8.29 8.568 8.526.186-.099-4.023-5.364-6.65-9.868-1.553-2.57-2.722-4.789-2.965-5.22-2.848-5.073-6.686-11.866-9.113-18.341-.951-2.534-1.698-5.016-2.09-7.253-.295-1.487-.241-5.149.346-7.635.314-1.485.621-2.618.624-2.821.022-.891-.965-.162-.968-.551.267-8.068 1.709-3.767 2.356-4.716Zm79.813 186.586a133.495 133.495 0 0 1-7.385-3.267c.416-.459.831-.918 1.241-1.38 1.044.693 2.094 1.367 3.146 2.022.997.014 1.987.015 2.971.004.004.873.013 1.747.027 2.621Zm6.845-.269c2.199.387 1.939 1.589 2.413 1.798 1.41.619 2.814.507 4.224.923-2.428 2.373-5.605.023-6.637-2.721Zm-40.57-27.171c.036.086.057.291.088.577.108 1.36.76 5.106 5.09 6.062 1.577 2.981 3.493 5.922 5.635 8.686-3.778-4.43-10.207-9.264-11.769-11.421-.614-.799.034-1.547-.423-2.162l-.016-.022c-1.274-1.777-3.567-3.645-5.254-7.577-1.857-3.905-.964-9.629.851-9.784-1.035 3.625-.308 7.108.515 9.098.844 2.063 1.78 3.225 2.54 4.07 1.54 1.642 2.594 2.116 2.743 2.473Zm20.417 19.051c.273.774.545 1.539.847 2.311l.194.505-.359-.182a73.74 73.74 0 0 1-6.794-3.927 55.999 55.999 0 0 0 2.971-.537 73.285 73.285 0 0 0 3.141 1.83Zm47.901-85.639c1.364.095 2.718.192 4.053.297-.032-.494-1.581-.601-2.125-.967h.008c-.618-.415-.293-1.025-1.448-1.378l-.488 2.048ZM113.903 65.693c-2.329-.187-23.662-1.64-21.976.26.861.953 8.222.677 10.368.836 2.908.216 10.624 2.669 11.608-1.096Zm-37.805-2.929c-.507 1.749 12.846 2.954 14.159 2.733-.259-.272-.646-.865-1.006-1.018-1.754-.734-10.318-1.03-13.153-1.715Zm76.679 184.446a75.215 75.215 0 0 0 1.969 3.95c.205-1.193.42-2.383.649-3.568-.87-.11-1.742-.237-2.618-.382Zm-33.961-94.614c5.029-5.042 11.192-7.537 16.867-9.356 8.964-2.79 17.944-4.75 27.004-6.344 3.385-.59 6.76-1.118 10.12-1.622-1.5.721-2.999 1.448-4.495 2.183-1.778.267-3.572.544-5.377.838-8.949 1.469-18.092 3.32-26.866 6.159-4.956 1.629-10.002 3.853-14.12 7.589a24.986 24.986 0 0 0-3.133.553Zm43.325 172.31c-.56-1.567-.882-3.836-.305-5.93.555-2.1 1.677-3.612 2.682-4.679 2.073-2.119 4.05-3.139 6.198-3.887a16.142 16.142 0 0 1 2.763-.65 21.346 21.346 0 0 1-2.344 1.523c-1.613.922-3.126 1.523-4.714 2.74-1.421 1.109-3.842 3.604-3.114 7.498v.015c-.587 1.045-.94 2.237-1.166 3.37Zm88.921-48.352c.184 1.368.179 2.87.057 4.403.937-1.262 1.779-2.562 2.446-3.895a37.078 37.078 0 0 1-2.503-.508Zm19.213-168.571c.278-.279.603-.549.961-.808 4.367-3.17 15.717-5.534 16.607-9.597-.042-.19-1.683.277-1.182-2.85-.888 1.675-2.191 2.878-1.584 4.151-.893.033-1.793.03-2.701.01-.948.948-1.99 1.891-3.048 2.822-.493-1.293-.53-1.18-2.019.6-1.015.11-2.042.219-3.07.324a150.28 150.28 0 0 1-.366 2.108c-1.105-.377-2.223-.748-3.332-1.126-.273.233-.496.45-.671.652-1.424 1.674.537 2.291.405 3.714Zm-15.462 6.639c.876.008 20.695-10.149 10.369-8.425a841.198 841.198 0 0 1-7.057 3.488c3.844 3.252-4.354 2.472-4.929 2.616-2.752.733-5.604 3.158-7.501 3.92-1.631.654-2.912.32-4.037.826-3.833 1.732-9.934 4.327-10.061 6.408a274.128 274.128 0 0 0 9.215-3.88c3.284-1.462 6.913-1.091 12.121-6.044 1.636-.437 1.664 1.102 1.88 1.091Zm-6.305 169.206c-.646-.681-1.948.156-3.508 1.164-1.526 1.017-3.18 2.254-3.021 2.596.211.397 2.476-.934 2.853-1.004l.006-.004c.171-.026-.107 1.018 1.038.51 1.044-1.052 1.984-2.158 2.632-3.262ZM147.412 63.655c-1.085-1.119-27.362-2.45-28.167-2.004-.219.127.042.61-.058.871 6.223-1.081 14.816 1.253 20.617 1.742 1.627.136 1.187-.644 1.28-.652h.012c.924.059 4.948 2.15 6.316.043Zm144.653 27.083a78.449 78.449 0 0 1-2.594 2.089c.302.57.601 1.14.893 1.72l.005-.006a67.86 67.86 0 0 0 1.696-3.803Zm-12.817-23.516c.274.415.538.83.793 1.246 2.725.128 5.865.167 7.886.654-.223.18-.463.37-.71.567.76.279.513.235.877.447 1.427.986 2.981 1.715 3.722 3.163l-.004-.006c.099.207-.485.874-.11 1.595.919 1.568 2.607 6.599 3.581 7.29.028.006.056.01.084.013.272.022.466-.041.572-.233.658-1.796-3.656-9.75-4.94-10.886-.525-.736-.772-2.035-1.223-2.41-.121-.103-.301-.16-.51-.188-.675-.12-1.046.293-2.143.116-.303-.139-5.551-1.532-7.875-1.368Zm-49.733.237c.861.958 2.652.125 3.345.3.159.041-1.119.774.39 1.058.445-.515.886-1.03 1.323-1.544-1.68.065-3.358.127-5.058.186Zm8.063 224.221c.319.069 4.316-2.076 4.426-2.302 1.567-2.731-6.563 1.728-4.426 2.302Zm-43.923 53.844c-.468-1.54 4.685.723 10.536 2.914 5.828 2.239 12.313 4.493 13.5 4.721-.5 1.484-5.864-1.557-3.394 1.3-2.597-1.852-10.649-3.658-12.374-4.657-1.051-.577-.884-1.937-1.036-2.034-.596-.332-6.895-1.109-7.232-2.244Zm44.069 12.725a153.735 153.735 0 0 1-6.896-2.009c2.781.338 5.567.603 8.353.789-.482.409-.968.816-1.457 1.22Zm3.056-.313c.096-1.457 7.952.468 10.097.229-2.567 2.375-6.357-.337-10.097-.229Zm-30.226-52.198c1.835-.02 2.877-1.14 3.023-1.953.063-.316-.006-.587-.21-.732-.364-.27-1.18-.118-2.475.943-.111.099-.501 1.732-.338 1.742ZM274.04 113.31l.068-.026c.961-.323 8.332-2.316 8.461-3.203.277-2.741-4.035.428-5.99.363-2.762-.078-.614-2.263-3.956-.318-.46.269-1.061.634-1.778 1.086.058-.543.109-1.083.162-1.624-3.672 1.537-1.144 3.931-1.617 4.61-.152.211-2.542 1.005-2.866 1.378-4.066 4.721 6.98-2.005 7.516-2.266Zm-41.126 142.295c-7.303-1.85-4.259.378-11.803-.219-.323 1.017 10.772 1.04 11.803.219Zm-26.878-116.733c7.588-2.241 14.08-3.354 20.073-7.664-.744-1.21-6.044 1.003-11.11 3.232-5.045 2.265-10.045 4.313-8.963 4.432Zm-145.864-89.9c29.296 7.016 63.61 7.747 95.16 9.633 3.446.207 3.712 1.328 4.956 1.285.817-.028.718-.925 1.814-.862 9.667.554 19.242 1.016 28.693 1.405 28.582 1.176 56.412 1.7 84.27 2.169l1.234.029c.936.025 3.308.35 6.014.607 1.353.131 2.788.24 4.254.341 1.316.1 3.532.193 5.272 1.248 1.464.748 2.519 1.35 3.43 1.454 1.538.233.648-1.483-2.098-3.342-.62-.46-2.402-1.272-3.352-1.393-1.016-.19-1.716-.195-2.326-.201-1.211.001-2.027.077-2.418.05-1.103-.066-1.1-1.09-1.833-1.118-.752-.026-.169.692-1.03.68-2.368-.029-4.793-.155-7.13-.238a83.514 83.514 0 0 0-3.776-.066c-27.111.33-53.55-.8-80.398-2.318-4.698-.267-9.426-.549-14.193-.84-3.809-.232-2.994-1.008-3.182-1.023l-.008.006c-20.586-1.285-44.227-.978-65.998-3.154-15.324-1.602-30.661-3.23-45.975-4.867l-1.38.515Zm197.748 68.491c3.025 2.043 2.143-.966 8.969-2.677.287-.712.592-1.433.874-2.144a945.024 945.024 0 0 1-9.854 4.826l.011-.005Zm39.823-24.038c1.139.332 2.514-.553 3.902-2.598 1.176-2.017 3.465-5.493 1.719-11.358-1.723-4.656-4.393-9.36-6.667-12.774-1.326.035.255 2.353 1.592 4.99 1.401 2.64 2.774 5.701 3.097 6.946.068.254.132.757.202 1.433 1.049 4.89-2.896 9.395-4.241 13.186l.396.175ZM177.179 326.664a54.29 54.29 0 0 1-2.218-2.135c1.233 2.342 2.535 4.533 4.066 6.629-1.802-1.984-3.391-4.112-4.924-6.426-.805-1.201-1.508-2.383-1.699-3.05.937-.051 1.925-.107 2.972-.124.111.527.304 1.134.536 1.778a77.432 77.432 0 0 0 1.267 3.328Zm-4.643-4.319c-.136.394.24-.631.005-.667-.148-.142-.374.019-.623.148-.742.455-.077-1.013.896-.938.995.069-.337 1.364-.278 1.457Zm16.448-5.109c-3.026 2.454-9.402 4.843-8.133 1.16 3.989.106 5.966-1.765 11.607-2.556-.629.79-1.248 1.58-1.862 2.372l-.011.003c-.53-.329-1.067-.654-1.601-.979Zm-14.435 4.301c-1.118-1.402-.806.08-1.429 1.268-.282.33 1.692-.621.978.617-.012.014-.389.455-.061.051.384-.406.605-1.953.512-1.936Zm-81.4-273.436c-.685.95 3.263 1.202 4.56 1.357 5.671.684 12.987.744 18.874 1.275l-1.263-1.07c-7.392-.514-14.786-1.036-22.17-1.563Zm41.92 3.857c4.068.264 8.115.524 12.181.782.38.024 2.207-.716.901-1.007-4.377.078-8.712.154-13.082.225Zm101.497 81.222c3.139-.701-4.192 5.436-4.977 2.437 1.666-.807 3.323-1.62 4.977-2.437Zm-28.204 11.445c2.029-.802 4.023-1.67 5.958-2.583l.324 1.005a105.414 105.414 0 0 1-6.282 1.578ZM77.239 46.3c1.974 1.345 6.93 1.502 10.004 1.738-2.05-1.179-7.141-1.02-10.004-1.737Zm202.994 68.84c-.284-.322 2.429-1.774 4.907-2.889 2.473-1.106 4.801-1.971 2.952-.118-2.762 1.174-5.32 2.096-7.859 3.007Zm24.109-18.503c-1.651 2.92-3.262 4.493-3.931 3.255a64.983 64.983 0 0 0 2.933-3.971l.998.716Zm-101.506 219.22c4.279-1.29 8.6-2.563 13.004-3.942l-.201 1.155c-4.265 1.331-8.416 2.558-12.542 3.803l-.261-1.016ZM74.926 42.971l-9.269.046c3.061.45 6.115.9 9.18 1.349l.097-1.4-.008.005Zm115.059 284.487c-6.468-7.19 3.604-1.083 5.222 2.031l.011-.001c.117.302-.823.974-.649 1.534a37.502 37.502 0 0 1-2.105-2.79 45.693 45.693 0 0 1-3.325-.108 30.286 30.286 0 0 1-.348-1.1c.397.152.795.296 1.194.434Zm46.335 14.386c11.081 1.785-.697 2.882-5.904-.355.147-.435 4.897.193 5.904.355Zm-29.304-6.82a135.91 135.91 0 0 1-5.18-1.142 70.05 70.05 0 0 1-.288-1.065c1.323.211 2.667.403 4.025.578.47.544.952 1.087 1.443 1.629Zm-19.637-4.77c2.761-.546 5.051-4.82-3.058-1.152l.372.988c.295-.168 1.119-.807 1.19-.803.182.031.371 1.205 1.496.967Zm70.667 4.431c.272-.092.561-2.438 2.331-1.397.452.269 1.028.769 1.715 1.595 1.092-.183 2.173-.369 3.267-.557.247.829.49 1.658.736 2.487-4.175-.812-4.665.812-4.979.834-1.174.074-.596-.485-.922-.694a.617.617 0 0 0-.292-.075c-2.31-.134-7.401.117-4.959-2.164.875-.816 2.755.087 3.103-.029Zm-7.608-2.613c.44.346-1.144 1.307-.819 1.642.253.301 4.923 1.743 3.517 3.482-.791-.131-1.566-.264-2.337-.4-.226-.522-.447-1.043-.666-1.565-.783.403-1.556.802-2.333 1.197-1.137-1.347-3.49-3.206-.372-3.909a166.122 166.122 0 0 1-3.333-.035c-.632.524-1.266 1.044-1.906 1.56.411-.859.82-1.72 1.22-2.583 2.269.25 4.601.448 7.029.611Zm38.739 2.04-.516 1.388c4.76-.721 12.258-.798 7.915 1.991-6.494.028-12.906.078-19.285.103l-1.231-1.099c4.703 1.518 3.427-4.299 7.517-2.508.692.303-1.409 2.254 3.039 1.105-.141-.474-.285-.949-.426-1.424l2.987.444Zm41.78 3.079c-8.328-1.262.826-2.355 2.7-.753h-.009l.067.065-.966-.066c.871 1.556.598 2.163-.116 2.327l.881.06c-2.068.113-5.382-.778-5.703-.786-.737-.017-2.594 2.644-6.183-1.668 3.074.272 6.036.523 9.329.821Zm-27.34-2.582c.709-.063.293.627.6.629h.008l.689.003c.167-.01.667.052.835.047 4.664.164 13.995.357 14.911 2.593-2.299-.021-10.382-.301-15.023-1.073-.157.004-.628-.053-.785-.044-1.87-.242-3.172-.561-3.414-1.003.73-.384 1.452-.768 2.179-1.152Zm-30.713.662c-2.576-1.571 3.348-1.551 4.889-.817.291.158-2.22 2.444-4.889.817Zm-10.95-22.611c4.298-3.433 3.481-3.58 1.713-2.858-1.701.608-3.79 1.276-2.234-.591a86.41 86.41 0 0 1-4.355 3.13c1.505.214 3.113.346 4.876.319ZM158.299 175.24c1.187-.103.457-.805.553-.84.765-.149 1.638.367 1.914.233 5.176-2.511 1.41-2.448 1.307-2.598-.291-.795.982-2.063-1.248-2.576a180.91 180.91 0 0 0-3.476 1.678c-.708-.315-1.413-.628-2.122-.937-2.156 1.552 1.037 1.057 1.692 2.271.249.477-1.819 1.602 1.38 2.769Zm121.262 123.899c-.14-2.332.648-7.259-2.952-4.239a.083.083 0 0 0-.008.012c-.659.561-2.518 2.944-3.345 3.371-2.186 5.796.581 5.998 6.305.856ZM145.277 181.694c.105-.457.783-1.392 1.207-2.388-.666-.58-1.328-1.165-1.988-1.752-.09.453-.26.933-.368 1.32a6.738 6.738 0 0 1-.937-.806c-.413-.939-.784-1.951-1.333-2.839.376.011.74-.022.945.168.02.104.043.206.066.31.221.046.439.101.652.164.211.139.399.315.562.52.096-.028.136-.046.137-.06-.274.352-1.763-.629-2.799-.126a25.09 25.09 0 0 0 1.905 1.871c-.94.221-1.907.639-2.86 1.23.143 1.368.776 1.534 1.824.855.961.739-.796 1.215-.417 2.106.031.07 1.045.008 1.053.068.039.388.061.744.065 1.068.018-1.161-2.003.449-2.009.694-.032.304 2.42 2.06 3.041 1.936.645-.339 1.971-4.592 4.02-.663.269.483.594 1.177 1.005 2.114.039-.931-.026-1.78-.133-2.44-.672-3.606-2.374-2.968-4.859-1.59.008-.68-.137-.828-.304-.037-.111-.993-.143-1.765-.093-1.863.189-.352 1.411-.085 1.498-.486.038-.114-2.64-1.694.173-2.326a28.526 28.526 0 0 1-1.159-.921 8.3 8.3 0 0 1 1.21.097 30.078 30.078 0 0 0 3.616 2.041c-.794-.814.179-.505.096-.415-.17.245-.704.579-1.599.455-.741 1.231-1.137 1.813.123 2.346-.341.298-.659.543-.912.721a8.653 8.653 0 0 1-1.428-1.372Zm133.44 66.961c-4.049-7.67-8.42-6.692-7.582-5.907 4.11 4.782 9.396 9.989 7.582 5.907Zm-125.015-73.916a231.83 231.83 0 0 0-7.96-.118l.847 2.67c2.185-.874 4.618-1.737 7.113-2.552ZM261.818 315.23a43.514 43.514 0 0 1-2.267-1.082c-3.29 4.885-8.105 3.094-9.169 4.511-.232.304.941 1.093 1.69 1.009.232-.028 2.059-.655 4.329-1.629 2.223-.933 5.027-2.415 5.417-2.809Zm-43.798 7.067c-1.158.149-2.314.288-3.463.417.294-.733.586-1.466.877-2.2.535.015 1.072.028 1.611.039.319.581.644 1.163.975 1.744Zm-11.359-2.54a55.096 55.096 0 0 1-4.101-2.004c5.341 1.637 1.235-.569 4.95-.122l-.849 2.126Zm-9.484-7.197c.394-.277.784-.557 1.168-.845a18.946 18.946 0 0 0 1.991 1.536 25.53 25.53 0 0 1 1.743-4.788c-.168-.14-.323-.276-.474-.416a188.427 188.427 0 0 1-4.428 4.513Zm23.898-145.411c1.838-.497 6.927-3.767 6.461-4.175-2.427.182-4.973.362-7.597.489l.786 2.696c-.491-.338-.979-.677-1.461-1.02a112.079 112.079 0 0 1-4.076 2.218 102.153 102.153 0 0 1-2.796-1.835 204.766 204.766 0 0 1-1.569 3.233c7.481-.027 6.882-1.744 8.317-2.104.742-.209 1.359.209 1.707.408l.228.09Zm-67.579 13.8c5.083-1.099 7.713-4.173 12.055-2.943-2.491-2.884-12.036.889-18.052 2.388-1.506.317-2.367.263-3.05-.437.178.695.436 1.356.787 1.966-.271-.586 1.463.253 2.25.224.293-.023.422-.165.469-.318.107-.217.022-.438.066-.446l.011-.003c2.461-.448 3.485.01 5.464-.431Zm103.938 140.714c2.319.077 6.617-2.552 5.877-4.041a53.877 53.877 0 0 1-7.11 2.393c.57.17.819 1.651 1.233 1.648ZM199.7 308.692c.124-.612-1.008-1.217-1.726.096-.107.268 1.392.434-.927 1.656.846.838 2.582-1.399 2.653-1.752Zm-38.394-99.836c.495.389.999.767 1.513 1.133.532-.41 1.058-.825 1.58-1.245a38.046 38.046 0 0 1-3.093.112Zm79.917 121.651c-3.027-2.254-5.074 1.823-9.14.386a215.295 215.295 0 0 1-3.532 1.068l.686 2.535c3.777-1.122 7.736-2.386 11.986-3.989ZM147.79 179.706a8.511 8.511 0 0 0-1.294.091c.384.41.781.825 1.191 1.241a8.534 8.534 0 0 1 1.095-.298c-.34-.356-.67-.701-.992-1.034Zm72.69 157.815c1.084-.188 1.94-.57 2.487-.988 1.063-.804 1.003-1.728-.507-1.769-.548-.019-1.313.086-2.254.349-2.031.568-3.751 3.09.274 2.408Zm69.293-200.276c-1.303.356-2.581.695-3.845 1.027l-.023.107c-.15.685-.307 1.374-.471 2.066.364-.263.723-.524 1.075-.782 1.075-.797 2.156-1.599 3.264-2.418Zm-85.288 175.186c-.329.49-.662.977-.997 1.463-.436-.36-.832-.715-1.193-1.066a98.84 98.84 0 0 0 1.19-1.326c.302.303.636.614 1 .929Zm77.108-171.754c-1.011.342-2.006.674-2.994 1.001-.526.552-1.034 1.096-1.559 1.646 1.005-.144 2.013-.292 3.012-.437.523-.739 1.02-1.469 1.541-2.21Zm-91.65 205.437c.909.391 4.33-3.074.532-2.372-2.216.416-.655 2.309-.532 2.372Zm-.529.828c-1.205 1.462-1.089-.199-1.584-1.033-.115-.505-.214-.845.88-1.563.558-.387 1.465-.866 3.11-2.099 1.598-1.269 4.262-3.332 7.119-8.24-2.447 5.111-4.614 7.125-5.91 8.5-1.338 1.321-2.08 1.889-2.587 2.326-.996.826-1.167 1.068-1.262 1.33-.148.48.333.671.234.779Zm21.594-36.624c.086.037-.213.974.477 1.276 2.456 1.08 6.194 2.693 8.342 3.383 2.497.827 7.927 1.906 12.956 2.92 5.172 1.07 9.303 1.91 10.073 3.471.299.643-.821 2.283-.681 2.394.418.326 3.191-.197 2.543 1.04a121.157 121.157 0 0 1-7.82-1.223 97.923 97.923 0 0 0 2.39-2.39c-6.5-.68-4.416-.401-6.756 1.18a231.09 231.09 0 0 1-2.991-3.074c-2.715.164-5.449.271-8.158.328.723-.404 1.445-.812 2.162-1.224-3.457-2.069-2.583-1.101-5.005-.334l.491-1.682c-3.908.303-3.977-1.601-4.687-1.855-1.234-.474-6.274 5.179-7.77-3.023-1.362 1.022-1.464.334-1.351-.446.113-.951.518-2.045-.753-.614.02-2.451.875-2.463 2.017-1.86.82.438 2.372 1.434 3.637 1.993l.005.002c.222.1.089-.625.879-.262Zm-11.113-2.621c1.879-.934 1.692-2.27.021-2.884-.752-.177-1.552.331-2.404 1.655.014.051.03.105.05.162.113.348.206.665.286.958a7.341 7.341 0 0 0 2.049.111l-.002-.002Zm94.004-46.579c-3.401-11.776-8.278-16.702-10.518-19.249-2.408-2.458-2.966-2.52-2.305-1.527 1.347 1.919 7.161 9.487 10.353 16.884 1.323 2.877 2.118 4.576 2.47 3.892Zm-132.481-79.693c.066-.387.133-.775.202-1.163-3.313 1.035-9.811 1.307-9.013 3.657a160.608 160.608 0 0 1 8.811-2.494Zm-11.008 3.456c-.428.65-1.836 2.075-2.103 1.126.171-.89.529-1.986.779-3.142.61-.027 1.242-.107 1.855-.2-.295.58-.424 2.075-.531 2.216Z" fill="#61C8D4" fill-opacity=".14"/></svg>