<svg width="220" height="209" fill="none" xmlns="http://www.w3.org/2000/svg"><g filter="url(#a)"><path d="M9.973 7.518c4.662-17.42 7.443 1.19 11.513 4.202 8.96 6.619 20.93.91 30.122 1.478 6.956.43 14 1.75 20.87 2.81.352.053.544 1.97.706 1.996 1.51.239 4.043-1.477 5.529-1.212 3.133.552 8.57.288 11.408 2.097 1.201.767 2.45 1.09 2.893 5.653.442.234.701-3.887.817-4.11l.004.011c.376-.694 1.298 2.199 1.503 2.02.023-.022-.076-1.766.096-2.19.054-.13.134-.135.253.079.045.077-.002 2.107.421 2.137.115.008 1.517-3.101 1.926-3.29 1.34-.617 4.534 1.83 6.121 1.787.245 0 .388-1.187.647-1.208.133-.013.334 1.276.375 1.269.181-.046.954-5.9.686 5.651.811-.733.573-4.552.586-7.032.895-.359 1.327 5.08 1.547-.686 4.371.688 8.715 1.363 13.051 2.024l-.019-2.82c1.319 3.744 1.686-2.61 2.469 2.835.435-1.204.87-2.409 1.308-3.613 6.42 1.996 12.791 1.443 18.914.49 4.568-.747 8.953-1.787 11.13-1.964.206-.016.426 1.973.755 1.957.378-.02.55-2.372 1.287-2.428.185-.015.437.112.758.303 4.372.09 6.057 1.069 7.582 1.176.454.036.669-1.244.72-1.24.281.033.398 2.035.655 2.078.309.047.571-1.455.902-1.38 1.218.269 2.293-.292 2.424-.263.623.162.835 2.116.885 2.135.66.21.338-1.547.502-1.452.841.506 1.593 4.897 2.411.616l.134 4.918c.804.888.108-3.442.228-4.237.065-.296 1.635.166 1.735.239.405.262.516 2.439.552 2.466.093.067.908-2.45 1.435-.573.638 2.223.268 6.682.44 7.506.034.14.555-.344.7 1.037.166 1.486-.303 1.48-.265 2.106.033.429.984 3.457.957 5.533.013 2.08-1.254-.517-1.464.471-.033.164.177 2.72.145 2.816-.082.353-3.063.57-3.272.154.114-1.174.226-2.348.336-3.522a68.266 68.266 0 0 0-.67-.324c.273-.95.539-1.898.798-2.846-.864-9.586-1.849.214-1.713 5.012.073 2.218 1.207 7.884.526 11.242l.451 1.69c.219-.946.431-1.892.643-2.838l-.585-1.746c.033-.669.067-1.338.099-2.008.428-1.09.842-2.18 1.243-3.269.253.482.296 2.453.471 2.826 2.161 4.7.622-1.338 1.875-.519l.67 3.143c-.294-4.366.377-1.65.843-3.568.015 1.417.027 2.835.037 4.253.107-.105.235-.076.374.035.283-.3 1.767.208 2.062-.081 1.026.778 2.528 5.253 1.906-1.528.232.662.462 1.323.689 1.985.147-1.283.289-2.565.425-3.847.24.14.493.278.734.417l.071 2.073-.58.031c.206 2.102.426 4.204.641 6.306.136-.354.265-.709.397-1.063-.665-1.973.019-5.253.099-8.04.44-1.046.89 2.551 1.056 2.707.094.075.673-6.33.643.682a73.8 73.8 0 0 0 1.191-2.612c.194.527.385 1.055.582 1.582-.186 3.277 1.113 7.14.391 8.536-.552 1.046-.868-1.992-1.156-1.957-.271.029-.304 2.086-.603 2.191-1.981.666-3.75.34-5.85-.525-.175-.073-.342.065-.499.24-.254.248-1.529-.19-1.772.07-.177.244-.338.556-.491.483-.3-.146-.08-2.739-.415-2.092-.355.683-.334 2.787-.439 2.835-.065.028-.375-1.85-.572-1.84-.8.042-1.979 1.927-2.107 1.922-.121-.015-2.75-1.608-2.912-1.912-.075-.166-.237-7.15-.503.315l-.541.44-.093-4.188c-.893 5.336-.625 2.36-1.74 2.828-1.994.774-3.479.453-8.911.885-.984.045-1.713.095-2.33.33-.394.152-.383 1.83-.861 1.994-.448.148-2.042-4.731-1.26 2.136-1.499-5.887-1.013 4.413-2.001-1.97-.012.939-.027 1.877-.043 2.816-.879-3.971-.867-.437-1.584.087-.307.227-.145-4.058-.563.724-.14-.348-.28-.695-.422-1.043l-.058-3.101c-.684.878-.754.34-.501 4.201-.393-.687-.769-1.376-1.165-2.064l.017 3.81c.442 2.437 7.956-1.641 8.436-2.917.823 1.692 1.813.913 2.939.151 2.238-.647 3.178-1.066 3.945-.86.732.227 1.21 3.073 2.113 3.368.897.295 1.778-2.358 2.196-2.471 1.502-.397 7.362-.075 3.508 3.667l.534 4.18c1.391-4.841.942-1.878 2.256-1.444.557.186 1.644-2.996 1.887 3.357-.917 1.23-2.079-.75-2.967-.62-.086.014-1.025 2.96-1.623 2.197-.54-.697-.448-6.768-1.272.08-1.137-6.604-1.372-.556-1.57.096-.344 1.129-.546-2.146-.972-2.508-.472-.4-.676 1.792-.738 1.81-.52.065-4.239.604-4.908-.64.164-.6.307-1.197.462-1.794-1.445-.81-.893 2.515-1.245 2.956l-.273.02-.297.009-.081-2.092c-.777.239.085 2.574-.996 2.632-.677.032-1.582-2.547-1.62-2.346-.014.058.362 1.82.128 2.085-.384.435-1.125.455-1.417-1.965-.172.36.044 2.735.021 2.791-.085.245-2.194 1.216-2.606 1.38-1.096.458-2.409.02-3.683.48-.132.045-.116-1.487-.244-1.432-.202.088-1.205 2.534-1.373 2.71-.394.432-1.533-.48-1.69.222-.022.099.42 2.152.012 2.808-.448.725-.289-2.063-.315-2.09-1.007-.917-1.556 1.033-2.215 1.426-.219.126-.672-1.955-.962-1.328-.034.07.089 2.002.057 2.098-.446 1.027-.967-2.55-1.175-2.777-.51-.556-.175 2.085-.2 2.105-.077.022-.163-.013-.255-.078-.29-.213-.671-.741-1.052-.635-2.261.617-4.109.816-6.531.684-.31-.015-.7-1.877-.746-1.879-.143.017-.061 2.212-.48 2.17-.881-.098-1.692.021-2.562-.008-.177-.006-.286-2.04-.419-2.081-.437-.12-1.899 5.229-2.013-1.4-.822 5.88-1.461.83-2.185.896-1.695.148-4.334 1.372-6.038.626-.356-.16-.535-1.857-.734-1.947-.359-.165-2.377.8-2.492.533-.217-.513-.14-7.993-1.164-1.47-.628.47-.575-2.601-.707-2.766-1.01-1.226-1.968 5.63-1.817-.648-1.157 1.71-1.932 5.183-2.426-.684.019 2.864-.525 4.585-1.205 3.496.674-4.814.565-7.888 2.227-7.016.026.014-.014 2.085.013 2.1.238.138.725-.91 1.123-.8.402.11.187 1.528.349 1.5.149-.03.133-2.011.347-2.04.696-.082 1.291-.632 1.693-.67.249-.023.538 1.717.729 1.716.738-.02 2.304-1.391 3.256-1.21.196.043.131 1.998.56 2.156.048.019.216-2.02.592-2.446.375-.426.675.583.913.37.199-.179.094-1.988.512-2.105.346-.094 4.273 1.166 4.485 1.45.313.413.491 2.953.673 2.641.032-.067.055-2.523.166-2.7 1.823-2.925 6.021.36 8.145.298 2.228-.06 4.357-.476 6.472-.966 2.076-.488 4.103-1.05 6.161-1.415l.17-1.289c-.417 0-.833 0-1.259-.002l-.131-3.464c-.572-.163-.402 2.565-.33 4.213-.234-.692-.476-1.384-.711-2.077-.042 4.031-1.575 1.399-2.314 1.425-.492.013-1.024 1.563-1.291 1.45-.141-.059-.251-.264-.336-.537-.245-.802-.28-2.19-.313-2.218-.076-.055-.799 2.155-1.377 2.083-.83-.102-1.005-3.914-2.084-.65-1.507-1.948-3.115-.92-4.7-.57.24-3.53-1.119-.169-1.774-.214-3.922-.281-8.791-1.731-12.796-3.094-.524-.171-.918-2.246-1.204-2.175-.155.036-.204 2.486-.423 2.164-.038-.062-.081-2.352-.489-2.694-.99-.86-3.472 2.978-4.119-1.415a2042.79 2042.79 0 0 1-10.257 2.068l-.26-2.807c-.661 4.783-3.226 1.973-4.482 2.196-1.611.29-3.532 1.151-5.228 1.66-.627.19-1.223.33-1.756.373-.426.034-.767-1.324-1.164-1.298-.17.013-.392 1.771-.57 1.78-2.02.125-4.728-1.701-6.765-1.671-4.61.063-8.972-.237-13.659-.201-15.81.135-31.624 2.529-47.37 1.286-.21-.017-.174-2.04-.338-2.055-.966-.111-3.145 1.528-4.236 1.422-.868-.081-2.21-3.191-2.55-.081 3.03 4.752 6.302 4.44 9.5 5.798.228.096.232 2.019.26 2.054.513.675.217-1.977.974-2.087.253-.037 2.506 6.13 2.306.017.527 2.45 4.449 3.721 5.215 2.92.234-.243.093-2.055.14-2.146.204-.397.263 2.1.44 2.166.472.161 1.7-1.849 1.928-1.832.523.028 2.082 2.079 2.78 1.609.641-.43.552-3.038 1.107-3.271.437-.177-.062 2.01.9 2.684.476.33 2.17-1.22 2.581-1.215.408.005.844 1.57 1.407 1.457.809-.16 2.59-1.008 3.414-1.499.05-.027.192-2.054.313-2.01.251.087.147 2.591.335 2.848.19.255 3.476-.014 4.035.02.385.018.666-1.471.877-1.456.166.016.162 2.103.33 2.128.053 0 .523-1.807.971-1.76.426.048 2.007 1.788 2.196 1.806.121.008.003-1.476.362-1.437.327.04.522 1.967.708 1.997.431.067.93-1.57 1.386-1.572 1.32-.008 1.227 2.376 1.306 2.454.217.218.326-1.966.398-2.01.306-.18 1.05-.576 1.322-.658.34-.103.462 1.975.82 1.985.268.001.827-2.017 1.434-2.11 1.377-.22 3.001-.587 4.355-.497.401.024.446 1.92.568 1.97.642.266 1.017-1.85 1.203-1.82 1.316.2 3.63 3.544 4.84 3.835.5.117 2.668-1.402 3.9-1.119.14.03-.002 1.514.156 1.283.376-.555.362-3.58.55-3.488.09.054.286 1.761.549 1.933 1.375.89 2.327-.431 2.951-.336 3.188.486 6.408.943 9.561 1.305 2.802.32 5.554.567 8.189.693.616.028 1.404-1.772 2.341-.025l.089 2.82.096-2.772c1.067-.501 1.473-1.69 2.559-.516.094.098.393 4.388.559-.941 1.088 3.858.487-.033 1.281-.394.812-.362 1.575.825 2.361 1.09.433 1.908-1.336 6.318-1.454 6.304-.188-.016-.392-2.665-.575-2.806-.545-.42-1.044 1.685-1.173-.68-.686 2.502.173 1.25.092 3.503-.463-.93-.934-1.861-1.398-2.792-.213 7.66-2.797-2.326-2.606 3.507l-.613-3.503c-.899 7.318-1.41 2.166-2.607-.012l.258 2.808c-.025.39-1.081 1.886-.703-2.1-1.073 5.252-1.02-3.486-2 2.83-.576.81-.222-2.86-1.247-2.798-.609.034-1.374 1.951-2.05 2.083-.156.025-.219-2.1-.358-2.1-.14 0-.214 2.083-.383 2.135-.213.067-.462-.44-.675-.822-.137-.25-.258-.445-.344-.39-.195.12-.478 1.956-.952 2.243-1.66 1.015-1.146-1.607-1.403-2.496-.274-.945-.488 2.511-1.044 2.108-.056-.043.098-2.196-.084-2.112-.148.065-.231 2.406-.722 2.84-.191.176-3.207.663-3.659.702-.703.06-2.257-1.931-2.982-1.922-.28-.001-.594 1.877-.893 1.862-.98-.048-2.573-.218-3.814-.32-1.132-.092-3.072-4.257-3.724-.516-1.59.473-1.944-2.731-2.064-2.776-.322-.122-.49 1.997-.9 2.092-5.28 1.188-12.222-.283-17.23-.168-11.612.283-23.314 1.296-34.973.287l-.13 2.818c1.372.624 2.971 2.278 4.329 2.668 1.81.516 4.556-3.364 5.81 3.077-.547.556-1.398-1.918-1.424 1.386l2.891.744-.03-4.578c1.017-.431 2.045-.086 3.059-.292.176-.034.069-1.42.222-1.426.172-.002.038 1.406.07 1.417.434.02.582-1.405.635-1.383.135.057.013 1.414.4 1.799.716.72 1.278-2.88 1.035 3.125l.701.009.242-4.904c1.364 6.62 2.163-4.955 2.849 4.245l.839-4.201.385 4.912.137-4.21c1.397 1.052 2.929-.616 4.273-.438.942.123 1.162.68 1.996.584 1.855-.219-.019 2.546 1.491 5.571l-.183-5.166.788-1.883.487 4.217c.869-7.272 1.311-1.39 1.419-1.388.087-.012.435-4.391 1.327-.67-.321-5.996.712-.026.8.01.082.025 1.164-1.301 1.6-1.24.341.046 1.055 1.343 1.563 1.286.448-.052.423-2.087.456-2.108.556-.163.192 1.414.592 1.496.4.082.727-1.649.812-1.493.042.083-.122 1.976.074 2.161.529.505 1.504-1.144 2.118-1.089.216.017.473 1.628.713 1.68.369.073.562-2.06.775-1.995.075.029.515 3.332 1.115 2.831.115-.1.513-7.077.858 2.816l.141-4.174c2.007-3.426 2.47 7.884 3.438-2.14 1.427 1.133.405 5.032.557 5.632.1.38.581-.69.632-.629.09.12.064 1.375.164 1.369 1.84-.216 1.044-2.592 1.637-4.087 1.415-3.56 2.43 4.379.04 1.977l-.019 2.1c.599-.664 2.104-.334 1.571 3.212-.422 2.793-3.974.937-1.988 4.878.45.891.71-1.733 1.468 3.198.525.272.654-6.107 1.343-3.54l-.296-6.68c.985-2.894 2.166 1.008 2.915-.233.254-.423 1.249-11.027.955-.42.438-.659 2.413 1.31 2.801.362.091-.23.251-5.877 1.528-3.896l.255 2.126c-1.194 2.049.878 4.155.276 9.51-.179-2.41-1.104-3.885-1.248-5.098-.244-2.087.544-4.77-.442-4.043-.68 8.953 1.117 4.843.789 13.347 1.306-3.962 1.423-.173 1.712-.013 1.244.649 2.036-.248 3.209.751.3-1.745-1.831-4.28-2.09-3.527 1.002-6.187-.655-6.477-1.389-2.805l-.142-5.616c.918 1.02 1.793 1.547 2.72.017l.166 2.1-.633 3.159c.75 1.73.327-3.73 1.308 1.057l.128-6.323c.951.706 1.928 1.41 2.882 2.115.515-4.224 2.374-2.642 2.008 2.829.745.389-.164-2.527.54-3.856.302-.576.908-.736 1.05.737-.083 5.21-.986 5.854-1.267 9.43.09.72 1.77-.446 2.898.044.7.297 1.2 1.2 1.054 3.498.331.734.188-2.406.787-3.208 1.689-2.236 4.283 3.972 5.642-3.813-1.588-4.334-2.058.255-3.276.436-.555.086-3.16.486-4.193-1.344-.396-.715-.552-1.77-.251-3.317l-.526 2.098-.51-4.921c.439-.207.874-.414 1.308-.622l.175-.082.342 4.909.175-3.503.627-.694-.186 4.21.958.723-.244-5.628c1.508-.468 1.001.706 1.832 4.215.622.36-.421-3.247.893-4.16 1.551-1.062.531 4.668 2.524 3.444l.088-2.807c.441.936.88 1.872 1.316 2.807l-.174-3.49c.892.45 2.156-1.772 2.451 2.793-.913-2.197-.903 5.774-.662 7.24.494 3.009 7.788.194 9.2-.013 1.813-.262 3.183 2.284 4.817-1.651-1.15-3.209-5.055-.552-5.806-2.775-.075-.218-.083-7.526-.525.698-1.533-1.389-3.35.946-5.262.71l.163-6.31c1.178 4.47 2.242-5.359 2.108 2.814l.699-.002-.012-4.223 1.055-.004.014 4.224.871-.003.075-4.212c.888 2.913 3.813-4.898 2.553 3.492l1.225-.006-.022-3.089c.177-.139.353-.278.528-.418l-.158 2.797c.795-1.674 1.588 3.226 2.099-.001-.353-.702-.713-1.403-1.065-2.105.686 1.333 1.888-1.446 2-1.454.339-.017.533 2.063.897 2.166.329.088.271-1.511.332-1.455 1.785 1.613 1.19 10.276 1.921.02.099 1.4.199 2.798.301 4.197l.324-3.506c.53.105 1.035.21 1.572.314-.193-1.748-.39-3.495-.578-5.243.779-.789 1.178 2.715 1.254 2.795.216.202.289-2.001.354-2.006 3.184.155 1.282 2.115 2.972 10.367.523-3.253-.086-6.5-.207-9.8.767 1.54 1.008.622 1.794.795.211.047.46 1.825.592 1.847.114.02.441-1.878.708-1.89.46-.02 1.072 1.1 1.696 1.062.523-.036 2.062-1.398 3.171-1.432.461-.008.388 1.577.509 1.578.051 0 .386-1.904.683-1.917 2.351-.083 4.764.964 7.123.97.106 0 .212-.002.318-.007 1.717-.064 3.386-1.638 5.077-1.544.361.023.221 1.42.379 1.465.057.01.019-2.42.616-1.465.213.344.05 2.051.249 2.128.1.037.045-2.093.588-2.601.962-.928 1.622 1.883 1.711 1.794.16-.17.029-1.93.243-2.003 1.06-.361 1.933-.709 2.852-.914.452-.09 3.307-.662 3.479-.367.414.67.408 4.367.86 4.2.046-.94.083-1.88.123-2.82-.267-.685-.533-1.371-.792-2.059.654 1.13 1.111-.597 1.519-.576.071.007.947 1.593 1.3 1.37l-.241 2.114.359 1.741c.439-.657.951-.902 1.507-.984a8.405 8.405 0 0 1 1.295-.069c.431.006.402 1.447.807 1.464 2.168.147 1.332-5.764 3.778 5.306-.649-.987-2.877.573-3.287.239-.216-.248-2.217-9.557-.902.064a1.096 1.096 0 0 1-.912-.345c-.784-1.179-.436-4.733-1.578-3.629l.49 3.52c-.449.802-.782 1.44-1.318-.605.494 5.726-1.659 2.565-2.601 3.028-1.376.666-2.941 2.173-4.393 2.5-.502.111-.904-2.123-.968-2.112-.091.02-.246 2.002-.434 2.026-.693.092-2.941-3.148-3.253 2.34 4.173-.16 8.314-.38 12.379-.814-.485-1.624.873-2.506 2.064-2.936.972-.288 1.684-.34 1.782-.298.232.104.184 2.001.258 2.11.526.774.744-1.983.896-1.993.113-.007.423 1.262.815 1.21.073-.007.018-1.365.095-1.374.521-.029 1.024-.035 1.538-.068.031.012.256 1.989.385 1.986.13-.006.16-1.993.193-2.001.412-.006 1.159 1.252 1.544 1.249.132-.006-.024-1.455.125-1.447.462.014.432 2.864.966 2.108.177-.255.07-2.429.444-2.158.264.193.405 4.069.452 4.208.064.168.811-2.93 1.208-.407-.335 6.723.705.319.514-2.503l1.138 2.087.255-2.163c1.548 3.157 2.306 1.18 3.724 2.093.023.015.17.187.359.447.015-.017.095.01.111-.005.379.552.911 1.485.889 2.165-.269.718-.55 1.157-.824 1.202h.024c-.382.08-.779-.647-1.144-2.516-.401 6.139-.681 1.28-1.824 2.148-.385.294-.334 1.95-.379 1.974-1.518.899-3.971 1.717-5.224-3.078-.236 1.322.839 1.795.472 2.777-.211.532-5.452 2.338-4.044-3.318l-.513.492c.111 5.271-.812 4.119-1.046-1.124-.016 1.077-.036 2.155-.05 3.232-.103.917-.267 1.416-.507 1.723-.246.307-.855.436-1.548.501-2.234.238-5.847-.295-6.049.271.092 1.241.182 2.483.273 3.725 2.148.845 4.079-.669 6.195-.42.606.126 1.411.543 2.261 1.499l-.474-3.48c1.252 1.557 2.496 3.133 3.752 4.712-1.158 2.169-2.981 4.039-4.145 2.39-.211-.294-.21-1.928-.269-2.121-.151-.501-.064 2.326-.329 2.629-.04.045-.089.041-.137.002-.636-.186-1.796-1.512-1.898-1.453-.219.142-.538 3.427-.966 3.43-.562 0-.389-2.029-.504-2.06-.477-.15-.79.876-1.164.762-.565-.168-1.933-3.584-1.899 1.595.401.205.804.409 1.211.611-1.976 2.027-3.996-4.46-5.679.735-.126 6.273 1.533 5.334.238 8.08.254-.104.519-.208.771-.312l-.044-3.935c.504.909 1.012 1.815 1.524 2.72-.203-1.157-.405-2.314-.606-3.472 1.532-.977 3.037-2.297 4.148 3.908l-.28-4.545c1.707 1.712 3.301-4.928 3.767 3.514l.072-1.358c1.098 1.617.328-1.812.617-2.241.092-.121 1.968 1.476 1.518 4.052.146.134.27.21.376.236.213.429-.33-6.279-.152-6.614.945 3.842 2.205-2.1 1.895 4.106l.424.673c.169-4.878.906.592 1.474 2.406.173.101.342.203.515.305l.113-4.918c1.967 7.704.52-13.542 2.056 4.295a1742.43 1742.43 0 0 0-.211 3.223c-.255.52-.506 1.04-.756 1.561 1.117.422 2.273.845 3.461 1.265 1.715 4.943 2.323-.529 4.274 3.343l.422-1.453c.047 4.054-.645 3.495.674 5.245.262 2.854-.557 3.27-1.039 1.094-.116-.531.529-2.761-.326-2.795-.575-.027.63 3.361-1.141 2.171l.289 2.088-.555-.035c-.239-1.61-.476-3.22-.711-4.83-.302 2.355-.392 5.64-1.347 4.985.206-1.025-.28-4.258-.726-4.184l.154 3.512c-1.051.801-.828-2.65-1.592.07l-.384-2.782c-.323 3.857-1.854 6.541-1.814.778-.211 5.609-1.216 3.131-1.77-1.319.036 1.164.074 2.327.112 3.49-.155.245-.3.489-.441.734-.127-.698-.251-1.396-.374-2.094a80.367 80.367 0 0 0-.167 2.126l-.394-3.485a92.605 92.605 0 0 0-.067 4.214 260.01 260.01 0 0 1-.36-2.776c.137 1.507-.018 2.312.413 2.256-.337.034-.71-.224-.953-.805-.056.719-.113 1.439-.175 2.158-.199-1.144-.399-2.289-.597-3.434 0 .934-.003 1.868-.009 2.802l-1.051-2.685c-.44 5.763-1.01.805-1.238.864-.432.111-1.65 3.798-1.935 3.637-.273-.161-.57-2.184-.793-2.358-3.587-2.932-1.795 2.414-2.412 3.33-.337.496-.702-1.387-1.006-1.156-.516.391-3.004 3.055-3.162 2.813-.234-.344-.201-9.334-.763-6.989.218 4.816-1.487.027-.482 6.709a209.148 209.148 0 0 1-1.89-1.687c.316 5.705-.598 2.066-1.364 2.413-1.111.489-3.479 4.324-3.571-1.538-.228 1.354-.436 2.708-.662 4.062-1.058-1.017-2.032-.82-3.029-.439-.715.288-1.454.684-2.183.731-5.064.333-10.517-.852-15.485-1.949-.24-.054-.228-1.969-.402-2.009-.891-.201-3.242 1.179-4.491.767-.406-.13-.626-1.996-.75-2.081-.432-.299-.31 2.161-.509 2.092-.319-.11-1.998-2.38-2.58-2.616-.291-.116-.604 1.841-.941 1.24-.028-.049.01-2.065-.014-2.1-.606-.242-.231 1.497-.437 1.407-1.471-.645-3.018-.677-4.614-1.085-.389-.104-.995-1.522-1.335-1.655-.13-.046.109 1.482-.34 1.357-.154-.043-.213-2.031-.384-2.16-.734-.539-.963 5.851-1.62.714-1.219.342-3.351 1.986-4.48 2.023-.262.006-.391-1.168-.642-1.147-.178.014-.492 1.834-.773 1.856-.281.021-.727-1.711-1.257-1.648-.562.064-1.27 1.093-1.399 1.086-.156 0-.227-2.188-.379-2.16-.456.07-1.712 2.219-2.312 2.451-.638.245-1.024-.817-1.245-.796-.204.029-.447 1.875-.541 1.891-.146.028-.177-2.13-.36-2.113-.298.035-.609 1.391-1.059 1.426-.42.034-.842.062-1.265.086-7.665.432-15.162-.763-22.573-2.315-.879-.184-1.372 1.325-2.657.624-.52-.287-.28-2.512-.691-2.094-.182.188-.152 1.94-.38 2.023-1.01.357-2.18-1.281-2.615-1.257-.173.006-.39 1.993-.745 2.019-2.662.2-5.786-.39-8.643-.075-1.514.167-3.81 1.156-5.543 1.27-4.788.321-9.934-.201-14.293-.057-6.583.209-13.156 1.965-19.685-.296 3.006 4.851 7.19 4.503 10.604 5.067 9.86 1.618 20.423-1.051 30.573-.84 3.531.073 7.992.006 11.858 1.153.175.051.553-1.476.93-1.311.08.039 1.056 2.838 1.396 2.869-.279-4.962 1.008-.531 1.416-.647.509-.152 1.618-2.622 2.807-1.211 1.081 1.277.77 3.182.829 3.302.383.776.542-2.297.841-2.606 1.213-1.23 7.461.598 9.202.718.455.031.457 1.985.56 1.993.27.014.665-1.914 1.095-1.899.77.032 1.671 1.881 2.099 1.89.846.021 2.36-1.475 3.595-2.002.256-.107.5-.174.726-.18.378-.012.349 2.022.52 2.015.741-.033 2.712-2.426 3.633-2.446 1.52-.033 3.074 1.283 4.607.613l.296 2.722c.155-.952.309-1.905.462-2.857 2.603.724 5.249-1.325 7.84-1.202.305.013 1.776 1.743 2.032 1.749.207-.001.398-2.249.703-1.92.426.457.049 4.74.735 3.512.188-.332-.005-2.163.371-2.737.127-.19 2.532-.947 2.663-.822.216.212.435 4.136.491 4.22.29.441.261-2.571.454-2.847.575-.827 1.334 1.194 1.425 1.148 1.144-.565 3.206-2.989 4.425-1.578.165.196.169 2.44.198 2.512.191.463.277-2.092.452-2.153.962-.299 2.468 1.403 3.435 1.828.113.046.332-1.185.531-1.069 1.115.676.79 2.652.852 2.736.155.207.394-1.971.791-2.111 1.032-.374 3.005-.091 4.131.059.825.12.869 2.61.921 2.658.122.088.404-1.906.953-2.141 1.055-.463.958 1.495 1.4 1.403.036-.001-.061-1.914.416-2.12.925-.397 3.063 1.441 4.067 1.319.387-.044.424-1.891.827-1.936.37-.046 1.052.633 1.546 1.188.358.374.632.691.679.688.032-.001.05-2.126.239-2.131.205-.005.44 1.082.6 1.071.89-.053 2.329-3.805 2.128 3.786.232-1.88.473-3.76.7-5.64 1.899.313 3.766-.507 5.723-.978.444-.105.883 1.311 1.267 1.222.371-.087 1.964-2.552 2.252-2.615.493-.102 3.514-.556 3.933-.424.773.266 1.804 3.323 2.069 2.684.213-.513-.173-2.251.267-2.792.757-.935 2.4 1.18 2.656 1.117.104-.026-.228-1.373.751-1.577.521-.114.963 1.362 1.147 1.334.051-.014-.284-2.449.699-2.23.184.043.351.213.498.437-.224.667-.142 1.664-.17 1.673-.04.017-.307-1.992-.243-1.927.1.166 1.328 2.414 1.989 2.559.126.029-.049-2.411.487-2.212.392.143.416 2.089.565 2.16.239.109.478-2.287 1.027-2.234.581.073 6.351 2.294 6.793 2.907.233.419.482.434.642 1.484l-.121 3.049c-1.117-3.504-.535.535-.772.808-.346.391-1.685-.066-1.95.848-.096.331.254 2.48-.29 3.618-.581 1.216-1.019-2.618-1.036 2.648-1.124-5.797-1.647.431-.603 2.042.468.907 6.518 2.722 8.122 2.941.117.02.243.02.377.005l-2.633.104c1.09-.082 2.77-1.351 3.971-1.025.765.219 2.756.422 2.774 3.219.728.326-.133-2.429.004-2.822.278-.818 2.625 1.01 3.079.91 2.176-.467 4.832-3.759 7.426-.425-.052.755-.1 1.51-.151 2.265-.44 1.415-2.967-.38-3.012 3.22 3.421-.206 7.572-.585 10.274-.874-.206-1.733.779-2.577 1.325-2.685l-3.481.261c-.097-.036.154.3.183.892.031 1.481.066 2.962.103 4.443-.18-1.737-.187-2.225-.131-2.19l3.641-.273c-.401.126-.233 2.817-1.298.191-.493-.005-.099 2.415-.307 2.904-2.393 4.888-.462-4.997-2.59-2.586 1.09 3.46-.824 4.95-1.788 5.484-.213.122-3.23-.54-3.554-.466-1.916.46-5.003 2.579-6.817.71-1.367-.172-2.006 2.382-3.182 3.009-.885.474-.682-1.311-1.106-1.32-.869-.022-1.02 5.394-1.769-2.134-.551.955-1.106 1.909-1.656 2.862l-.08-3.515-1.062.023c-.08 1.17-.162 2.339-.244 3.509a3.162 3.162 0 0 1-.302-.503l3.162-.124c-.939-1.6-.679-4.208-1.06-7.181a54.918 54.918 0 0 1-.815-.639c-.058 2.554-.117 5.108-.18 7.663a123.756 123.756 0 0 1-3.271-.462l-.359-3.49.155 3.5c-1.709.318-3.287.625-4.671.927-.315 1.889 2.076 3.205 2.312 3.308 1.039.576 4.1-1.445 4.343 2.709.561-2.918 2.737-2.567 3.949.439l-3.435.136c.071.23.136.476.194.737l-.181-.032 3.464-.137a102.773 102.773 0 0 1-3.422-.45l.32 4.176c-1.679-5.552-1.837-5.235-2.921.139l-.257-5.609c-.633 6.544-2.597-4.422-2.28 3.607a68.175 68.175 0 0 1-1.346-1.896c-.727 1.014.475 7.14-2.294 4.848-.16-.161-.243-2.207-.44-2.055-.013.042-.393 3.047-.314 2.732.033-.052-.094-1.823-.04-2.053-.054-.527 1.791 2.826.579-2.807.315-.242.735-.396 1.181-.475-1.304-.032-.265 3.665-.725 5.36-.385 1.29-.653-2.087-1.041-1.272-.503 1.011.373 4.36-2.386 3.061.272-.26.537-.52.804-.78-.239-.908-.483-1.816-.718-2.725-1.254 2.362-1.427-.892-1.65 4.365-1.306-2.215-2.248-2.319-3.643-1.788-2.644 1.021-.961 6.538-4.366-.827-.397 1.087-.797 2.174-1.191 3.26-.874-2.189-.421-5.011-1.531-5.517 1.132 5.466-1.248 3.574-1.368 8.501l-.282-3.507-.694.032.124 2.817c-.335-.69-.681-1.379-1.008-2.07-.184.94-.371 1.881-.561 2.821-.462-1.948-.887-3.898-1.327-5.848a36.216 36.216 0 0 1-.689-.377l.365 4.188c-.303-.457-.607-.914-.914-1.371.424 2.283.286 4.983-.594 4.943-.731-.033-.09-4.849-1.562-2.807-.106.145-.187 3.569-1.628 4.139-1.691.681-.931-1.818-1.239-1.895-.064-.013-.524 1.721-1.007 1.979-.129.07-.265-.202-.377-.507-.113-.342-.199-.726-.217-.723-.156.067-.155 2.033-.376 2.109-.563.183-1.34-.763-1.879-.652-.248.047-.466 1.217-.571 1.233-.169.017-.425-1.756-.599-1.745-.644.051-1.502 5.97-1.955-2.218-.47 7.547-1.923-1.538-1.737 3.513-1.672-1.874-5.907 4.394-5.904-4.1-.803 7.273-.811 2.014-1.189 2.129-.422.126-.182 1.531-.522 1.472-.807-.137-1.556-.732-2.36-.75.112-1.165.222-2.331.332-3.496-.842-.363-.509 2.342-1.35 2.873-1.548.97-.91-1.199-1.175-4.246.097 2.944-1.738 2.506-1.924 2.12-.114-.235.337-4.035-.774-2.8l.22 3.501c-.525-1.592-1.883.448-2.123.057-.108-.182-.756-9.595-1.222-2.138l-.22-3.502c-.574 1.409-1.133 2.817-1.712 4.225l-.327-6.309-.548.004.403 5.6c-1.135-.837-2.516 2.117-2.784-4.181-.237 1.169-.475 2.339-.715 3.508-.174-2.095-.338-4.19-.507-6.284-1.112.534-1.138 1.935-1.891 4.172l.067-4.908c-.543 2.299-1.593 4.442-2.395 4.734-.386.134-1.063-2.118-1.155-1.913-.097.216-.975 9.074-1.095 1.407-1.336 3.399-1.929-.069-2.471.017-.353.057-.512 1.898-.915 2.088-.568.276-1.138-.613-1.469-.487-.188.078-.223 1.873-.354 1.929-.617.274-.261-1.56-.901-1.44-.06.021-.529 2.21-1.064 1.929-.299-.156-1.073-2.619-1.137-2.613-.299.042-.061 4.965-1.085-.721l.086 2.807c-1.288 2.373-1.471-1.8-1.729-2.089-.032-.024-.344 1.588-.53 1.366-.312-.381-.435-2.589-.504-2.687-.249-.338-1.068.631-1.597-1.505.063 4.091-.715 6.464-1.384 5.659-.351-.432-.669-1.777-.805-4.262a1981.92 1981.92 0 0 1-1.013 4.208l-.44-3.517c-.097 1.167-.194 2.335-.289 3.502-.47-2.573-.94-5.147-1.413-7.72l-.126 7.726-.404-.881-.29-6.141c-.174.39-.34.78-.51 1.169-.05 1.481-.098 2.962-.146 4.443-.914 1.703-.374-12.421-2.172-.011l-.782-3.508c-.334 5.682-.883 2.237-1.348 2.874-.327.448-.323 2.706-.76 2.754-.439.046-.41-2.113-.444-2.127-.357-.135-.64 1.767-.9 1.386-.04-.057-.123-2.621-.458-2.786-.337-.164-.554 2.561-1.047 2.044-.253-.263-.312-2.424-.537-2.616-1.074-.937-2.237 9.994-2.95-2.988-.193 1.643-1.562 7.388-2.12 7.052-.874-.535-.516-3.078-.862-3.547-.049-.071-.326.787-1.061.627-.13-.03-.112 1.408-.131 1.427-.85-.035-2.52-1.184-3.45-1.397-.085-.022-.56 3.98-1.26-1.415-1.14 3.971-3.145-4.6-4.65 1.385-.202.125-.434-1.31-.524-1.262-.774.436-.538 4.789-2.208-1.596.119 2.219-.307 4.218-.88 4.044-.863-.263-.209-4.393-.904-4.062l-.036 3.503c-1.555-3.157-1.935 1.832-3.529 1.843-.574.001-1.397-2.596-1.535-2.604-.053.007-.714 2.815-.773 2.836-.337.081-.514-1.219-.805-1.23-.962-.038-2.159 3.612-1.876-3.035l-.839 4.202c-.92-7.112-1.78 2.666-1.913-4.233-.197 1.422-.39 2.844-.584 4.266-4.282-.769-8.557-1.54-12.828-2.312-.195 2.217-2.056 1.406-2.145 1.06-.42-1.57.104-6.403-.805-5.308l-.376 6.355c-1.136.677-.568-1.426-.995-2.868-.189.259-.15 1.904-.403 2.021-1.369.638-4.165.681-5.657.796-.3.024-.236-1.513-.33-1.518-.257.011-.786 1.942-1.3 1.936-3.182-.054-7.673-1.205-10.848-2.874-.216-.115-.22-1.95-.364-2.043-.202-.122-.674 1.355-.886 1.197-.2-.144-.31-1.538-.523-1.704-.975-.773-2.33 1.563-3.329-2.558-.084-.348-1.091-7.746-1.11-8.23-.109-2.876.93-7.379-.625-11.606 1.487-3.651 1.122-10.145-.705-13.34l2.844-2.416.035-2.307c-.804-3.822-1.635-5.102-2.927-5.471l.149-2.134c1.192-3.543 2.584-4.182 3.52-9.025l-3.7-10.827.214-1.682c.633-1.45 1.984-2.289 2.511-3.642 2.014-5.159-1.652-3.902-1.011-7.057l6.16.422c.102-2.328-7.719-8.865-7.545-15.895l1.955-1.39-.793-5.37.26-1.694 3.322-4.119c-3.33 1.351-4.856.319-5.466-13.756l.284-1.07c.602 8.807 4.027 6.006 5.848 4.275-.332-2.582-1.943-.612-2.258-2.166-.089-.445.266-2.23.058-3.149-.544-2.388-2.952-5.483-2.559-8.395.254-1.871 4.228-4.39 4.993-4.183-1.757-3.391-3.6-4.39-5.354-8.506 1.215-5.69 2.316-12.66 4.402-12.944.673-2.985-3.679-7.19-3.76-8.826l2.357-5.23-1.954 1.378.018-1.758c1.706-2.697 3.3-7.669 5.206-7.306-.021-3.1-1.168-2.806-1.723-2.842Zm185.803 174.213c.173 2.565-.828 2.191-1.376 2.165.102.464.201.928.306 1.392-1.208-.431-3.31-1.343-3.227 3.644-.771.646-.563-3.701-.833-4.186-.107-.194-1.051 2.362-1.939-.687l-.562.051c.005 1.636.011 3.272.015 4.909-.32-1.979-.628-3.957-.931-5.936 2.698-.415 5.502-.855 8.543-1.351l.004-.001Zm-20.405 2.964c-.415-.895.3-2.411.563 2.06-.504-.193-.571-.429-.525-.668-.017-.463-.03-.927-.038-1.392Zm-84.328-1.425c-.66-4.413-1.3-.601-2.34-1.402l-.01 2.795c.44-2.235 1.557-.741 2.35-1.393Zm120.529-19.408c.13.345.262.691.394 1.036-.514 5.011-.618 1.481-1.19 1.97-.034.031-.016 1.177-.028 1.184-.139.079-.273-1.301-.396-1.279-.236.044-.418 1.444-.811 1.398-.3-.04-.325-2.238-.427-2.181-.102.056-.848 6.114-1.281 3.512-1.157-4.96 3.108-6.112 3.739-5.64Zm3.972 4.133-.415.061c.415-3.38-.427-2.866-1.025-2.795.013-3.241 1.298-1.855 1.896-2.82-.153 1.851-.305 3.703-.456 5.554Zm-12.319-6.459c.756-.397.974 3.644 1.049 4.847l-.762.065a2694.6 2694.6 0 0 0-.287-4.912Zm5.183-1.909c.141 2.748-1.107 4.086-1.866 4.386-.034.004.029-1.517-.493-1.325-.132.058-1.3 5.677-1.498-.558 1.452-.839 2.821-1.687 3.856-2.503h.001Zm1.258 1.502a79.823 79.823 0 0 1-.305 2.633 624.984 624.984 0 0 0-.733-3.814c.219-.35.42-.699.6-1.045.149.742.295 1.484.438 2.226Zm-176.427-.095.106 4.139c.192.848 1.256-5.145.957-6.311-.356.724-.709 1.448-1.063 2.172Zm-4.138-2.945-.59-2.095-.798 7.009c1.008 1.591 2.078 3.422 1.988-3.478l.704.009c-.233 2.849-.218 3.79.374 5.608.183-3.968.796-1.938 1.535-2.801l-1.582-.716.027-2.099c1.177.267-.235-4.19-1.037-1.417-.05-.932-.098-1.865-.147-2.797l-.474 2.777Zm86.099 2.014-.463-2.11c-.543 9.171.613.469 1.486 7.72-.308-5.51.978-5.287 1.051-5.658l-.477-5.564c-.536 1.871-1.057 3.741-1.597 5.612Zm-4.266-6.307c.53 4.571-2.013 4.858-2.868 3.852-.206-.247-.579-2.757-.729-2.44l-.269 2.783c-.119-3.206-1.766.401-2.43 2.127l-.188-3.504c-.245.464-.476.928-.715 1.392l.089-3.491c-.179 1.4-.359 2.799-.54 4.199-.711 1.557-.27-4.787-.807-2.808-.598 2.198.379 5.976.36 8.435.487-.634 1.569-2.053 2.068-2.124.28-.038-.03 4.367 1.171-.697.263 1.18.532 2.36.802 3.539.489-1.876.974-3.753 1.453-5.629.093 1.631.185 3.263.28 4.894.056.255 1.181-3.452 1.116-4.678.46 3.118 1.408 3.672 2.396 3.826l.274-2.662c-.944 1.919-.306-.937-.595-2.634-.167-.979-.677-2.901-.868-4.38Zm-71.136 3.741c-1.616 3.961-.604.689-2.304.668l.28 6.327c.883-3.841 2.223-1.264 2.026-6.995h-.002Zm-16.69 6.8c.913-1.264.505-4.547 1.654-5.582h.002l-1.754-.731.098 6.313Zm52.68-1.975c.86.923.7-.719 1.462 2.563 1.21-3.965.207-3.41.235-7.018-.28 1.056-.553 2.112-.828 3.168-.622-3.378.006-5.071.008-5.395h-.002c.009-1.083.032-1.311-.212-1.967l-.663 8.649Zm3.747-4.427c-.313 2.393-.47 5.467.3 7.009h.002c.102-5.353.826-1.027 1.172-1.384l.282-1.743c-.583-1.294-1.176-2.588-1.756-3.882Zm13.154-4.845c-.02 5.914-.686 6.474.23 11.927l.547-.316.37-3.892c.454 2.153.846 3.136 1.15 3.389.857.698 1.04-4.183.017-5.396-.44-.532-1.11-.36-2.066 1.295a49100.58 49100.58 0 0 1-.248-7.007Zm-4.024.482-.134 9.313c-.47-7.491-1.16-.349-2.118-5.638l-.284 2.83c-.366-2.079-3.981-2.7-3.229 2.08.332 2.088 1.098-.74 1.161-.676.217.235.484 2.904.851 2.751.213-.092.685-3.224 1.12-3.216.966.02 2.713 8.446 4.021.485l.266 2.809c.959-.567.653-3.534 1.522.006.674-14.743-3.56.712-2.635-11.242h-.002l-.539.498Zm-26.02 4.217c-.03-2.649-1.16 1.426-.841-4.916l-1.138 6.617-.01 1.77 1.08-1.38-.025 2.807c.562-3.38 2.748-1.884 2.65 1.43l.394-4.196c1.016 3.822 1.963-.222 3.078 3.508l.298-3.476.148 2.809c.416.122.832.244 1.253.365 1.4-3.756-1.212-8.657-1.533-8.107-.044.077-.06 2.5-.33 2.878-.482.664-3.103-1.774-3.942-.184l.025-4.822c-.372 1.633-.737 3.265-1.107 4.897Zm35.148 1.639.173 4.908c1.056-1.632 1.703-.203 1.446-5.613h-.002c-.534.235-1.074.47-1.617.705Zm78.855-.829c-.168-3.247-.678-4.441-1.102-2.087l.211 2.825c.152-2.779.712 2.026 1.631 1.343l-.217-4.902c-.178.941-.354 1.881-.523 2.821Zm-79.755.119c-.31-1.929-1.222 3.919-.634 4.21.45.219.801-3.174.634-4.21Zm-77.274 2.412.683 1.035.415-4.17h-.001l-1.097 3.135Zm53.2 1.476c.796-.196 1.581-.393 2.384-.59l.045-2.722c-.825 3.305-1.113-.267-1.296-.487h.002c-.586-.723-1.148-1.256-1.703-2.345l.567 6.144Zm-2.668-5.748c.076 6.412.248 7.161 1.498 2.662l-.123-2.369c-.632.466-1.013 1.943-.873-1.399l-.502 1.106Zm12.405 2.147c-.135-2.042-1.305 0-1.25 1.03.023.408 1.506 2.974 1.25-1.03Zm103.378-2.259a83.876 83.876 0 0 1-1.038-1.35c.382-.717.771-1.435 1.162-2.154-.04 1.168-.082 2.336-.124 3.504Zm.858-9.135c.242.811-.335 6.592 1.029 8.044-.967.148-1.919.292-2.856.433.428-.94.841-1.881 1.272-2.823-.116-1.654-.232-3.308-.346-4.962.304-.23.603-.461.901-.692Zm1.131 4.195c-.637-4.364 2.065-4.773 2.345-4.25.062.126.454 3.435.582 4.145-.423.019-.847.038-1.261.055l.523 3.122c-.476.374-.97.748-1.442 1.12.18-1.056.351-2.111.529-3.167l-1.276-1.025Zm-8.415 1.414c.308.097.622.193.938.289l-.404-4.894-.551.024.017 4.581Zm6.634-2.44c-.094 7.894-2.427-9.221-.452-2.946.202.638.457 2.183.452 2.946Zm5.201-2.322c.867-5.781 1.139 6.897-.068 3.227-.061-.195.001-2.8.068-3.227Zm8.664-.662c.102.035.587 4.117 1.232.149.189.455.389.908.584 1.361-.205 1.937-3.296 3.3-3.127-.792.463-.095.815-.808 1.311-.718Zm-3.879-14.957c-.422.14-.823.277-1.24.414.205 1.276.421 2.552.634 3.828-.192.361-.383.722-.57 1.083a584.946 584.946 0 0 1-1.392-6.59c.868-.397 1.744-.8 2.631-1.209l-.063 2.474Zm-10.726-2.754c.78 1.596 1.627-.141 2.856.096a.05.05 0 0 0 .002.013c.06.017.218 1.779.422 1.843.165.056 3.429-2.008 3.307.99-1.215 2.737-1.846-1.326-1.925 5.339l-.34-4.202c-1.32-2.387-1.511 2.479-2.17 4.281l-.08-3.173c-.452-.093-.935-.187-1.381-.282l.242 2.082-.485.011c-.472-3.124-.976-3.844-.448-6.998Zm12.772 4.369c-.188-8.021 4.116-2.855 5.594-4.708-.368 4.894-2.131 1.717-3.138 1.751-1.957.07-.374 2.907-.602 4.226-.133.655-1.624-4.391-1.854-1.269Zm-14.148-2.909c.599.386.985-.258 1.441.013l-1.343.053c.235.159.478.596.765 1.635l-.152 1.762c-.075-.147-.292-.378-.561-.663l1.453-.057c-.777-.718-1.88-1.803-1.603-2.743Zm22.158.062c-1.8-2.71-.313 4.44-1.718-.889.54-.404 1.043-.804 1.501-1.199l.217 2.088Zm-111-3.081a.779.779 0 0 1-.087-.031c-.625-.274-1.304-1.489-1.691 1.405.445.469.888.939 1.328 1.408a3473.099 3473.099 0 0 0 .45-2.782Zm18.578-29.585c-.15-.725-.727 1.419-.79 1.419-.115.001-.088-1.054-.091-1.33-.755.194-.049 3.464-.6 4.177-.09.118-1.402-1.495-1.936-1.361-.806.207-1.63-.003-1.938.054-.506.093-1.465 2.549-2.312 2.676-.347.049-.47-1.916-.821-1.867-2.251.334-6.693 3.027-8.691 1.774-.493-.311-.96-2.886-1.223-2.677-.06.271-.122.541-.183.812-.147.668-.294 1.337-.443 2.006-.602-8.463-.838-.938-1.528-.152-.44.497-.63-2.01-.688-2.004-.384.047-.579 1.24-.883 1.436-.341.217-.828-.916-.951-.712-.074.137.142 3.47-1.172 3.4-1.35-.072-2.67-.431-4.048-.595.4 10.062.838 3.179 1.398 2.815.15-.097.047 1.499.177 1.43.37-.189 1.082-1.754 1.39-1.372.328.412.197 4.113.623 2.749.021-.07-.038-1.599.062-1.855.999-2.524 1.31.137 2.564.219.43.032 2.047-.367 3.478-.609 1.32-.218 2.47-.308 2.56.165.512 3.097-1.03 4.412-2.575 4.887-1.103.346-2.211.245-2.473.066-.215-.15.018-1.837-.177-2.161-.083-.13-.846 3.085-1.598 3.35-.91.32-2.71-1.885-3.569-1.812-7.393.628-14.66-1.377-22.028-1.49-.158-.001-.383 1.925-.896 1.92-9.558-.128-19.44-1.762-29.12-.972-2.111.172-4.224 1.959-6.334.495l-.845 4.213c.689-1.11 1.888 2.089 2 2.137.04.015.316-1.569.727-1.48.578.12.816 1.5.864 1.5.148.007.069-1.459.21-1.45 1.053.077 1.87-.329 2.835-.331 1.092 0 1.611 2.733 2.44-.251l.227 3.506c.658-5.042 4.183-4.441 5.61-4.156.45.09.346 2.14.498 2.142.097-.001.091-2.687 1.268-2.146.592.275.725 2.233 1.023 2.173.163-.036.159-1.976.391-1.973 1.35.015 2.439.657 3.755 1.031.37.103.357 1.722.44 1.702.307-.069.87-2.805 1.643-2.789 1.282.028 3.826.065 4.86 1.407.152.199.258 2.143.371 2.116.172-.048.26-2.074.29-2.084.571-.03.207 1.851.595 1.398.21-.245.451-2.554.935-2.811.638-.338.485 2.404.752 2.132.029-.042.057-1.95.317-2.011.982-.215 2.432-.641 3.36-.625.266.002.455 1.289.83 1.314.758.05 5.051-.729 5.397.014.036.078-.372 2.889.24 2.81l.561-3.511c.28 1.878.558 3.757.837 5.635.043-6.481 1.792-7.467 1.719-.84l.564.81c.435-4.575.68-2.883 1.47-5.566l.325 4.214.113-2.807c.37 5.075 1.08-.012 1.16-.04.314-.11.538 1.181.684 1.141.553-.13 1.756-1.897 2.386-1.069.03.043-.015 2.21.164 2.479.324.486.382-2.687.795 1.044l.286-2.806.273 1.455c.558-.245 1.106-.489 1.667-.734-.533 3.667.04 5.721.61 2.836.192-.978.04-3.214.105-3.552.089-.457 2.569.696 2.729 2.141l.365-2.11.155 4.224.203-1.475c.625 2.483 2.357-3.196 2.652-2.746.162.241-.019 6.241.772 5.631l.104-4.943.542-.706c.337.149.812 3.007.82 4.96l.328-3.514c.258 3.819 1.788 2.471 2.392.057l.352 2.35.168 1.106c.245-1.399.489-2.798.731-4.197.553-.42-.036 1.906.08 2.1.252.402 1.518-3.525 1.425 1.371l.523.038.277-4.199c.29 4.826.798 3.124 1.853 4.886l.271-3.332c.326 1.579.65 3.158.973 4.737l.204-5.517.422-.794c.289 4.12.81-.331 1.073 1.368.382 2.48.088 5.435-.631 6.005.059 3.001 2.176 1.623 2.675 1.404l-.098-1.758c-.504.464-1.009.928-1.506 1.392-.417-7.545.934-5.522 1.565-6.494.057-.093.38-2.952 1.003-2.687.235.106 1.206 4.283 1.384 4.515 1.465 1.906.371-4.063 1.825 1.168-.308-4.008.524-.678 1.376-1.456.15-.133 1.378-3.386 1.458-3.471.517-.523-.043 3.022.715 2.097l.263-2.797.527-.002c1.09 8.299 1.326 2.183 1.698 1.396.151-.318-.035 1.85.359 1.39.148-.171.303-1.974.701-2.103 1.268-.401 1.728 7.312 2.841-.726l.554 3.488c.109-1.397.216-2.793.329-4.19.954 4.043.588-.102.92-.055.865.12 2.659.898 2.855 4.236.688-7.677 1.665.967 1.967.664.168-.933.335-1.867.501-2.8.216.933.43 1.867.653 2.8-.182-7.531.98-.136 1.082-.024.12.112 1.745-2.137 2.375-2.104.612.035 1.724 2.061 1.816 2.063.102-.001 1.137-2.063 1.95-2.055.713.013 5.046 2.847 4.709-.506-.292-.925-.705-1.723-1.062-2.154-1.081-1.316-7.346-2.937-8.934-3.457-3.205-1.026-6.526-.798-9.717-1.509-.188-.041-.23-1.993-.391-2.036-.246-.054-.861 1.904-1.097 1.863-.898-.164-2-.477-2.48-.524-1.093-.093-1.814-1.266-2.642-1.453-.255-.055-1.532 2.37-2.423 1.351l-.482-1.647c.446-.642 1.646-2.304 2.194-2.497.809-.277 1.265 1.305 1.565 1.276.252-.022 1.549-1.831 2.14-1.878.183-.015.232 2.033.388 2.025.86-.054 1.971-.115 2.712-2.128-.295.657 1.59 1.9 1.699 1.892.171-.002.342-1.919.687-1.921.659-.005.614 4.003 1.416-.012l.647 3.498c-.04-5.338 2.654 1.898 3.318-4.598.022-.732-3.398-2.778-3.668-2.882-1.684-.626-4.15.701-5.776-.227-.5-.279-2.039-3.516-2.159-3.455-.188.092-.009 1.948-.09 2.014-1.647 1.388-.837-2.347-1.061-3.425Zm73.464 27.582c-.543-.205-1.103-.41-1.643-.618l.036-3.517c.258.45.503.9.77 1.349.175-.705.346-1.409.515-2.114l.322 4.9Zm1.199-4.944c.453-.605.555 1.864.668 1.981.338.355.595-.654.908-.631-.147 5.88-1.048 3.219-1.576-1.35Zm-8.756-1.772c.111.276 1.086 6.558 1.591.647a367.725 367.725 0 0 0 2.071 5.505c-1.183-2.794-2.414.233-2.907.143-.186-.034-.31-1.97-.457-1.995-.848-.117-1.459 4.309-1.823-2.106.86 1.831 1.381-2.533 1.525-2.194Zm4.381 2.053.499 4.019-.535.01 1.112-.043c-.341.02-.682.04-1.018.058.065-1.364.127-2.729.189-4.094l.589.007-.949.037.113.006Zm-35.917-2.314.899.023c-.045-.978-.391-.964-.537-1.621h.002c-.159-.743-.135-2.004-.402-2.553l.038 4.151Zm-120.33-5.714c-.483-.076-4.96-.14-4.625 3.433.17 1.785 1.72.25 2.171.284.61.044 2.205 3.924 2.454-3.717Zm-7.92-.796c-.123 3.555 2.666 4.156 2.949 3.541-.052-.508-.127-1.638-.201-1.895-.363-1.23-2.157-.667-2.749-1.646Zm111.651-3.434c.253 1.795.505 3.591.756 5.386l-.276-7.016c-.159.543-.319 1.087-.48 1.63Zm-21.963 2.744a2486.22 2486.22 0 0 1-11.32-.34c.335-.972.668-1.944.999-2.916 3.243.351 6.709 1.335 9.846-.173l.475 3.429Zm68.548-3.015c-.972.008-1.703 1.76-2.859-.925.874-2.69 1.548 1.383 2.351-2.559h.001l.507 3.484Zm-21.391.802c.224-1.65.437-3.299.645-4.948l-1.075.056c.142 1.631.286 3.261.43 4.892Zm-79.973-6.992c-1.037 3.563-3.555-2.92-4.417 1.368-.055.281.416 2.098-.4 5.599.599-.713 1.03-1.442 1.096-4.202l.507 2.812c.3-.705.597-1.411.895-2.116-.054 2.747-.03 2.601.433.723l.602 2.093.29-3.489.495 4.887c.706-1.761.309-4.917.5-7.675Zm3.518.698c-.153-.606-4.842 1.332-2.764 6.828l1.665-.513c-.389-9.077 1.048-.952 1.173-.76.59.89 1.359-1.263 1.785-1.148.368.101.571 1.73.835 1.69.893-.135 2.282-.186 2.497-3.939-.685-.082-1.378-.127-2.097-.038-.767.094-1.387-3.454-2.85 1.397-.349-.525-.203-3.362-.244-3.517Zm78.025 1.672c.177 3.77 1.995 2.751 1.896 1.262-.057-.872-.649-.812-.76-1.136h-.002c-.043-.143.039-1.594-.26-1.977-.286.617-.582 1.235-.874 1.851Zm-123.426-.026c-.214-2.119-5.724-1.427-5.9-.415-.048.28.002 1.21-.022 1.745 1.323-2.97 3.1.587 4.318.835.339.067.256-1.433.275-1.461h.003c.193-.002 1.015 3.672 1.326-.704Zm35.691.73.687 1.776.208-3.502h-.001l-.894 1.726Zm-8.07-3.922.146 2.468c.59.119 1.17.239 1.763.359l-.192 1.389c.882 1.249 1.278-1.636 1.747-1.216h-.001c.05.049.096 1.762.284 1.822.428.138 1.682.787 1.846-.935.354-3.673-2.178-1.952-2.642-2.124-.21-.08-.45-1.581-.58-1.617-.14-.035-.353 1.987-.697 1.922-.104-.023-1.188-2.414-1.674-2.068Zm-10.424 2.344c.16 1.855.559.069.696.374.033.072-.244 1.62.066 2.088l.301-3.171-1.063.709Zm109.17-1.109c-.082-.392-1.043-.177-1.073.078-.359 3.416 1.668 2.902 1.073-.078Zm23.801-5.4c-.56-4.895 4.743-.216 5.263-.51.099 3.088-1.268.034-.448 4.245-.721-2.304-2.407-1.009-2.826-1.674-.26-.402-.398-3.067-.438-3.15-.147-.297-1.357 2.818-1.551 1.09Zm9.692 1.36c-.541-.552-1.068-1.108-1.597-1.665.564-.382 1.124-.766 1.681-1.154-.026.94-.054 1.88-.084 2.82Zm.533-1.442c-.223-2.984 1.603-.83 1.99-1.557-.086 5.118-1.302.396-1.99 1.557Zm-28.463-2.827c-.984-1.879-.279 7.227.204 3.171.014-.134-.159-3.07-.204-3.171Zm-90.185-4.92c-.129-.058-1.758-3.03-1.859-1.566-.339 4.672.754 2.806 1.103 4.575.56 2.864-.314 5.214 1.121 3.5l-.196 2.806c.828.316.606-6.169.761-7.001.045-.253.566.296.663-.117 1.215-5.214-1.474-2.153-1.593-2.198Zm71.366 5.426c-1.567-2.648-.859 1.146-2.326 1.11a.873.873 0 0 1-.093-.008c0 .275.04.49.109.65.47 1.04 2.187-.184 2.31-1.752Zm-56.38-1.635c-1.61.803-2.897-1.894-4.403 1.712.057 5.567 4.814-.272 4.403-1.712Zm-74.917-6.402c6.087 9.992 13.293 6.82 19.911 6.746.72-.006.763 2.202 1.026 1.965.172-.153.164-1.93.392-1.936 8.212-.19 16.094-2.425 23.94-1.282.497.076 2.864 3.916 3.437-1.834.432-4.362-1.336-.974-1.621-1.016-.216-.03-.205-2.083-.349-2.091-.152-.009-.04 1.394-.217 1.414-.752.09-1.575-.465-2.256-.353-6.693 1.08-13.192.678-19.842.402-.806-.031-.619-1.673-.66-1.68a.448.448 0 0 0-.002.012c-4.312-.207-9.288 3.42-13.845 1.953l-9.618-3.517-.296 1.217Zm63.29 8.434c-.355-6.203-.486.048-1.912-2.492l-.378 3.17c.769-.225 1.533-.452 2.293-.678h-.002Zm-9.495-2.335c-.172-8.375-3.447-2.487-4.876-4.098-.306 4.203 1.816 2.334 2.313 2.78.25.222 1.53 4.558 2.57 2.173l-.007-.855Zm108.516-7.712-.654.764c.618.9 1.235 1.8 1.854 2.698-.944-.552-1.89-1.108-2.842-1.664.095-1.744.19-3.487.282-5.23l1.36 3.432Zm-2.955 1.025c1.6-.725.105 3.996-.397 1.947-.298-1.228.232-1.87.397-1.947Zm-4.475-2.792c.659-3.087 2.239-3.368 1.948 2.744-.975-2.812-1.4-.42-2.756-1.995l.381-3.527h.002c.142.926.287 1.852.425 2.778Zm5.057-.924c1.22 3.45-1.923 2.39-1.051.046.043-.108 1.006-.178 1.051-.046Zm-152.99-1.906c-.154 1.989.673 1.962.945 2.1 1.182.606 2.724-.24 3.957.05l-.255-1.969-4.646-.181Zm8.776 2.21 2.551.032c.08 0 .473-1.703.202-2.122-.918.697-1.834 1.394-2.753 2.09Zm53.006.531c-.643-1.118 1.266-6.821 1.147-.7l-1.147.7Zm6.064-2.41c-.41.58-.827 1.16-1.234 1.74l.008-2.111c.404.124.819.248 1.225.371Zm-71.173-1.778c.403 2.415 1.442 2.057 2.085 2.115-.417-2.075-1.488-1.072-2.085-2.115Zm55.383 1.654c.035 1.642-2.542 1.208-1.624-1.673.541.558 1.078 1.115 1.624 1.673Zm-5.236-2.474c.56-.354.984.214.847 2.791a754.68 754.68 0 0 0-.88-.337l.033-2.454Zm97.575.385c-.811.22-1.632.44-2.822.74-.262.1-.519.2-.771.3l-.145-2.109.673-.267c1.253-.31 2.094-.534 2.924-.76l.141 2.096ZM19.857 73.701l-1.95 1.354c.64.48 1.277.961 1.916 1.441l.036-2.807-.002.012Zm160.811-3.856c-2.506-2.852-.151-6.106.934-3.123.176-.187 1.098.129 1.282-.05.111.309.207.684.282 1.13l.002-.012c.07.425-.02 2.49.1 3.32l-.319-1.008c-.163.16-.986-.122-1.142.045l-.589-1.75c-.165 1.17-.34 2.341-.517 3.512l-.311-1.352.278-.712Zm11.317-2.267c2.161.245.293 5.536-1.047 1.525-.035-.941.852-1.548 1.047-1.525Zm-5.861 1.361c-.361.48-.713.957-1.081 1.434l-.19-1.766a86.42 86.42 0 0 0 .808-1.78l.463 2.112Zm-14.372-8.52c-.753-.613-1.328 5.98.844 4.153l-.098-2.11c-.084.117-.315.788-.332.737-.049-.174-.106-2.525-.414-2.78Zm22.433-11.595c.035-.273-.644-7.665.618-.07.123-.482.25-.964.38-1.447.206 1.623.417 3.246.627 4.868-.83-1.191-.561 2.106-.61 2.182-.191.329-.188-1.381-.33-1.391-.369-.022-1.061 1.184-1.117-3.688-.024-1.744.402-.183.432-.454Zm-1.517-4.11c.12.612.059 2.795.16 3.403.085.53 1 2.68 1.107 6.352-.14-.143-.277-.287-.415-.431l-.364-2.996c-.047.934-.092 1.868-.147 2.803-.397-2.457-1.031-5.633-.692-7.685-.159.224-.329.448-.494.672-.013 1.191-.034 2.384-.052 3.575-.069-1.81-.138-3.62-.21-5.43.376-.086.747-.174 1.107-.264Zm10.958-.154-.06 2.81c1.419-1.785 3.311-2.473 2.317 3.412a99.86 99.86 0 0 1-4.532 1.296c-.319.332-1.99-.176-2.292.172-.34.139-.661.277-.964.414-.169-.69-.337-1.38-.504-2.071 1.054 2.013.398-4.478.703-5.95.353-.407 2.308.188 2.681-.2.171-.418.433-.426.794.293.262.552-.234 4.607 1.128 1.972-.083-.938-.168-1.875-.254-2.813.343.22.668.442.983.665Zm10.042 1.295c-1.778-1.35.182-4.769.502-1.93h-.002c.887 7.77-1.015 4.017-1.141 4.067-.159.069-.505 5.63-1.4-2.476.693.112 1.373.225 2.041.339Zm-6.133-1.36c.169-.186.091 1.228.164 1.206h.002c1.1-.317 3.487-1.593 3.741 2.965-.691.38-4.087 1.391-4.399-1.7l.492-2.471Zm-10.851 3.959c-.833-2.88.31-3.395.853-2.077.1.287.01 5.06-.853 2.077Zm-41.303-5.075c-.749 1.826.501 3.523.282 6.318.151-.246.311-.493.458-.74a1736.01 1736.01 0 0 1-.74-5.578Zm-52.345-4.743c-.28-.328-.148 1.367-.172 1.392-.185-.048-.359-1.428-.43-1.282-1.306 2.786-.439 4.21-.428 4.54.027 1.677-.318 3.638.157 5.555l.873-1.782.429 2.795c.572-1.999-.176-2.547-.261-5.2-.032-1.043.505-2.29-.168-6.018Zm50.453-.77c.019 2.948-.175 6.678.355 9.613h.001c.099.537.389.82.52 1.573.383-3.95-.092-7.984-.876-11.186Zm-45.308-4.508c.464.687.935 1.374 1.396 2.06l-.01 5.298c-.248-.475-.498-.95-.748-1.426l-.258 2.417.943 6.04c.372-.705.729-1.41 1.107-2.114-.175-.932-.35-1.863-.521-2.794.904-1.032.725 3.263 1.481 4.902.252-1.636.498-3.273.75-4.91.383 1.643.763 3.285 1.142 4.927.62-.77.666-2.023.241-3.895.297-2.142.656 1.224 1.028.35.031-.07-.037-2.088-.01-2.112 1.915-1.37 1.856 3.927 2.164 4.15.221.154 1.058-3.425 1.069-4.644 0-1.643-1.838-8.107.983-8.295-1.491-4.47-3.109.1-2.001 6.665-.471-.658-2.495.992-2.634.795-.193-.296-.14-2.79-.375-2.854-.139-.035-.479 5.667-1.623.69-.141.936-.275 1.873-.414 2.809l-.406-2.306c.265-2.743.525-5.486.788-8.23-1.06 2.984-1.998-2.611-2.633 2.108-.571-.548-.852-1.09-.611-3.502l-.518.001c-.11 1.29-.222 2.58-.33 3.87Zm42.68 8.846c-.595-2.716-.538 3.193-.45 3.524.503 1.82.764-2.111.45-3.524Zm-46.793-.43c.632 1.52 1.269 3.042 1.896 4.563l-.006-5.602c-.623.346-1.259.692-1.89 1.038Zm51.163-2.593.396 4.182c.126-5.132 1.078 2.153 1.195.624.021-.333-.264-2.79-.393-3.312-.072-.325-1.139-1.97-1.198-1.494Zm31.239-1.188c-.177.947-.343 1.893-.526 2.84l-.117-4.724c.093-.296.183-.592.272-.888.12.924.246 1.848.371 2.772Zm-2.333 2.573c-.383-.117-.796-.234-1.185-.352 1.469-1.477.232-2.154 1.071-4.224l.114 4.576Zm-6.353-2.938.002-2.823 1.112-.059c-.403-3.246-.804-6.492-1.2-9.74l-.404-.003c.165 4.208.329 8.416.49 12.625Zm-87.13-6.042c-.274-.058-1.254 2.79-1.22 3.84.397 1.291.792 2.583 1.186 3.875l.032-5.615.158 2.796.7-2.097.325 4.909c.124-1.867.248-3.735.37-5.602-1.087-3.315-1.067-.006-1.298-.042-.117-.016-.186-1.175-.225-1.759l-.028-.305ZM104.5 29.86c-1.299-.464-2.067 4.463-3 .342.603 8.779 4.521-.288 5.917 7.028l.422-4.224c-.745 1.255-1.279-1.644-1.646-2.06-.288-.331-.257 1.144-.279 1.123h-.003c-.679-.605-.892-2.025-1.411-2.209Zm50.884 2.411c-.365-2.204-.724-1.957-.522 1.283.284.924.566 1.847.844 2.77-.102-.827-.259-3.676-.322-4.053Zm21.499-3.678c-.283-1.044-.813-.093-.434 2.697.07.495.542-1.501.451 3.571.551-.105.144-5.668-.017-6.268Zm-50.091 7.798c.228-.096.448-.192.679-.288l.115-3.933c-.271 1.407-.528 2.814-.794 4.221Zm30.003-6.488c.752 6.37.415.134 1.26 5.347.121.028.251.056.382.083h.001l-.552-5.22a20.332 20.332 0 0 1-1.091-.21Zm-44.34 3.432.438 2.44c.25-.95.498-1.898.745-2.848l-.417-2.036c-.253.815-.509 1.63-.766 2.444Zm46.464-4.211c-.662-.732-.235 4.83.493 4.76.127-.015.198-.635.191-1.428.297-.828.302-1.805-.289-2.467-.104-.39-.238-.701-.395-.865Zm-82.663 4.445.766 1.435.292-3.514-1.058 2.08Zm106.248-4.59a2059.8 2059.8 0 0 1-.006 3.517l-.273-.315c-.383.375-2.308-.285-2.675.105a49.047 49.047 0 0 0-.291-.371c-.025-1.164-.052-2.328-.08-3.492l.154.221c.387-.412 2.418.285 2.822-.111.118.149.234.298.349.447ZM77.99 34.304c.203.226.412.45.617.676l.431-1.706-.57-1.7c-.159.91-.32 1.82-.478 2.73Zm93.193-5.517c-.379-1.393-1.51 3.053-.268 4.118.773.677.324-3.906.268-4.118Zm1.599-1.475c-1.268-2.631.222 10.94 1.134 2.064-1.262 1.267-1.066-1.905-1.134-2.064Zm10.973-7.493c.021.007.09 1.965.265 2.033.624.237 1.448.986 1.863 1.091 1.115.258 3.509-3.41 4.078 2.226.136 1.185.226 4.744.261 4.925.11.506.404-1.244.505 1.374-.406.007-.837.013-1.282.018.008-1.851.008-3.701 0-5.551-.996 1.044-.669.91-.785 4.944a915.342 915.342 0 0 1-.813-4.642 136.242 136.242 0 0 1-1.165 4.752c.065-1.171.128-2.342.186-3.513-.781-2.135-.522-.726-.824 2.118l-.122-3.5c-.591 2.867-.856-.627-1.006-.665-.305-.06-.387 13.767-1.995.051-.386 6.409-.648-5.98-.835-.582-.425.416-2.562-.317-2.97.116l.012.6c-.527-3.25-.503-4.566-.274-5.003.432-.46 2.697.317 3.148-.124.407-.546 1.161.345 1.602.472h.001c.06.02-.066-1.232.15-1.14Zm-7.284 7.145c.309-6.09-2.074-6.549-.89 2.167.134.28.266.559.397.838.17-1.002.335-2.004.495-3.005h-.002Zm-25.518-2.33c-1.843 2.573-.584 6.015-.067 2.58.103-.681.132-1.61.067-2.58Zm-48.318.565-.109 2.184c.83-.68 2.415 2.128 2.395-2.783-.773.2-1.517.4-2.286.599Zm6.5-3.217c-.176-.296-.904-.994-.813.844.318 1.301.635 2.603.951 3.904l.429-2.442c-.202-.277-.519-2.229-.567-2.306Z" fill="#61C8D4" fill-opacity=".14"/></g><defs><filter id="a" x="0" y=".167" width="220" height="210.833" filterUnits="userSpaceOnUse" color-interpolation-filters="sRGB"><feFlood flood-opacity="0" result="BackgroundImageFix"/><feColorMatrix in="SourceAlpha" values="0 0 0 0 0 0 0 0 0 0 0 0 0 0 0 0 0 0 127 0" result="hardAlpha"/><feOffset dy="4"/><feGaussianBlur stdDeviation="2"/><feComposite in2="hardAlpha" operator="out"/><feColorMatrix values="0 0 0 0 0 0 0 0 0 0 0 0 0 0 0 0 0 0 0.25 0"/><feBlend in2="BackgroundImageFix" result="effect1_dropShadow_2_487"/><feBlend in="SourceGraphic" in2="effect1_dropShadow_2_487" result="shape"/></filter></defs></svg>