<svg width="418" height="272" fill="none" xmlns="http://www.w3.org/2000/svg"><path d="M89.995 4.7c9.647 2.264 16.103 7.591 21.965 15.036 2.932 3.751 5.724 8.006 8.861 13.332 3.074 5.444 6.772 11.42 10.662 22.404a73.951 73.951 0 0 1 1.455 4.806c2.47 8.83 2.877 20.312.498 29.88-2.292 9.659-6.381 16.933-9.999 22.255-7.4 10.53-13.539 15.636-17.182 19.494-6.239 6.324-12.158 13.447-16.965 20.344-.764 1.08-1.141 1.771-.629 1.016.383-.864 2.451-2.951 3.896-11.438.638-4.151.498-10.153-1.14-15.595-1.59-5.494-4.26-9.797-6.424-12.52-4.493-5.434-6.76-6.364-7.808-7.144-2.645-1.51-.669-.483.931-.237 1.792.393 4.11.757 6.499 1.008 5.852.628 12.703.512 19.682-.411 11.248-1.47 25.047-5.382 38.47-10.277 1.119-.409 2.141.216 2.651.027 4.817-1.768 12.512-6.013 17.307-8.08 5.062-2.156 11.94-5.405 18.701-8.728 6.702-3.286 13.528-6.747 18.498-8.922 4.227-1.852 8.598-4.041 11.325-2.917 1.612-.736 1.481-3.002 1.848-3.326l.017-.002c1.15-1.013 5.24-1.542 5.986-2.03.11-.073-1.295-1.025.787-1.601.187-.053.5.925 2.11.112.376-.202 5.247-4.401 6.992-5.318 2.459-1.31 6.546-3.105 12.312-5.057 2.938-.977 6.294-2.012 10.672-2.94 4.41-.864 9.84-1.908 18.136-1.207 5.211.476 11.206 1.93 16.829 4.718 6.49 3.36 10.915 5.968 16.113 12.27 2.716 3.293 4.74 8.593 5.117 9.513 1.128 2.207 3.731 7.427 4.352 10.956.683 3.553.076 5.55-3.044 3.589.928 6.583 1.099 7.967 1.827 8.665.655.602 1.47-.092 2.085.05-.582 11.417-4.656 13.014-2.325 15.938-3 9.651-6.65 16.248-10.464 22.443-3.842 6.12-7.926 11.446-12.281 16.434-7.118 8.094-14.164 14.423-21.08 20.191l.906 1.081c-5.702 2.405-5.213 6.056-9.463 5.978a537.514 537.514 0 0 1-3.563 5.088c-12.311 8.825-24.394 16.861-34.583 24.269-4.775 3.485-9.308 7.004-13.204 10.356-3.768 3.167-7.36 7.002-7.164 7.089.08-.355 1.057-.207 3.808-7.675 1.297-3.658 2.525-11.322.983-18.345-1.487-7.015-3.972-10.576-4.591-11.668-4.147-6.263-7.2-7.484-7.782-7.981-.708-.418.134-.024 1.497.335 2.821.799 7.627 1.734 12.729 2.452a48.79 48.79 0 0 0 2.983.3c1.155.078 1.363 1.105 3.583 1.184 2.466.083 6.299-1.093 10.128-1.228 3.34-.105 8.582.524 12.636.344.918-.041 1.52-.727 1.625-.732.607-.026.726.97 1.315.948.707-.029 1.501-.845 2.322-.874 3.078-.113 6.441-.718 6.84-.743 1.905-.103 2.438.824 2.594.819 2.138-.112 1.248-.906 1.782-.913.627-.007 1.226.087 1.819.208 1.903.428 3.755 1.171 6.28-.817l.031 2.477c2.784.094.694-1.825 1.197-2.29.206-.163 6.056-.745 6.511-.79 1.579-.105 1.798.96 1.935.954.338-.015 4.056-1.887 6.232-1.322 2.588.673.175 3.367.842 3.668.114.054 2.59-.637 3.059-.023.514.663-1.673 1.06-1.584 1.36.059.212 3.991 1.027 3.492 2.176-.367 1.139-5.589.753-6.556 1.407-.16.11.389 1.316.243 1.389-.585.327-12.139 2.155-12.704 1.969.525-.66 1.045-1.322 1.564-1.985-.807.055-1.61.106-2.417.154a300.807 300.807 0 0 0 3.199-1.862c-2.344-4.508-6.694.972-6.64 3.375.036 1.116 3.549 3.551.815 5.57.485.227.967.453 1.453.678.868-.582 1.728-1.167 2.587-1.756a279.41 279.41 0 0 1-1.955-.633c.183-.36.364-.72.544-1.081a323.823 323.823 0 0 0 4.899-2.306c.912.114.875 1.115 1.507 1.212 7.903 1.184 2.515-1.044 7.495-1.438.79.399 1.588.795 2.385 1.188-.638-2.108 1.786-1.144 4.234-2.582-.178.756-.356 1.511-.54 2.267 3.731-1.071 12.238.717 9.31-2.644.943.134 1.889.265 2.834.392a318.24 318.24 0 0 0 1.774-2.376c1.033-.167 2.055-.335 3.089-.511l.259 1.005a387.9 387.9 0 0 1-2.428.587c.851.882 1.702 1.763 2.563 2.639.564-.316 1.121-.632 1.681-.95-2.754-.352.179-2.744.63-4.295 1.975-1.026 3.767.37 4.497.263.347-.046 3.413-4.173 2.8-.381 1.906-.956 3.79-1.923 5.679-2.909.854.034 1.713.064 2.574.091-1.251 2.068 4.264 2.492.797 4.219-2.6 1.286-3.697.006-4.99.381-1.171.335-1.514 1.495-2.785 1.888-8.532 2.602-15.643 4.089-23.976 5.323-1.645.24-3.032 1.022-4.145 1.162-1.253.154.057-1.403-1.457-.801-1.596.633-1.765 1.729-2.202 1.829-.272.061-1.302-.716-2.095-.579-3.262.574-7.928 2.209-8.399 2.268-.528.099-9.946.486-10.407.352-.243-.055-.162-3.432-1.68.112l-.106.241-1.964.427.092-2.116c-3.624 3.055-2.444 1.442-6.179 2.034-8.949 1.427-22.157 1.862-31.145 2.082-1.999.054-2.784.886-5.08.875-2.257.019-6.944-2.929-6.212.601-.851-.749-1.51-1.104-2.058-1.232-2.627-.563-3.987 1.834-5.419-.975l-1.12 1.22c-2.183-2.47-3.29-.894-5.987-1.301-1.13-.182.664-1.908-2.121-.201-.368-.288-.706-.57-1.052-.86.24-.467.479-.935.716-1.403-2.323-.266-2.275-.581-2.693 1.331-.894-.68-1.676-1.364-2.269-2.014-.351.539-.705 1.075-1.065 1.608-.064.386 1.797 1.409 5.746 2.435 3.891 1.031 9.608 1.897 14.936 2.374 4.72.36 9.925.04 11.426-.144 5.001 1.569 15.771-.74 20.186-.762 1.771.008 2.663 1.381 5.267 1.336 2.607-.046 5.759-1.656 7.137-1.841 1.665-.222 5.604-.627 9.278-.934 6.267-.529 11.7-.737 2.542 1.577.502.645 1.007 1.289 1.515 1.932 5.523-3.112 3.59-1.375 8.451-1.822 2.051-.186 6.596-2.51 6.854.664-3.683 1.217-7.854.81-11.137 1.297-.321.053-4.046 2.002-6.114 1.84-.942-.074-1.174-.918-1.633-1.239-.462-.314-1.14-.126-2.957 1.765-3.351-2.98-4.755.19-5.517.589-1.314.689-1.62-.929-3-.989-1.496-.07-2.421 1.106-2.621 1.131-2.043.245-12.546 1.158-13.042.487.401-.315.805-.63 1.206-.946-2.729-.307-2.068 1.329-2.771 1.569-.529.022-1.055.041-1.586.06l.58-1.073c-3.165.215-.703 1.337-5.185 1.454-2.859.064-5.729-1.266-5.992-1.171-.081.028.789.926-.339 1.043-1.882.199-5.051.07-5.34-1.17-.877.132-.867 1.324-.986 1.345-.341.065-4.309.041-7.074-.239a170.763 170.763 0 0 1-3.679-.416c-4.547-.57-9.4-1.846-13.643-2.977-.44-.118.066-.759-.362-.872-.722-.158-4.356-.273-4.777-.419-1.308-.319-3.147-2.036-3.43-1.888-.083-.001-.161 1.245-.991 1.006-.856-.26.423-1.002.386-1.05-.253-.484-.357-.593-.496-.568-.224-.156.024.385.173 1.579.166 1.19-.082 2.596-.305 3.158-.251.722.58 1.152.637.514.005-.073-.878-.487-.883-.568.024-.428.465-.725.984-.914.734-.274 1.594-.313 1.865-.531 1.167-.932-.343-1.198-.308-1.258.639-.8 1.956-1.526 3.115-2.768 5.276-5.568 10.678-9.972 17.889-15.312.906-.668 2.548-.721 2.686-.821.427-.324-.341-1.124.918-2.017l.735-.52c2.401-1.707 4.674-3.383 7.142-5.117.543-.381 1.365.282 1.795.003 1.427-.937 4.673-6.516 6.685-3.882 1.09-4.386 4.421-3.667 6.668-5.335 5.32-3.923 13.317-10.704 18.785-14.72 1.156-.84 2.211-.614 2.857-1.092 1.167-.813 7.085-6.62 7.475-6.847.797-.392 2.99 2.726 3.998-2.728 1.723-1.988 2.576-.694 3.025-1.018 3.512-2.601 3.839-8.129 5.63-5.424a42.08 42.08 0 0 0 1.744-3.045c1.588-2.992 2.601-5.088 5.366-5.072-1.166-.836-.383-3.293 1.718-5.476.26 3.85 1.809 4.612-3.208 10.26-.08.088-.742-.74-.822-.653-.415.448-.923 1.317-1.533 2.234-.435.658-.921 1.338-1.442 1.891-1.232 1.298-1.097.082-1.562.619-.426.489.321 1.143-.312 1.848-2.04 2.254-3.72 4.313-4.914 5.505-.762.759-2.207.936-2.802 1.497-2.273 2.189-6.737 7.05-9.792 9.448-.637.501-1-.464-2.407.59-.164.122-.099 1.389-1.162 2.52-1.065 1.131-2.31 1.473-3.014 2.163-.59.577.24 1.078-1.051 2.158-1.076.988-14.001 9.797-14.756 10.107-1.102.541-2.3-.163-2.808.394-.085.102.454 1.227.143 1.559-3.512 3.766-11.321 8.665-17.67 12.795-2.918 1.903-5.564 3.687-7.498 5.18-7.379 5.683-14.614 12.153-17.872 16.874-.536.671-.672 1.597.243-.676.426-1.106.943-3.933.391-6.562-.531-2.624-1.389-3.783-1.38-3.852-.857-1.338-.575-.691 1.002 0 .23-.121.462-.245.694-.369-.791-.39-1.366-.76-1.575-.927l1.02-1.401c.032-.09-.767 1.024-1.352 1.608.253-.243.64-.367 1.135-.309-.345.379-.462.699-.41 1.069-.064.144.209.523.775 1.958.572 1.366 1.124 4.121.942 6.212-.48 4.301-1.088 4.506-.975 4.553.004-.009.071-.344.203-.764.194-.611.435-1.294.722-1.573 1.059-1.027 1.991-.173 2.076-.243.133-.113.915-2.52 2.308-3.762 2.054-1.826 3.505-.586 5.473-4.389 4.558-2.546 8.939-6.559 13.6-10.187.078 1.004.85.493 1.9-.488 1.086-1.02 2.496-2.573 3.524-3.292 12.262-8.551 28.597-18.989 41.84-29.353 1.705-1.331 3.631-1.636 4.527-2.474.485-.452-.11-1.561.684-2.057.142-.088.99.698 2.392-.35 3.541-2.524 9.959-11.833 13.529-12.792l.491-.599c5.049-6.23 9.618-12.911 13.497-20.879 1.921-4.012 3.697-8.303 5.033-13.675.652-2.703 1.211-5.672 1.364-9.387.09-3.706.015-8.308-2.43-14.371a24.352 24.352 0 0 0-.692-4.538c-1.672-1.845-4.418-5.273-8.957-8.213-4.488-2.98-10.162-4.594-14.585-4.892-6.12-.415-10.102.46-13.348 1.128-3.213.72-5.614 1.48-7.398 2.173-10.359 4.148-19.647 10.147-26.407 13.803-1.439.79-2.96.84-4.308 1.583-.585.323-.896 1.492-1.496 1.821-6.783 3.75-16.207 7.824-22.83 11.246-.831.431-1.662.86-2.493 1.283-14.144 7.204-27.901 13.385-42.648 19.049-13.523 5.162-27.236 9.526-40.063 11.681-7.92 1.317-15.88 1.819-23.458 1.34-3.775-.238-7.461-.728-10.788-1.466-3.212-.668-6.603-1.943-7.336-2.389-.233-.061.203-.11 1.916 1.965.815 1.037 1.929 2.851 2.564 5.165.66 2.297.668 4.78.407 6.356-.602 3.229-1.172 3.408-.902 3.074.217-.392.922-1.437 1.82-2.669 5.64-7.756 12.126-15.329 19.024-22.43 4.805-5.323 12.248-10.73 18.56-24.21.608-1.451 1.522-1.032 1.969-2.258.95-2.656 2.055-7.084 2.01-12.26.006-5.17-1.321-10.616-3.023-14.64-1.19-2.863-2.388-4.98-3.308-6.605-2.739-4.947-6.15-11.245-8.287-11.277 3.106 4.984 6.802 10.058 9.85 18.551 2.59 7.008 2.85 16.68.289 23.872-2.448 7.28-6.149 12.133-9.423 15.925-.767.871-1.588.342-1.69.439-1.864 1.663.136 1.411-2.126 4.001-.918 1.098-9.401 5.365-6.389 6.661a1.89 1.89 0 0 0-.218.072c-2.675.973-11.916 10.406-13.18 12.701-.422.703.641.838.574.991-.285.659-1.45.112-1.867.573-1.12 1.234-2.902 5.156-3.369 5.776-.39.506-1.148 1.297-2.004 2.201-1.637 1.701-2.922 3.132-2.614 2.947.166-.088.699-.422 1.159-.732.45-.385 1.017-.666 1.142-2.778.012-1.751-.325-1.723-.679-2.14-.397-.289-.823-1.92-2.525-4.359-1.07-1.543-2.158-2.405-1.328-2.124.434.091 1.242.321 1.548.452.752.33 1.5 1.461 2.96 1.861 2.032.617 7.231 1.293 9.785 1.347.154.008.644-.948 1.004-.88.751.137.376 1.352.94 1.546.507.335 10.937.718 12.776.535 1.242-.022 2.078-.806 2.754-.832.535-.02.65 1.019 1.207.998.181-.011 1.567-1.003 3.015-1.111 1.365-.063 6.703.136 7.322.022.308-.044.05-.452.463-.711.118-.075.292-.138.554-.176 1.056-.151 1.933.672 2.544.576 1.433-.226 2.869-1.345 4.38-1.673 4.358-.967 4.437.191 4.704.176.759-.074.792-1.208 1.027-1.29.997-.34 3.437-1.194 4.329-1.489 1.116-.364 1.879.499 3.088.152.907-.264 2.43-1.77 4.459-2.46 4.586-1.557 10.009-3.651 14.551-5.322 1.351-.498 1.896.306 2.319.171 2.223-.713 3.047-2.183 3.669-2.414 4.433-1.633 12.931-3.446 17.063-5.168 1.687-.679 8.595-4.707 12.695-6.563.469-.212.36.666.825.311 1.112-.852.332-2.155.975-2.42.313-.123 1.373.306 2.289-.054a38.887 38.887 0 0 0 4.867-2.319c2.017-1.129 3.517-2.16 4.76-2.777 10.017-4.957 20.122-10.351 30.553-15.674 5.251-2.663 10.534-5.305 16.348-7.803 2.925-1.245 5.974-2.463 9.518-3.55 3.649-.997 7.401-2.34 14.439-1.894l.241.023c3.162.328 8.172 1.106 13.077 5.036 4.96 3.895 7.576 10.158 7.778 14.695-.419.352-.844.687-1.276 1.008.496.234.99.482 1.48.742.513 4.753.248 7.14-.033 9.573-.325 2.341-.877 4.521-2.117 7.234-.22.498-2.729 1.114-.6 2.952-3.946 4.34-.938 2.329-2.524 6.01-1.639 3.608-4.053 6.436-6.161 9.323-1.83 1.082.736-6.92.926-7.423.428-.728 2.032-.889 2.496-1.61 1.392-2.145 1.47-4.875 2.79-4.95.203-3.659-.9.526-1.769-.332 1.338-1.856 2.623-3.845 3.812-6.094-1.645-1.212-.251-4.438.571-8.663.997-3.961.264-10.036-1.023-8.828.142-1.956-.039-4.34-.892-6.923-6.131-5.506-11.835-7.752-17.014-9.067-2.624-.637-5.162-.984-7.769-.908.6.37 1.235.745 1.862 1.137-.412.137-5.949 2.15-4.369-.253-4.833 4.011-5.805-.123-8.812 4.399-2.151 1.33-1.528-.96-5.522.854-2.341 1.08-4.703 3.29-7.106 4.577-.548.29-1.271-.535-1.77-.281-.5.255-.271 1.307-.847 1.633-1.206.682-3.114.854-3.846 1.32-.655.411-1.187 1.73-2.734 2.717-5.369 3.451-4.295 1.396-5.385 1.476-1.164.092-1.033 1.984-2.995 2.819-.199.083-.224-1.128-.816-.76-.483.3-.163 1.458-1.688 2.531-.615.44-10.485 6.042-11.985 6.844-2.2 1.204-7.392 2.904-9.958 4.11-.134.063-.26.125-.379.186-.923.469-1.495 1.81-2.485 2.298-3.282 1.624-8.582 4.115-12.8 6.023-3.803 1.743-11.293 2.795-12.638 5.396-5.267 2.515-7.187 1.533-7.595 1.683-1.113.387-1.228 1.578-2.591 2.173-13.774 6.02-31.743 11.644-46.742 13.796a137.803 137.803 0 0 1-11.998 1.227c-6.457.381-12.938.218-19.119-.615-6.034-.779-12.565-2.542-15.89-4.451-.714-.373-.984-.786-.335-.014.704.586 1.749 3.976 1.33 5.311-.766 2.388.484-.848 2.408-3.202 5.901-8.112 12.588-15.933 19.704-23.294 3.912-4.106 8.706-8.482 13.246-15.15 2.228-3.352 4.442-7.5 5.539-12.638 1.14-5.103.701-10.98-.946-15.713a45.07 45.07 0 0 0-1.525-.087c1.324 3.954 1.776 9.184.758 13.83-.97 4.68-3.024 8.47-4.86 11.38-4.168 6.656-9.67 13.65-14.29 16.366-.89.519-1.784.904-2.69 1.115.462-.65 1.236-1.272 1.926-1.855 1.036-.874 1.91-1.696 1.173-2.363-.615.59-1.22 1.171-1.813 1.744a254.698 254.698 0 0 0-5.777 5.761c.636.435 1.272.87 1.906 1.306-2.304 2.859-4.885 5.568-7.14 8.457-.392.502.428.597.08 1.025-.39.476-.669-.293-.746-.208-1 1.207-.736 2.023-.864 2.165-.327.362-.621-.361-1.648.624-1.91 1.834-1.594 4.418-3.613 2.107-.515.676-1.023 1.349-1.528 2.029.527.662 1.053 1.326 1.584 1.984a9.383 9.383 0 0 0-.26.104c-2.667 1.107-3.002 2.794-3.005 3.746-.036 1.024.387.879-1.796.072.743-.187 1.414-1.21 1.72-2.27-.94-.131-1.805.074-2.49.52.558-.425 1.102-.87 1.631-1.331-.425-.22.068.351.947.804 1.925 1.054 5.033 1.825 7.787 2.655 2.86.839 3.544 1.258 6.266 1.719 6.136.852-.23 1.324 4.824 3.512-.176-.886-.345-1.773-.511-2.661a82.939 82.939 0 0 0 2.665-.659c.524.755 1.08 1.507 1.63 2.253 2.937-3.43 4.477-.465 4.884-.45.31-.006 1.33-2.133 4.548-.312-1.366-2.973 2.438-.063 2.767-.074.306.012 3.948-.853 5.45-.972 1.173-.074 3.774.306 5.528.038 1.561-.237 1.247-1.227 1.361-1.253 1.483-.284 1.138.245 1.599.402.123.042.305.057.598.018 1.383-.182 2.305-1.232 2.611-1.208.157.013-.176 1.037.528 1.001 1.901-.087 5.083-1.599 7.196-2.076.753-.167 1.888.386 2.734.201 1.303-.29 1.629-1.479 2.381-1.644.261-.055 2.343 1.104 4.351.268.386-.163.536-3.835 3.48.444l-.247-2.105c6.345-3.746 10.084.88 11.484-4.913 5.144-1.245 2.409 1.808 3.053 1.897.419.051 1.864-1.05 2.05-1.087.337-.061.5.548.846.415 6.314-2.504 3.066-2.555 4.793-4.023 4.066-3.527 9.262-1.353.554.844l.384.978c1.923-1.1 7.139-3.068 6.09-.721-.813 1.906-13.579 5.844-5.828 4.962 1.764-.211 2.098-1.748 5.788-.582 1.882-.622.932-3.677 3.878-3.521a503.734 503.734 0 0 1-2.494-2.576c2.764-2.716 7.61-2.7 9.896-4.405.787-.58 1.669-6.806 3.147-1.652 1.308-.941 8.492-3.23 9.535-4.275.253-.253-.58-2.967 4.175-4.209l1.374.505c-3.511 2.887 3.963.346 3.258 3.689-1.189-.75-4.674.151-5.449-.148-1.324-.515.666-2.977-2.46-1.05-.13 5.043 4.923.292 5.89 4.549 3.473-3.93 4.74-2.466 5.761-2.891.285-.12.561-.241.829-.361 3.835-1.716 6.203-3.363 10.09-4.895.547-1.271-7.144 1.35-7.859 2.129 1.437-3.493-1.76-2.509-3.925-.563-.58.523-1.089 1.117-1.415 1.717-.619-.735-1.238-1.472-1.856-2.209a47.277 47.277 0 0 0 2.555-.916c2.342-.924 4.536-2.068 6.5-3.736l1.077.62c-.431.822-.869 1.646-1.305 2.467 2.927-.556.136-2.171 4.61-1.829l-1.169-2.959c3.369-1.388 6.738-2.804 10.115-4.231.655-2.756 7.234-5.422 7.397-2.4 2.607-1.188-1.185-.795.848-2.649.886-.806 2.848-1.952 3.702-1.573 1.005 2.416-1.834 4.308-1.879 6.367.788.189 13.929-8.85 14.085-5.446 1.297-.246.039-1.375 1.926-2.764 5.409-3.91 15.076-5.08 20.236-9.56-7.428-.872-8.356 2.362-12.717 4.19-2.921 1.088-18.819 9.741-16.501 5.456-.437.625-.852 1.239-1.276 1.859-.975-.412-1.966-.813-2.936-1.226a565.904 565.904 0 0 1 4.88-2.972c.781.516 1.569 1.028 2.347 1.547l-.243-1.845c.647-.463 1.34-.947 2.002-1.41l.345 2.184c1.147-.447 2.334-.906 3.486-1.337-.712-.696-1.423-1.39-2.142-2.081 5.22-2.809 3.693-1.406 7.434-1.192 2.363-.838-2.295-.805 2.482-3.333 5.878-2.75 2.483 1.101 10.9-1.673.045-.485.097-.97.155-1.456 1.772.07 3.632.232 5.731.778.585.15 1.148.33 1.712.55a18.09 18.09 0 0 0-.871-1.919c3.004.297 8.132 2.607 10.104 6.233 2.031 3.456 1.8 6.085.804 7.027.259-2.767-1.207-4.233-2.267-4.28-1.095-.09-1.95.821-2.075 1.502-.08.727.519 3.323.1 6.531-.353 3.22-1.469 7.089-3.015 10.821-3.071 7.535-7.901 14.539-9.56 16.724a41.85 41.85 0 0 1-2.622 3.124c-3.496 3.782-6.881 6.517-9.504 11.146 2.568-1.064 7.26-5.767 10.846-10.005 2.386-2.784 4.303-5.294 5.357-6.005.252-.17 3.209 2.003.926-1.922 4.006-4.695 6.845-11.578 8.991-19.408a73.931 73.931 0 0 1 2.861 1.545c-3.507 4.433-1.146 10.35-4.552 8.094a67.858 67.858 0 0 1-1.307 2.601l1.866.988a77.868 77.868 0 0 1-2.198 3.876l-1.807-1.092a86.248 86.248 0 0 1-1.91 3.012c.516.493 1.033.982 1.547 1.477-2.307 1.651-5.369 8.617-6.897 9.279-.316.146-.541-.001-.652-.554-.065-.335-.088-.82-.073-1.476a110.775 110.775 0 0 1-3.249 3.726l1.152 1.029c-.431.576-.866 1.146-1.302 1.709-.178-.49-.359-.978-.542-1.464-1.616 2.956-5.497 3.333-5.883 5.93a141.022 141.022 0 0 0 3.715-2.165c-2.343 1.442-4.963 5.78-5.3 6.079-.983.907-2.201.604-3.308 1.514-.998.821-.341 1.304-.541 1.442-5.833 3.948-6.563-1.152-5.787 4.873a373.48 373.48 0 0 1-2.128-.972c.015.741.03 1.481.04 2.223a328.093 328.093 0 0 1-4.895 3.667c1.072.274 2.147.544 3.226.808-2.179 2.209-4.386 1.679-4.642 1.827-.725.427-.363 1.534-.568 1.693-9.984 7.374-4.546 2.087-11.937 2.393-.807 2.595 1.931 2.615 3.159 3.763-2.813 1.089-3.288 1.996-5.83 3.708-.666.447-1.88.22-2.293.5-.361.246-.92 1.807-1.764 2.413-1.417 1.018-3.615 1.887-5.537 3.273-1.238.896-4.234 3.522-7.023 5.783a73.508 73.508 0 0 1-2.346 1.833c-1.392 1.032-1.557.171-1.918.438-.15.111-.681 1.694-1.56 2.367-7.186 5.517-15.013 11.025-20.308 17.103a23.358 23.358 0 0 0-1.444 1.858c-.788 1.077-1.333 2.344-1.095 2.091.107-.112.346-1.064.195-1.942-.144-.873-.325-1.067-.059-.745.384.434 1.079 1.088 2.111 1.847.707.509-.059.826.271 1.071.144.087.837-.857 1.985.308.445.425-.555.87-.037 1.178.261.144.805-.736 2.508-.273 3.149.813 4.633 2.66 4.949 2.726.608.094.673-.804 1.454-.615 3.821.899 7.181 1.436 10.824 2.01.617.096 2.586.405 4.893.716 3.536.502 8.417.673 8.81.784 1.424.405.006 2.201 1.89 2.193.533-.452 1.077-.907 1.606-1.365a117.96 117.96 0 0 1-2.458-1.12c2.241.668 4.865-.16 6.567-.147.315.009 3.245.796 4.751.652-.624.365-1.257.729-1.888 1.089.233.29.467.579.703.868 3.015-.526 6.211-.661 9.347-.787 1.127-.047.788.693 1.938.643 6.699-.321 4.727-3.16 11.682 1.843-2.235-.285-10.142 1.051-11.315.922-.832-.072-4.21-4.608-2.789.167-6.433.315-.996-2.618-6.929-1.79l.422 1.762c-2.083.448-3.625.779-4.908-.248-.384 2.897-7.536 1.251-11.334 1.163-2.272-.027-4.682-.061-7.043-.221-3.546-.252-7.103-.598-10.32-1.214-1.893-.363-2.674-1.72-2.896-1.769-.345-.075-1.516.649-2.204.472-2.666-.568-9.109-4.648-11.896-3.234 8.126 4.155 17.706 5.909 27.078 7.36 6.082.882 12.377 1.025 18.65.947-1.989-1.218 13.919-1.958 14.744-2.051.753.009.187.994.414 1.036 1.698.29 3.014-1.184 3.538-1.225.399-.031 1.268.547 2.694.414.263-.024.279-.707.561-.733a446.95 446.95 0 0 0 5.576-.497c.114-.004.684.938 1.157.894.473-.046.845-1.08.964-1.094 1.498-.141 4.127.235 5.555.088.493-.054.073-.74.627-.793 1.683-.166 1.305 1.273 3.287.73a7.78 7.78 0 0 1 .076-.021c.688-.203.518-1.277 1.877-1.292.96-.012 1.092 1.925 1.251 1.976.224.062 3.318-1.869 4.556-.759-1.915 3.637 2.605-.175 2.162-1.547 1.348.171 2.699.333 4.049.489.39-.421.779-.843 1.166-1.265 5.479.773 8.516-.74 13.726-1.231.25-.017 4.722-.1 4.624.429-2.413 1.381-5.014 1.922-6.963.654-2.184 3.506-2.669 1.134-7.027 2.279-1.464.381-1.436 1.214-1.606 1.252-5.069 1.206-12.974 2.594-17.616 1.469a8.255 8.255 0 0 1-1.61-.546c-.73.55 1.075.618 1.643.844.182.074.236.164.033.292a1.51 1.51 0 0 1-.205.106c-.795.432-20.955 3.131-14.739-.26-.664.137-1.327.272-1.986.406-.448 2.686-3.847 2.353-3.666-.295-.272.56-.547 1.119-.824 1.679-.594.5-1.308.797-2.343 1.013-1.971.413-8.895.787-15.51.764-6.614.021-12.87-.522-13.522-.402-.076.618-.152 1.237-.23 1.855 10.736 1.475 20.909-.558 32.49.375-.377-.557-.756-1.113-1.131-1.671 4.622.477 9.255.878 13.897 1.231-4.71 1.549-12.376 3.112-17.565 2.559-.921-.097-.305-.952-.52-1.037-.557-.223-1.062 1.228-3.022 1.473-1.964.256-6.977-.56-7.423-.531-.88.085-3.215 1.75-4.747 1.736-1.991-.021-.658-1.027-1.057-1.047-1.637-.097-3.138.378-4.435.271-1.946-.143-5.831-2.116-7.419.325 1.407.237 2.803.443 4.201.628-3.439.251-6.565-.459-9.628-1.291-3.549-.995-6.962-1.947-11.27-1.44-2.366 2.693 3.918 3.6-1.613 3.782.983.173 1.929.327 2.898.476.349-.598.697-1.197 1.043-1.797 1.536.778 3.054 1.527 4.606 2.26-.36-.652-.735-1.308-1.089-1.962 1.775.173 3.504.297 5.158.488 4.032.468 7.269 1.021 8.609 3.286.166-.751.33-1.502.492-2.253 5.479 1.253 13.381-2.147 11.963 2.102.25-.228.501-.456.749-.685 3.238.786 1.812-.929 3.007-1.162.34-.05 6.569.568 3.881 1.947 6.105.65 4-3.211 5.634-3.478 3.964 1.72 10.561-1.787 7.942 1.532.575.069 1.158.136 1.731.203 1.649-2.581 3.715-.009 5.823.711.688-.011 1.372-.023 2.062-.037.377-.859.746-1.719 1.118-2.579 6.802 3.203 3.612-7.172 7.508 1.397l-1.186 1.747a648.9 648.9 0 0 1-3.16 1.11c1.66-.086 3.315-.178 4.972-.275 2.778-.165 5.556-.361 8.334-.587 5.986 1.71 8.784-1.463 15.343-.584.542-.337 1.085-.674 1.627-1.014-.237 2.099-2.568 2.219 1.83 2.348.623 1.343-2.224 2.049-3.718 1.19-.359-.21 2.126-1.755-.887-1.272-2.052.316 1.963 1.404-4.294 1.781l.852.926c-.671.098-1.343.195-2.013.289-.717-.708-1.437-1.416-2.15-2.127-1.343 1.383-1.972 3.142-5.526 3.278.883-.633-.629-2.064-2.347-1.813l.227 1.743c-4.157.91-2.908-.979-6.247.763l-.54-.569-.651-.703c-1.628 2.124-8.383 4.139-7.418 1.144-1.643 2.982-5.861 2.115-7.57.017l-.197 1.77c-.801.189-1.598.376-2.404.562-.483-.313-.961-.627-1.444-.942-.55.398-1.1.794-1.649 1.189-.393-.555-.789-1.111-1.181-1.667-.873.766-1.76 1.531-2.647 2.292-.599-.427-1.211-.854-1.811-1.283.035 1.228-5.693 1.823-7.348 1.074-.469.374-.937.746-1.406 1.117-.258-.571-.516-1.143-.772-1.714-.344.475-.69.95-1.037 1.424a323.49 323.49 0 0 1-2.541-1.331c-3.388 2.898-3.551.384-4.335.405-1.439.052-6.605 1.712-7.518 1.559-.871-.132-1.25-1.174-1.954-1.311-11.139-2.395-7.846.044-9.536.531-.091.024-.198.04-.325.045-1.234.054-1.919-1.017-2.995-1.087-1.76-.037-11.412-.703-12.016-1.054-.76-.369 2.18-4.265-.685-3.784-.649 2.357-5.745-1.61-3.98 2.386a101.021 101.021 0 0 1-7.142-3.288c-.74 2.758-3.249-.057-7.129-1.881-1.962-.931-5.037-2.307-8.331-4.663-3.279-2.285-6.732-5.922-8.424-9.115-1.238-2.203-2.134-5.446-1.153-5.327-2.202-3.12-3.956-9.273-3.79-14.072 1.06-5.591 2.865-8.525 4.14-10.765 1.332-2.208 2.445-3.709 3.462-5.079 3.804-5.025 7.113-8.823 10.644-12.142 7.589-7.018 15.305-12.736 23.165-18.244 8.608-5.979 16.885-11.326 24.519-16.572.698-.478 1.169.364 1.672.019 2.66-1.812 8.791-7.313 12.256-9.866 1.119-.816 2.228-.52 2.595-.765 1.243-.828.184-1.552.73-1.959.873-.632 5.868-3.424 7.331-4.627.74-.593.878-2.052 1.87-2.577.085-.046.653.804.722.762 1.514-1.274.051-1.082.56-1.508 2.567-2.16 5.001-4.581 7.199-7.015a108.023 108.023 0 0 0 2.667-3.075c.745-.881 2.341-1.885 2.948-2.668.226-.294-.771-.173-.018-1.192.256-.351 1.172.064 1.488-.314 1.369-1.681-1.107-3.801 1.936-4.052 1.565-2.88 1.92-8.48 1.572-6.487.025.443.613.693.835 1.648.155.624-.171 2.813 1.474 4.961 1.374 2.148 6.418 4.305 8.818 4.442.245.042.476.077.688.106 1.825.176 1.113.504 1.057.565-.145.03-.478-1.017-.726-.941-.642.154-3.338 2.23-4.993 3.083-1.722.859-3.104.921-3.748 1.229-.587.289-.92 1.469-1.19 1.608-.423.218-.993-.706-1.551-.424-.918.466-1.563 1.541-2.943 2.259-13.14 6.903-27.03 14.777-41.424 21.818-13.194 6.474-26.633 12.341-40.455 17.486-3.224 1.19-4.761 2.618-9.667 4.073-1.989.581-1.556-.764-2.996-.018-.643.332-.176 1.095-1.019 1.44-3.732 1.529-8.484 2.231-10.157 2.77-.667.216-1.12 1.403-2.503 1.842-8.408 2.669-18.43 5.107-28.64 6.724-2.237.354-4.436.664-6.627.941-6.442.866-16.389 1.813-24.138 1.372-5.91-.294-12.006-1.014-18.274-2.394-6.367-1.494-12.513-3.105-20.276-7.534-2.806-1.744-6.13-3.736-9.989-8.666-1.876-2.458-3.766-5.912-4.71-9.847-.979-3.93-.884-7.959-.318-11.03 1.224-6.202 3.252-9.282 4.679-11.772 1.494-2.435 2.735-4.117 3.82-5.616a281.461 281.461 0 0 1 22.444-26.967c4.425-4.617 7.997-8.425 9.282-10.505.664-1.002.592-1.258.48-.495-.142.74.153 2.098.312 2.146.102-.001-.343-1.123-1.19-2.448.451 1.478.67 2.823.294 2.792-.352-.087-.84-1.269-.854-2.325-.04-1.068.181-1.508-.154-1.047-.598.938-3.316 4.133-6.672 7.374-.945.931-1.96 1.93-3.042 3.013-8.14 8.18-15.845 17.048-23.018 26.905-1.146 1.593-2.466 3.393-4.07 6.065-1.523 2.73-3.77 6.2-4.95 13.228-.539 3.459-.464 7.954.74 12.15 1.17 4.216 3.27 7.774 5.266 10.286 4.112 5.047 7.551 7.073 10.428 8.826 7.766 4.353 13.73 5.882 19.834 7.33 6.043 1.343 11.882 2.081 17.643 2.46 11.521.737 22.667.004 33.462-1.657l.662-.103c15.274-2.373 32.646-7.747 47.325-12.699.669-.224 1.753-1.452 3.195-1.923.303-.092 4.524-.25 5.773-.745-2.102-1.823 3.583-1.742 5.051-2.432 1.859-.861 5.267-3.652 9.875-4.946 4.183-1.184 3.496.163 3.737.122 1.549-.281 1.39-1.901 2.38-2.529 2.328-1.458 10.672-5.233 18.402-8.963 5.793-2.782 11.172-5.45 13.695-6.77 1.521-.798 2.027.038 2.369-.141.9-.475 1.732-2.019 3.159-2.782 2.597-1.386 5.964-2.162 7.368-2.917 3.348-1.8 9.088-6.133 13.206-8.264 1.151-.598 1.552.341 2.067.076 2.291-1.207 7.578-5.066 9.856-5.94 1.456-.595 2.852-.976 3.676-1.094.73-.172 1.26.225-1.607.103-1.79-.128-5.453-.936-8.828-3.756a18.604 18.604 0 0 1-3.511-1.533c-.864-1.762-1.289-3.459-1.391-4.84-2.121-5.12-1.178-6.026-1.298-6.034.049.048-.09 1.042-.445 2.203-.711 2.392-2.168 5.564-4.167 8.438-.432.687-3.577 3.456-4.042 3.978-.362.448.147 1.595-.547 2.165l-.004.003c-.967.771-1.823-1.496-2.679.397-.239.512.803.73.264 1.744-.08.323-5.091 5.896-5.514 6.133-.581.402-2.365-.62-2.524-.531-.828.463.213 1.55-.158 2.074-1.098 1.559-3.643 2.425-3.859 2.638-2.598 2.643-7.457 8.106-11.184 10.05-.512.268-1.141-.664-1.242-.632-.651.206-.196 1.465-.67 1.862-2.549 2.125-7.294 4.557-10.2 6.386-.334.213-.646 1.197-1.254 1.562-3.449 2.055-2.979.5-3.186.597-.504.232-.637 1.665-1.786 2.567-2.919 2.305-8.98 6.404-12.462 8.822-.747.517-1.331.801-1.793.947-1.193.39-1.582-.122-1.716-.046-.385.228-.814 1.772-2.456 3.139-3.154 2.645-3.375 1.602-4.703 2.672-.114.088.662.694-.773 1.935-2.775 2.367-9.927 7.011-13.134 10.064-1.228 1.149-.883 2.088-2.144 3.323-1.949 1.816-7.474 6.407-7.898 7.041-.116.143.475 1.088-.168 1.902-.253.32-.587.629-.905.894-.564.481-1.158.932-1.519 1.452-1.481 2.378-4.382 6.485-5.858 15.088-.66 4.165-.211 8.388-.098 10.392.122 2.031-.333 2.602-1.821.569 2.083 5.281 4.823 7.975 6.572 9.279.315.254.633.501.953.74 5.189 7.527 10.983 10.963 15.685 13.433 4.785 2.408 9.029 3.769 13.071 4.925 1.821.513 3.078 1.602 4.573 1.954 1.525.402 8.033.607 9.007.739 1.11.199 5.317.902 8.66 1.364 2.623.373 4.689.561 5.256.649 2.726.421 5.209 2.112 6.292 1.853.864-.211.13-1.12 1.74-1.312 2.796-.323 7.359.806 8.167.773.346-.014-.298-.68 2.925-.791 1.73-.067 2.669.658 3.298.634.194-.014-.131-1.218 3.237-1.199 2.32.01 3.354.896 3.594.887.359-.014 1.186-1.074 2.625-1.13 3.39-.116 9.584.551 12.737.343.609-.039.296-1.234 2.72-1.352 1.734-.087 1.526.91 2.177.884 1.033-.043 2.433-1.38 4.683-1.582.676-.06 2.392-.164 4.624-.296 7.336-.384 20.119-1.59 21.004-1.527.782.088 1.651-.047 2.112.41l-.7 1.661c-3.597-1.199-1.931.579-2.79.853-1.244.399-6.092.877-7.195 1.482-.393.22.718 1.158-1.449 2.023-2.331.923-3.648-.851-4.277 1.882-3.784-2.462-6.713.986-2.635 1.342 2.283.34 24.258-1.954 28.691-2.818 3.617-.556 10.137-2.725 14.532-3.547 2.593-.461 8.898-1.883 8.974-.469 2.31-.404-.431-1.144-.003-1.453.895-.628 8.155-1.553 9.467-1.972 4.596-1.402 9.799-3.788 14.822-5.193 2.065-.576 4.101-.984 6.059-1.081-.171.449-.343.898-.517 1.348-.633.592-2.872 1.197-4.86 1.914-1.732.627-3.257 1.336-3.363 2.241 1.243-.378 2.467-.755 3.706-1.142 8.354-2.611 16.464-5.387 24.435-8.24-.661-1.368 10.578-5.45 11.328-5.011.063.767.126 1.534.187 2.301-7.303-.294-5.462 2.98-10.429 2.677-1.761.603-.822 1.565-1.609 2.093-7.894 5.238-.958-2.309-7.245 1.044 2.592.982-2.668 3.491-5.092 4.533-.538.246-8.17 2.268-9.079 2.569-.528.185-1.095.39-1.691.61-5.062 1.875-12.394 4.722-17.222 5.119-4.067.979-5.985 2.779-9.628 3.986-2.764.907-2.171-.156-3.5.153-2.787.638-3.119 3.485-5.742.211a414.144 414.144 0 0 1-5.402 2.62l-.363-1.719a438.7 438.7 0 0 1-3.588.74c-.236.643-.474 1.286-.713 1.929-3.977-.032-2.643-1.736-3.669-3.226-.842.046-1.68.087-2.52.127-.404 1.37-.812 2.74-1.225 4.109a418.698 418.698 0 0 1-11.171 1.543c-.328-.541-.655-1.082-.981-1.624l.237 1.736a410.434 410.434 0 0 1-15.036 2.266c-1.222.163-2.44.322-3.667.479-.771.565 1.409.755 3.81.789 2.411.022 5.052-.123 5.429-.144 4.338-.185 15.514-2.862 15.863-.841 2.41-1.95 10.389-3.011 13.224-1.695a415.45 415.45 0 0 1-11.351 1.747c.238.667.478 1.334.718 2.001-5.196-1.982-5.809-1.727-10.301 1.625l-.416-2.776c-2.941 3.728-9.653-.993-9.329 3.008a410.677 410.677 0 0 1-3.532-.213l-1.904-.145c-3.687.874 2.554 3.402-12.37 3.637-1.037.01-.908-1.028-2.455-.821-.446.057-2.865 1.781-7.895 1.988-.789.03-.91-.851-1.732-.909-1.895-.135-5.61 1.831-4.044-1.124-7.643-.436-4.403 1.733-6.771 2.771-1.604.677-1.337-1.027-2.736-.602-1.786.506-.313 2.255-7.702 1.498.836-.114 1.669-.232 2.485-.354-.418-.461-.827-.923-1.244-1.385-4.23 1.107-3.834-.537-5.957 2.027-3.213-1.256-6.024-1.439-11.029-1.681-3.377-.182-5.272-.034-6.559.126-1.868.37-2.138.759-7.875-2.793-1.609.242-3.278.456-4.996.636-2.414-1.668.059-2.531-3.877-3.739 2.551 3.46-5.81.393-8.288 2.138-.005-.613-.008-1.225-.008-1.838a116.577 116.577 0 0 1-3.097-.983l-.455 1.335a159.318 159.318 0 0 1-4.063-2.57 62.191 62.191 0 0 1-4.104-.153 214.043 214.043 0 0 1-5.128-5.706 80.9 80.9 0 0 1-4.272-2.676c.106.888.225 1.777.357 2.666a86.05 86.05 0 0 1-5.782-4.635c1.745 2.503-.236 3.474-7.705-3.193-2.907-2.794-2.564-3.342-2.776-4.218-.176-1.019-1.098-1.917-5.98-8.714a55.296 55.296 0 0 1-2.388-3.735c-.515-1.064-1.652-1.433-4.566-8.125-1.362-3.366-3.309-9.286-3.429-17.46-.19-8.15 2.089-16.83 4.712-22.529 3.114-6.693 4.522-8.214 5.486-9.626.939-1.241 1.328-1.544 1.553-1.623.433-.127.071.913.805-.057.079-.105.274-.487.559-1.034.675-1.326 1.869-3.568 3.209-5.248 1.071-1.351 2.608-1.993 2.75-2.15.617-.716.098-1.603.959-2.554 2.185-2.41 5.328-4.745 7.23-6.538.882-.834 1.306-1.989 1.696-2.343.591-.533 1.94-.529 2.529-1.041 2.192-1.927 3.562-6.856 7.109-4.444-.319-4.596 6.654-4.223 4.792-5.973 2.206-1.243 5.26-3.809 8.331-6.269 5.068-4.058 9.668-7.555 10.987-5.249.554-4.849 1.816-2.52 2.887-3.35 1.176-.911.14-1.038 1.119-1.697 2.275-1.533 4.54-2.787 6.677-4.322.01.712.013 1.429.017 2.144 2.354-1.477.795-2.015 2.882-3.868 3.793-3.391 2.709-1.254 4.223-.476-1.019-1.066 3.771-4.4 4.324-4.598.343-.118.316 2.314 2.691-.314l-1.527-1.03c1.759-.347 4.381-3.755 5.021-4.038.294-.122 4.647 2.392 3.401-1.442l1.556.976a94.719 94.719 0 0 0 2.288-4.82c.892.61 1.789 1.215 2.688 1.817.373-.342.736-.68 1.095-1.017-.878-.456-1.752-.918-2.625-1.382 2.565-1.783 3.742-5.122 6.379-3.34a34.99 34.99 0 0 0-.198-2.37c.999.456 2.006.9 3.014 1.338a6.73 6.73 0 0 0 .383-.612c.798-1.452.395-2.019.387-3.635.62.537 1.238 1.076 1.853 1.618-.226-1.59-.037-3.729.443-4.815.246-.525 1.636-.716 1.589-.852.013-.246-3.671-2.795-.192-1.197-1.31-1.273-.135.376-.397 1.716-.2 1.087-1.254 1.46-1.425 4.102-.092 1.974.109 4.762 1.052 8.366.896 3.526 2.757 7.787 4.742 11.03 2.345 3.738 2.361 5.061 4.697 7.627 5.96 5.893 7.912 6.096 9.425 6.885 1.542.553 3.593 1.79 9.735 3.546.596.164 3.192 1.139 6.171 1.655 2.476.469 4.879.593 6.406.362 2.284-.316 3.26-1.907 3.147-1.867.041.019 1.303 2.183-.344-.253.19.428.376.859.557 1.291-.919 1.602-2.604.085-3.11.145-.081.022-.395 1.045-.877 1.144-.797.158-1.578-.693-1.771-.656-.665.123-2.558 1.58-4.549 1.394 1.762 2.617-3.041 6.348-6.008 3.908-.681 1.154-1.345 2.303-2.046 3.475-.743-.267-1.475-.539-2.221-.803-.008.667-.017 1.335-.028 2.004a354.5 354.5 0 0 0-6.432-.91l1.54 3.559c-.507.108-1.007.212-1.516.321a872.78 872.78 0 0 0-2.492-2.142c-.463.473-.912.938-1.375 1.41l.644 2.177c-2.603 2.374-4.361-4.692-7.247 3.896-1.184-.029-2.381-.054-3.568-.085.291 3.062-2.471 2.573-3.927 3.693-1.023.787-.437 1.755-1.98 2.582-1.545.825-1.983-.166-2.108-.11-.693.316-1.17.844-1.621 1.316-.393.412-.765.781-1.244.924-.155.047-1.087-.918-2.322-.388-1.233.526-1.351 2.11-3.263 2.767-.979.336-1.721-.503-2.58-.189-4.078 1.474-5.751 8.313-11.456 3.798-.311 1.056-4.013 5.904-6.212 6.686-3.405 1.21-2.644-.518-4.048-.161-.203.048-1.036.886-3.858 1.997-.506.198-.111.811-.179.85-3.264 1.373-9.904 3.445-13.644 4.752-.329.113-1.365 2.661-5.261 1.222-3.731 3.509-13.507 2.349-18.785 7.035-.83.316-2.086-.062-2.458.071-3.227 1.14-1.412 2.97-9.881 1.86.889.918-.647 2.349-3.298 2.88-3.969.773-1.622-1.871-4.763-1.016l.363 1.713c-5.104.011-7.367 1.131-10.589 2.274-1.684.587-3.607 1.167-6.336 1.5-2.902.365-7.278-.561-7.987-.52-.261.03-3.368 1.642-3.687 1.662-1.72.133-2.758-.477-4.246-.435-4.949.16-11.104 1.776-9.905-1.515a135.05 135.05 0 0 1-4.302 1.917c-5.05-3.844-9.622.495-10.389-3.079a96.877 96.877 0 0 1-3.263 1.7c-5.24-.875-10.646-2.054-16.442-3.82-5.892-1.879-11.826-3.831-20.438-8.879-4.271-2.723-9.762-5.872-16.96-14.771-3.486-4.434-7.29-10.869-9.422-18.599-2.196-7.687-2.31-15.947-1.323-22.121 2.173-12.561 5.996-17.983 8.239-21.976 2.398-3.873 4.098-6.052 5.423-7.815a246.964 246.964 0 0 1 4.797-6.081c-.409-1.333 5.23-7.631 5.65-7.816 1.868-.995 2.37 2.135 4.536-1.237a378.067 378.067 0 0 1-1.533-3.084c3.06-4.005 2.256-1.488 4.103-2.48.455-.7-.336-1.053.371-1.92 1.57-1.929 3.922-4.59 6.502-7.338 3.767-3.965 5.927-6.296 6.253-6.801.122-.172.684.355.714.32.07-.087-.758-.669-1.325.242-.637 1.106-2.3 3.899-3.2 9.239-.987 5.263.028 12.353 1.744 16.194 2.223 4.933 2.658 4.127 1.953 3.213-.677-1.082-2.213-2.944-3.803-4.723-.374-.42.188-1.149-.076-1.45-.365-.413-1.812-.707-2.227-1.17-.392-.435-.226-1.212-.662-1.692-1.998-2.218-6.077-4.018-7.651-7.868-.115-.316-.893-5.607-.83-5.86.457-1.463 4.654-1.075 1.33-6.3 5.23 1.725 6.01-1.794 1.492-7.255a1027.87 1027.87 0 0 1 8.856 5.305l.725-.897c-1.23-3.394-3.29-5.793-7.02-8.866l1.008-.574c4.48 1.183 8.675 4.02 12.66 4.09-2.525-4.299-5.207-8.626-7.94-12.972l1.084-.232c2.278.819 6.509 3.535 8.417 4.167 7.315 2.427-3.829-5.44-1.106-5.313 6.069 4.755 12.07 9.554 17.673 14.599 1.342-.86-19.97-21.843-17.723-24.373a1041.36 1041.36 0 0 1 6.25 3.905c-.315-1.373-.64-2.75-.96-4.123l1.233-.122A503.419 503.419 0 0 1 69.53 36.01C59.1 28.579 54.76 24.79 56.64 17.349l1.136.19c-.52 5.135 10.612 11.809 16.687 15.672-.313-1.935-5.788-5.014-6.33-6.408-.153-.402 1.41-.315 1.02-1.202-1.037-2.34-7.566-9.268-5.593-9.592 1.22-.276 14.155 8.096 16.556 10.267C75.514 20.354 70.038 15.55 65.81 9.749c5.194.385 10.385-.092 17.118 5.034 2.907.335-9.701-12.09-9.427-12.861 2.861 1.081 5.764 2.2 8.714 3.38a715.825 715.825 0 0 0-6.463-4.087l.517-.712c5.97 2.862 12.362 4.604 18.675 9.997.773-1.38-3.158-4.376-4.948-5.8Zm240.676 245.831c.501 1.196-2.369 1.774-3.96 2.173l.897.485c-3.451.697-9.914 1.814-9.567 4.288-2.377.901-1.807-1.472-2.654-1.52-.329-.021-3.241 1.974-6.153 1.055-.607.143-1.216.286-1.827.427l.174 2.475a478.268 478.268 0 0 1-3.195-2.353 445.525 445.525 0 0 0 26.285-7.03Zm-88.417 16.288c-3.296-.195-8.461-.608-7.291 1.563 2.113-.248 4.203-.511 6.274-.786.342-.259.678-.517 1.017-.777Zm2.314-126.578c-3.233-.758-4.354 2.021-8.016 3.543l.676 1.223c.893-1.75 4.982-3.116 7.34-4.766Zm156.936 76.76c.575-.037 1.148-.073 1.728-.112-1.187 3.144-2.196 1.642-4.488 2.787-.139.07.117.586.068.608-.566.26-1.351-.177-1.876.037-1.018.414-1.587 1.383-3.409 2.056-1.406.516-1.822-.502-2.301-.289-.402.184-3.508 4.607-6.685 4.408-5.985-.376 15.43-9.125 16.963-9.495Zm15.36-3.686-1.418.571c.843-2.128-1.974-.784-4.125.08-.509-1.541 4.298-2.64 6.106-3.831-.18 1.057-.368 2.117-.563 3.18Zm-65.36 20.542c2.03-.852 2.325 1.18 2.431 1.78-.663.223-1.33.446-1.995.667l-.436-2.447Zm15.22-6.02c-.164 1.521-4.389 3.663-6.475 4.504-.092.032.241-.882-1.232-.296-.434.178-4.004 4.296-4.026 1.013a697.672 697.672 0 0 0 11.727-5.219l.006-.002Zm4.713-.843c-.68.707-1.357 1.412-2.041 2.118-.649-.451-1.296-.903-1.943-1.356a738.69 738.69 0 0 0 2.659-1.481l1.325.719ZM41.147 94.996c-.67-.277-1.34-.552-2.011-.827-.897.391-1.263 5.554.037 4.892a280.44 280.44 0 0 1 1.974-4.065Zm12.822-12.025c.396-.177.794-.354 1.193-.53.446-.196.885-.384 1.318-.564a79.993 79.993 0 0 0-.659-4.35c-1.068.705-2.262 1.512-3.27 2.386-1.908 1.657-2.85 3.242-.879 4.434-.676.717-1.347 1.435-2.015 2.158-.482-1.576-.903-1.827-3.328-.52 1.081 1.76-1.471 3.056-3.172 5.668a285.368 285.368 0 0 1 4.725-4.761l.775.709c-3.415 3.575 2.332.509 3.521-2.758.512.136 1.024.273 1.535.411.084-.763.166-1.52.256-2.283Zm182.205 21.496c.517-.081 1.031-.164 1.544-.25-2.456-3.563-1.381.142-4.205.448a3.994 3.994 0 0 1-1.104-.07c2.58 1.249.232 3.723.192 4.01.955.336 1.921.657 2.885.975.177-.966.336-1.932.445-2.86.102-.763.177-1.507.243-2.253Zm8.366-6.806c-2.44-.142-.304-4.944-.005-4.83.148-.07 1.376.17 1.208.214a7.407 7.407 0 0 0-1.407.013c.819.252.555.322.413 2.9-.038 1.257.071 3.423 1.03 6.159.903 2.711 2.909 5.833 4.718 7.746 1.124.246 2.243.403 3.329.464 2.743 2.27 5.705 3.583 7.924 4.279a36.358 36.358 0 0 1-.468-1.902c1.092.775 1.968 1.391 2.863 1.955.352.251.685.489.997.717 1.84.406 1.671-.265 1.786-.832.033-.578.106-1.13.462-.685.669.998.131 3.017-.195 4.271-.539-.064-1.448-.104-3.319-.405a26.445 26.445 0 0 1-8.941-3.15c-3.551-1.978-6.55-5.075-8.054-7.141-1.259-1.741-1.61-1.345-2.592-2.568-.845-.943-2.634-4.98-1.694-8.76-.738-1.416-1.276-2.372-1.811-3.063 1.051-1.076 2.055-.875 2.852-.308a97.544 97.544 0 0 1-2.39-.557c-.065-.151 1.152 1.826 1.695 2.083-1.709.029-2.656 1.388-3.856 3.2.271.406.536.821.794 1.244.305-2.329.758-.336 1.822-.458.616-.073 2-.575 2.839-.586ZM22.851 125.88c1.261-5.312 2.137-7.011 2.663-8.333.545-1.235.873-1.724 1.26-2.202.72-.85 1.985-2.133 4.309-5.311a46.918 46.918 0 0 0-3.571-.456c-.452 2.311-2.376 5.304-4.067 9.291-1.7 3.875-2.562 8.622-.6 7.034l.006-.023Zm37.593-54.465c.757-.103 2.331.623 2.05 1.886l-.002.002c.593-.578.809-.814.717-.36a80.57 80.57 0 0 1-2.765-1.528Zm125.822 86.394c3.357-.977 2.395-1.448 5.932-1.244 3.428-3.743-.056-1.848-.798-3.492a378.66 378.66 0 0 1-2.259 2.757c-3.046-.49-1.152-2.261-1.221-2.409l-.006.003c-.22-.495-.191-.632-1.224-.531a484.076 484.076 0 0 1-.424 4.916Zm12.487-8.139c-.549 1.583-.38 3.208 2.757 2.57l.006-.003c-.926-2.522 2.683-1.855 3.822-2.612l.575-1.251c-2.385.448-4.771.88-7.16 1.296Zm43.545-25.356c1.408 2.601-.568 3.982 3.69 4.787l1.64-1.058c.068-.772.134-1.543.197-2.311 9.555 1.027 7.58-8.273-3 1.202l-.002.008a778.915 778.915 0 0 0-2.525-2.628Zm-13.054 7.337c.639 1.419 1.275 2.839 1.915 4.258-3.449-2.398-3.959 1.934-8.559 1.378l-.258 1.736c-1.019-.152-5.814 1.961-8.87 3.846-2.12 1.312-3.375 2.526-1.798 2.833.901.175 1.892-.493 2.648-1.163.656-.578 1.135-1.156 1.246-1.196.813-.285 2.415.391 3.658-.341.714-.423 1.544-2.623 3.025-3.399 3.323-1.735 11.316-1.248 13.611-7.024.521.25 1.054.495 1.578.743 2.961-1.927 1.237-2.681 4.931-2.668-1.486-7.58-11.45 6.607-11.454-.189l-.005.003-1.668 1.183Zm-94.525 42.211c-.546-1.214-4.597 1.895-4.28-1.453a153.979 153.979 0 0 1-3.747 4.268l.225.857a188.941 188.941 0 0 0 4.355-1.722l.349 1.36c1.878-2.143 11.035-3.922 11.223-2.285.283-.812.567-1.625.836-2.436 4.802.55 7.778-2.538 12.855-2.32.156-.668.312-1.336.465-2.003.379.363.758.726 1.139 1.088 1.651-.518 3.28-1.042 4.91-1.58 4.551-3.69-6.389-2.249-7.546-1.598-.153.094.276 1.228-.702 1.765-1.705.988-12.513 3.171-15.664 4.82l-.736-2.298a193.998 193.998 0 0 1-3.682 3.537Zm124.658-54.805a225.17 225.17 0 0 1 1.56 1.975c2.529-2.094 4.268-2.008 2.593-4.245l-.004.002a150.108 150.108 0 0 0-4.149 2.268Zm-2.752 133.376c-.278-1.606-2.246-2.008-4.622-.602l.499 1.373c1.164-1.508 3.027.736 6.978-.015l-.266-2.439c-.86.562-1.722 1.123-2.589 1.683Zm.011-132.437c-1.374-.4-2.715 3.566-.897 2.804 1.367-.57 1.626-2.586.897-2.804ZM61.252 81.32a10.21 10.21 0 0 1-.92-2.003c.64-.493 1.303-.957 1.986-1.351a.08.08 0 0 0 0 .005c-.488 1.112-.817 2.312-1.066 3.349Zm114.11 81.245c2.923-1.3 5.815-2.625 8.688-3.978l-.453-1.287c-2.26 2.779-4.145 1.628-4.867 1.814a.036.036 0 0 1 .009-.004c-2.331.587-4.532 1.202-6.831 1.538 1.146.644 2.301 1.281 3.454 1.917Zm-11.26 1.333c1.626 2.808 2.465 2.918 6.227-.975l-.976-.889c-2.274 1.144-3.414 2.362-3.588.641-.553.409-1.103.815-1.663 1.223Zm45.594-18.966c-.967-.652-4.607 2.284-4.163 2.636.18.147 6.066-1.345 4.163-2.636Zm81.781 101.785a361.243 361.243 0 0 1-3.3-.106 414.387 414.387 0 0 0 4.022-1.807c-.24.638-.48 1.276-.722 1.913Zm10.604-6.804c.832.234-.983 3.592 3.642 3.325-3.232.79-6.478 1.543-9.736 2.257a441.813 441.813 0 0 0 4.304-2.313c-.436-.755-.874-1.508-1.308-2.263a399.87 399.87 0 0 0 3.098-1.006Zm3.92 1.291c-2.208-1.729 6.847-4.01 7.742-3.984.204.016 1.499 1.404 1.917 1.667-1.369.346-2.744.687-4.122 1.021.584.397 1.17.793 1.754 1.188-1.572.569-3.15 1.13-4.734 1.682.574-.673 1.151-1.347 1.718-2.022-1.426.157-2.847.306-4.275.448Zm-37.1 7.165a390.73 390.73 0 0 0 3.57-.315c-.35-.777-.697-1.554-1.043-2.332-.702.096-1.409.192-2.111.284-.138.788-.275 1.576-.416 2.363Zm23.791-4.908c-.98 4.202-7.177-3.408-1.196-1.281.604.214 1.284.876 1.196 1.281Zm24.556-6.64c2.823-3.699 3.63 2.646-.205 1.715-.194-.052-.007-1.442.205-1.715Zm26.29-7.698c.282-.069 1.417 1.728 3.472-.999l1.536.233c-.574 1.008-6.321 3.413-8.237 3.069-.463-.081-.697-.32-.575-.773.102-.034.202-.07.3-.106 1.208-.45 2.195-1.066 3.504-1.424Zm-10.796-4.596c-1.307.452-2.605.896-3.917 1.336.615.491 1.235.98 1.854 1.468-.605.36-1.212.719-1.817 1.076a429.087 429.087 0 0 1-4.262-2.245 446.631 446.631 0 0 0 8.459-3.018l-.317 1.383Zm-35.907 7.532c2.767.244 5.769-1.282 9.992-2.133l.007.004c.212-.04.787.732 1.468.606.602-.073 11.626-3.892 11.128-2.242-4.023 2.458-6.168.876-6.412 4.371-.385-.628-.769-1.255-1.152-1.884-4.506-.144-5.146 2.488-7.35 3.907l-.323-1.554c-1.602.31-3.21.61-4.822.902.298.292.597.583.897.874-.568.123-1.135.244-1.701.364-1.71-1.24-3.516-1.242-1.732-3.215Zm42.135-8.535c.027-4.181 12.551-5.399 17.527-8.079-1.963 3.253-6.826 3.163-9.883 4.151-5.926 1.908-1.38 1.965-2.182 2.912-.4.471-4.561-.889-5.462 1.016Zm-51.531 11.094c3.152-.252 4.699-1.497 7.653-.592l-.497.997c-.968-.058-8.603.518-7.156-.405Zm77.096-20.928c-6.064.655-2.092 3.085-5.915 1.556a782.96 782.96 0 0 0 5.558-2.543l.357.987ZM244.253 109.367c-2.153 1.018-4.86 1.63-5.422 3.647a558.05 558.05 0 0 1 4.643-1.669c.263-.662.523-1.321.779-1.978Zm18.416 10.798c.641-.249 1.045-2.69 1.169-2.884.243-.358.613.034.731.106 1.5-2.439-1.304-1.145-.48-3.077.163-.309 3.36-4.086 4.148-5.937 1.281-2.762 2.439-5.613 2.742-6.698.561-1.86.272-5.63-.047-8.313-.139-1.09.759-1.697.29-2.81-.674-1.58-2.393-2.853-4.71-2.875-8.119.278-18.061 6.81-23.412 8.768-1.718.692-3.88.362-4.716.915a582.3 582.3 0 0 1-1.408 2.328c-4.074-2.634-3.031 1.074-5.111 2.636-1.313.987-2.597.256-2.781.359-1.262.708-1.629 1.585-2.578 2.211-1.079.708-2.97 1.089-3.326 1.398-.216.194 1.37 1.232-3.037 3.577-4.486 2.385-9.016 4.61-13.648 6.933 3.864 3.659 3.593-.086 5.382-1.241.479-.309.535.565.955.302 1.193-.739 3.178-2.689 4.29-3.071 1.196-.41 1.688 1.428 2.766.072.054-.069-.531-.622-.264-.912 2.685-2.884 4.396-2.301 8.556-4.508 2.755-1.525 19.062-10.941 19.876-10.623 4.11.854-13.292 9.758-15.461 10.799-.757.324-.404-.825-1.132-.617-.303.089-2.031 2.851-4.438 4.307-2.904 1.758-9.46 4.051-12.32 5.611a416.237 416.237 0 0 1-11.376 6.009c-21.198 10.716-43.094 19.678-66.141 26.65-.574.171-1.077 1.332-2.982 1.876-7.198 2.044-14.596 3.767-22.226 4.909-9.796 1.456-19.823 1.936-29.902 1.114-10.1-.972-20.063-2.484-30.22-8.064-1.875-1.14-3.85-2.443-5.761-4.824-1.954-2.255-3.235-6.532-2.61-9.692 1.274-6.232 4.011-8.862 6.01-11.895a247.433 247.433 0 0 1 6.241-8.226c4.736-5.985 9.192-12.179 14.884-17.37.398-.363.804-.722 1.21-1.07.197-1.21.388-2.41.558-3.597-.655 1.074-2.079 2.165-3.414 3.074-1.36.927-2.583 1.621-2.745 1.775-.114.11-.225 1.38-1.352 2.532-1.58 1.625-2.755 1.908-2.88 2.044-.39.428.407.638.036 1.045-2.767 3.038-4.684 5.59-7.085 8.509-2.698 3.299-5.118 4.194-5.82 7.594-.679-.071-1.361-.135-2.041-.201.087.497-.018 1.152-.267 1.925-.657 2.46-3.16 5.126-5.135 11.875-1.048 3.396-.19 9.051 1.994 11.94 2.046 3.001 3.997 4.34 5.332 5.338 1.12.786 1.301 1.243 1.414 1.646.072.311.064.546.369.719.429.177.974-.762 5.773 1.547 2.419 1.093 2.736 2.193 4.002 2.573.688.195.848-.767 1.811-.483 5.51 1.577 9.932 2.676 15.308 3.487 1.514.216 1.45 1.015 1.79 1.039 1.275.083 3.544-1.088 6.681-.96 5.19.315 15.437-.169 19.672-.055.623.031 1.26.934 1.706.866.682-.108.824-1.149.943-1.169 2.291-.321 1.036.798 2.535.355.418-.125.805-.527 1.343-.946.494-.39 1.115-.794 2.02-1.012 2.458-.603 2.212.825 3.235.495.107-.042-.037-.984.966-1.213 3.83-.856 9.264-2.383 12.787-3.342 1.01-.273 1.933.14 3.351-.251 2.909-.658 18.576-6.322 19.929-6.537.148-.013-.758 1.819 1.442.966.439-.787.876-1.574 1.309-2.363 1.396.477 2.797.947 4.208 1.407-1.192-2.999 4.816-5.921 6.004-2.841a358.11 358.11 0 0 0 2.195-.464c.54-2.701 1.806-2.308 3.984-4.699.698.465 1.397.928 2.098 1.39l-.238-1.426c2.452 1.705 3.798-1.673 4.071-1.811 1.075-.539 2.163-.321 2.669-.572 1.898-.923 5.657-3.635 8.047-4.316.113-.03.474.999 1.164.82 1.246-.325.668-1.806 2.993-.856.103-.569.206-1.138.307-1.707l1.289.182a565.365 565.365 0 0 0 5.552-3.157c-.91 2.505 1.546 2.429 2.776.187.414-.759-.654-1.47-.519-1.728.029-.056.275-.198.67-.398 2.106-1.051 8.367-3.757 9.109-3.47.235-.521.468-1.042.699-1.563l1.589 1.548.307-.999c2.774-.064 7.033-5.588 8.147-5.937.599-.188 1.536 2.717 3.982 1.045l-.908-2.32c.538-.425 1.06-.842 1.603-1.27 1.15-.539 3.429-.148 3.949.682.068-.703.134-1.404.199-2.105 1.838 1.175 6.431-2.058 7.833-4.153.85.204 1.691.414 2.523.63.452-1.024.904-2.045 1.348-3.058 1.705-1.106.333.899.76.79.897-.244 4.102-4.022 4.906-1.68.553-.261 1.094-.514 1.653-.771-.016-.766-.032-1.531-.046-2.296 1.957 1.761 3.247.185 6.747-.253.061-.62.124-1.239.188-1.856 1.26.371 2.448.8 3.492 1.312-.091-.933-.172-1.867-.241-2.803.333-.23.683-.457 1-.665 1.146 1.837 1.76-.478 2.067.373.088 1.256.407 2.657-.46 3.064.089.633 1.033.838.256.87-.519-.001-2.089-.352-3.545-1.497a7.874 7.874 0 0 1-2.341-2.907c.321-.02.641-.049.961-.086.764 2.085 3.964 3.898 4.782 4.045.494-1.858.407-2.491-.204-2.967-.659-.369-2.45-1.748-2.471-2.53-.078-.142 1.037-1.532 1.044-.763.014.22-2.226 1.77-2.458 2.133-1.781 3.064 1.85 1.46-1.957 4.245 2.168-.04-.185 1.507-1.069 4.018-.092.398-.665 4.651-.82 4.923-.699 1.589-1.175-.932-2.14 1.382.224.503.442 1.011.654 1.525-.335.489-.67.965-1.014 1.444-5.43.399-3.52 2.811-4.036 4.076-.209.497-.612-.704-1.298.464l-.012.023c-.232.44.069 1.438-.787 2.49-2.786 3.356-6.521 1.624-6.645 7.32-.856.011-1.712.017-2.562.013.168.796.33 1.597.485 2.401-3.77.687-1.519 1.437-2.417 2.206-2.365 2.041-7.615 5.856-9.11 4.9.286 4.708-5.004 3.346-5.754 4.113-.222.761-.448 1.522-.677 2.284-.886.089-1.773.176-2.659.259 2.569 2.784-2.811 2.193-3.148 2.368-.374.216-4.612 4.714-6.484 6.029-1.858 1.317-5.684 2.796-5.977 3.001-.322.231-2.911 3.33-5.422 5.103-1.052.744-4.818 2.999-8.253 5.3-3.738 2.498-7.016 5.041-6.061 5.407 1.125-.272 2.578-.861 3.768-1.474.684-.351 1.945-1.121 3.59-2.153 7.009-4.386 20.535-13.166 24.472-15.845 9.825-6.552 19.433-14.122 28.046-21.794.506-.452 1.255.181 1.69-.208.669-.601 1.564-2.869 2.175-3.472 1.819-1.761 3.877-3.862 5.18-5.316.365-.405.673-.757.909-1.035 2.441-2.898 4.437-4.671 6.103-7.016.542-.736 1.887-5.178 3.591-7.613.487-.374.965-.75 1.435-1.128-.293 1.54-1.517 5.638-2.509 7.378-1.429 2.587-2.998 3.405-3.604 4.29-.492.761-2.611 5.035-4.027 6.682l-.027.031c-.434.456-1.27-.078-1.631.342-1.995 2.339-4.813 5.286-6.072 7.897.582-.986-4.885 3.318-5.175 3.537-.461.416-.331 1.589-1.293 2.434-1.868 1.63-2.915-.105-3.98 3.416-.962.044-1.923.083-2.88.115 1.67 2.128-8.134 5.312-8.385 9.529.19.378 10.789-6.637 11.588-7.323 5.065-3.742 11.494-10.453 15.928-14.567.784-.709 2.837-2.087 4.421-3.237 1.152-.836 2.055-1.523 2.166-1.68.408-.583-.717-.663-.553-.922 3.232-5.307 2.822-1.768 3.767-2.104Zm40.527 108.708c-1.935.327-3.881.641-5.82.939l.051-1.808c.921.037 1.85.069 2.77.1.597-.489 1.197-.981 1.788-1.473.402.748.806 1.495 1.211 2.242Zm4.139-3.484c1.576-.682 1.947.496 2.341.463 1.178-.1 2.038-.829 3.138-1.09-.542 3.167-3.593 2.534-5.479.627Zm-34.484 5.588c.391.085 3.406 2.836 5.808-.533 2.291.574 4.587 1.129 6.903 1.661-3.893-.741-8.698 1.529-10.512 1.741-.686.082-.956-.859-1.504-.794-3.137.388-5.916 2.966-6.65-.178 3.091.54 5.454-1.998 5.955-1.897Zm18.952-2.106c.628.561 1.252 1.121 1.883 1.678-1.795.362-3.6.713-5.402 1.051.362-.759.722-1.519 1.08-2.279.815-.148 1.624-.297 2.439-.45Zm-134.476-31.04c-.847 1.459-1.836 3.185-2.437 6.037.467-.17 1.296-2.913 1.97-3.438l-.005.01c.724-.657 1.128-.097 2.048-1.192-.528-.468-1.056-.937-1.576-1.417ZM74.791 93.277c.616-.629 3.808-3.872 5.754-6.899 2.037-3.07 2.408-5.596 1.415-5.47-.828-.019-2.117 3.798-3.155 4.984-1.076 1.494-6.324 4.308-4.014 7.385Zm9.327-19.347c-.856.241-.778 1.9-1.003 3.217-.164 1.319-.595 2.769-.56 3.132.28-.04.88-.068 1.052-.208 1.033-.747.815-4.53.511-6.141Zm125.402 85.988c-1.209-.24-2.428-.475-3.639-.716.86.824 1.721 1.646 2.583 2.468.356-.586.706-1.169 1.056-1.752Zm55.167-56.357c1.353-3.09 2.36-6.39 2.439-8.961.062-1.255-.24-2.196-.33-2.28-.069-.034.209-.053-.675-.19-3.57-.267-10.266 2.423-15.763 4.964a118.19 118.19 0 0 1 2.695-2.816c4.486-1.86 9.846-3.716 13.178-3.407 1.048.138 1.298.374 1.551.69.273.338.6 1.3.638 2.56.097 2.546-.634 5.688-1.547 8.629-.729.296-1.456.56-2.186.811Zm3.385 122.772c-2.95.385-5.448 1.257-8.484 1.092a13.612 13.612 0 0 1-2.255-.316 8.387 8.387 0 0 1 2.141-.7c2.444-.451 4.345.266 7.032-1.634l.006-.001a382.2 382.2 0 0 0 1.56 1.559Zm-82.581-.135a115.92 115.92 0 0 0 3.891-1.618c-1.337-.29-2.639-.593-3.974-.932.021.849.049 1.699.083 2.55Zm-9.371-96.278c-2.77 3.212-13.017 4.003-15.103 7.105-.139.206 1.929.365-.226 3.1 1.988-1.165 3.328-2.105 2.969-3.448.799.182 1.594.364 2.395.541.899-.751 1.792-1.505 2.682-2.262.419 1.313.476 1.213 1.686-.321.853.016 1.708.029 2.564.039.075-.665.148-1.33.219-1.995.941.479 1.886.954 2.834 1.427 2.061-1.872-.049-2.666-.02-4.186Zm12.265-5.271c-.646.054-16.374 8.257-7.905 7.44a494.86 494.86 0 0 0 5.624-2.869c-3.489-3.375 3.394-2.121 3.865-2.249 2.222-.568 4.328-2.794 5.811-3.464 1.276-.574 2.386-.218 3.259-.678.993-.523 2.185-1.145 3.315-1.815 2.262-1.34 4.291-2.881 4.141-4.212a551.371 551.371 0 0 0-4.996 2.529 265.2 265.2 0 0 0-2.088 1.085c-2.543 1.331-5.556.864-9.352 5.382-1.314.338-1.496-1.148-1.674-1.149Zm4.282 100.793c-.512 1.855 6.407 2.582 6.535 1.818.081-.427-2.124-.764-2.404-.982l-.006-.001c-.118-.093.656-.696-.331-1.064-1.269.089-2.532.167-3.794.229ZM59.997 115.76c1.098-.097 10.495-11.07 14.031-15.054.714-.842 1.147-1.403 1.158-1.54.016-.217-.479-.375-.625-.61-.29.565-.641 1.12-1.036 1.663-2.778 3.806-7.716 7.192-10.468 10.227-.876.966-.05 1.159-.088 1.224a.04.04 0 0 1-.006.007c-.478.549-4.038 1.93-2.967 4.083Zm95.081 24.477c.94-.037 1.873-.075 2.813-.12.003-.626.004-1.252.005-1.878l-.006.002c-.936.67-1.868 1.334-2.812 1.996Zm-29.929 7.428c.307.348.616.695.927 1.041a215.37 215.37 0 0 0 6.556-1.574l-.468.855c3.451-.329 4.382-2.132 6.173-2.465a.014.014 0 0 1-.006.002c.192-.034.67.715 1.37.525 1.618-.425 6.236-1.625 6.501-2.635.556-2.105-8.205 1.713-9.959 2.103-.778.195-1.922-.25-2.394-.131-.52.133-.93 1.307-2.207 1.632-.378.102-4.756.052-6.493.647Zm-39.146 5.576c.655.957 2.161.106 2.683.266.129.038-.89.794.322 1.049.353-.523.709-1.048 1.05-1.574-1.355.109-2.703.196-4.055.259ZM204.168 226.3c-.152-.177-2.893-.457-3.772-.509-.144-.007-.239-.004-.266.01-.767.425-.542.811.103 1.086 1.43.619 4.777.534 3.935-.587Zm90.687-10.154c-2.116-1.962 17.553-4.061 19.363-4.806.306 1.522-4.636 1.199-1.721 2.635-2.566-.524-8.719 1.614-10.294 1.619-.947.01-1.476-1.239-1.621-1.249-.561-.018-4.969 2.534-5.727 1.801Zm35.322-8.278c-1.885.271-3.762.527-5.641.771 2.07-.787 4.137-1.591 6.194-2.409l-.553 1.638Zm2.045-1.366c-.066-.186-.012-.361.135-.528.961-1.088 5.952-1.829 7.236-2.575-.964 2.914-4.498 1.781-7.111 2.975-.088.04-.174.083-.26.128Zm-104.033 16.183c-2.939-.854-4.027 3.752-.55 1.615.106-.071.675-1.569.55-1.615Zm-55.487-98.275c-.466.187-6.673 1.251-6.717 2.052-.127 2.592 3.221.16 4.812.426 2.574.437.099 2.817 4.652-.136l-.032 1.55c2.938-1.137.668-3.678 1.009-4.287.105-.185 1.995-.742 2.229-1.078 2.907-4.195-5.512 1.331-5.953 1.473Zm-5.845 80.905c1.692-1.894 2.09-2.548 2.277-3.477.207-.772.434-1.765 2.255-3.701-.314-.436-1.911 1.149-3.129 3.04-1.203 1.789-1.764 3.763-1.403 4.138Zm57.068-104.604c-5.131 3.237-10.098 4.403-14.208 8.631 1.642 2.311 15.92-8.736 14.208-8.631ZM87.676 56.504c2.314 4.046 4.758 8.286 6.228 13.406 2.218 6.955-.068 14.867-3.895 20.062-3.756 5.408-8.344 9.685-12.518 14.087-6.079 6.369-11.713 13.118-16.928 19.838-1.64 2.122-2.666 1.668-3.16 2.52-.32.556.457 1.001-.042 1.681l-.326.446c-1.986 2.732-4.01 5.685-4.258 7.782-.324 1.715 1.221 3.332 3.936 4.876 7.622 4.066 17.18 5.56 26.234 6.138 9.172.529 18.344-.076 27.407-1.44a190.327 190.327 0 0 0 11.445-2.113c1.774-.321 10.988-.815 11.994-4.168.759-2.493-4.893.931-5.932 1.164-.78.194-1.075-.79-1.588-.658-.543.138.082.7-.547.873-2.677.745-5.675 1.165-8.094 1.731-2.516.59-5.028 1.109-7.531 1.543-9.071 1.572-18.234 2.123-27.238 1.463-8.868-.682-18.243-2.495-25.068-6.364-1.118-.661-2.038-1.4-2.446-1.914-.41-.574-.283-.399-.298-.702.17-.912 1.058-.669 1.035-.659l-.004-.005c.498-1.302 1.921-3.479 3.471-5.696 5.75-8.275 12.283-16.986 19.604-24.723 2.633-2.784 5.47-5.546 8.255-8.531 2.993-3.21 6.036-6.845 8.06-11.728 2.093-4.819 2.305-11.17.426-16.27-1.727-4.887-4.332-8.67-6.999-12.153a90.625 90.625 0 0 0-1.222-.486Zm97.852 65.231c-2.688-2.164-1.655.83-7.106 1.933-.181.663-.364 1.327-.549 1.991a493.43 493.43 0 0 0 7.664-3.928l-.009.004Zm-33.303 12.935c-2.296-3.566-12.546 3.221-17.973 3.945-.338 2.319 6.882-.92 8.694-1.334.905-.183 6.335.232 9.477-2.228l-.198-.383Zm121.408 79.134c-.842.254-1.687.506-2.53.755 2.225.138 4.458.256 6.696.352-3.498.281-6.994.511-10.488.69.524-.949 1.046-1.899 1.561-2.851 1.58.362 3.167.713 4.761 1.054Zm-11.12 2.007c6.009-1.101-.013 2.028-1.663 1.174-.978-.508 1.048-1.061 1.663-1.174Zm-15.997.225c2.693-1.78 8.41-2.494 6.692.751-3.224-1.098-5.091.289-9.616-.125l1.787-1.922.009-.001 1.128 1.297Zm18.518-2.407c4.181 1.228-7.345 2.089-3.884.492.162-.068 3.722-.533 3.884-.492ZM98.552 87.611c-.638-.96-2.358 2.952-3.14 3.99-3.163 4.853-7.249 9.783-10.679 13.125.487-.031.976-.065 1.467-.103 4.183-4.433 9.041-9.229 12.352-17.012Zm-23.655 27.512a241.475 241.475 0 0 0-6.09 7.058c-.188.226-.384 1.809.413 1.167a236.979 236.979 0 0 1 5.677-8.225Zm125.986-7.676c-2.411.627 2.471-5.139 3.612-2.288a810.481 810.481 0 0 1-3.612 2.288Zm19.532-11.818c-1.228.996-2.448 1.987-3.663 2.975l-.508-.926 4.171-2.049ZM99.631 68.297c-.154 2.645 1.113 8.663.396 12.484 1.579-2.47.505-9.175-.396-12.484Zm67.961 53.646c.512.7-8.425 4.204-5.91 1.593 1.97-.515 3.94-1.046 5.91-1.593Zm-18.448 6.098c1.85-.876 3.42-1.179 3.489.175-1.032.335-2.069.666-3.104.991l-.385-1.166Zm86.406 86.456c-3.446.363-6.868.68-10.291.931l.338-1.07c3.283-.248 6.578-.557 9.89-.909l.063 1.048ZM101.359 64.239c-1.819-3.292-3.834-5.856-5.852-8.142 1.648 2.567 3.254 5.375 4.591 8.746l1.27-.598-.009-.006Zm180.484 139.995c-10.511.192 2.198-3.785 5.336-2.004l.008-.008c.277.162-.02 1.273.454 1.603a370.795 370.795 0 0 1-3.39-.762c-.841.75-1.684 1.498-2.535 2.242-.355-.166-.709-.334-1.062-.502l1.189-.569Zm40.691-10.78c9.141-2.586.587 2.761-4.513 2.081-.091-.46 3.671-1.842 4.513-2.081Zm-23.834 6.907c-1.398.565-2.8 1.121-4.207 1.67l-.747-.742a357.934 357.934 0 0 0 3.15-1.603c.6.226 1.203.451 1.804.675Zm-48.832 3.36c-2.429-.082-5.192 3.505 2.472 1.846l-.123-1.049c-.304.089-1.174.513-1.226.491-.151-.072-.105-1.258-1.123-1.288Zm86.479-24.412c.214-.215-.854-3.767 3.036-1.044.724-.497 1.447-.996 2.17-1.496.476.7.954 1.4 1.431 2.099-3.315.486-3.103 2.156-3.318 2.269-.983.501-.494-.567-1.164-.35-1.73.566-5.448 2.407-4.449-.487.36-1.037 2.081-.777 2.294-.991Zm-6.69-.002c.468.174-.395 1.596-.02 1.797.324.18 4.394.006 3.964 2.079-.637.13-1.277.259-1.914.386-.364-.41-.727-.82-1.089-1.231-.447.634-.899 1.267-1.349 1.899-1.379-.859-3.972-1.722-1.774-3.482-.878.391-1.76.779-2.634 1.162l-.027.012-.907 2.147c-.016-.942-.034-1.884-.053-2.826l.706-.232a455.636 455.636 0 0 0 5.097-1.711Zm28.894-9.818.148 1.443c3.134-2.094 8.381-4.442 6.374-.543a1154.23 1154.23 0 0 1-13.737 5.882l-1.286-.657c3.932.015.881-5.015 4.463-4.567.606.074-.173 2.516 2.579.119l-.833-1.195c.766-.16 1.525-.319 2.292-.482Zm30.11-10.774c-6.286 1.697-.254-2.459 1.394-1.568l-.006.002c4.459 2.45-2.821 3.233-3.201 3.409-.52.237-.762 3.311-5.096.64 2.287-.823 4.588-1.651 6.909-2.483Zm-19.753 6.865c.463-.275.441.49.651.398l.005-.002c3.105-1.346 10.465-4.867 12.113-3.061-2.308 1.1-12.664 5.611-13.842 4.394.358-.576.717-1.153 1.073-1.729Zm-21.572 9.83c-2.421-.7 1.84-2.435 3.211-2.21.268.06-.698 2.934-3.211 2.21Zm-145.573 20.071c-3.996.214.924 1.959-1.075 3.025.772.012 1.544.018 2.325.02-.424-1.013-.857-2.031-1.25-3.045Zm61.711-140.083c-3.349.055-1.639.807-1.947.834-1.926.152-3.673-.248-4.251-.072-5.371 1.76-5.396 2.536-5.048 2.778.431.262 2.059.076 2.131.149.374.776-1.771 2.286 1.764 2.445 2.081-.749 4.374-1.465 7.573-1.928 1.516.382 3.333.841 5.15 1.461l.122.039c5.632.114 3.031-.667.007-1.51-1.49-.422-2.962-.77-3.353-1.24-.485-.526 6.847-1.095-2.148-2.956Zm-67.69 136.069c-.852 1.32-2.653 2.799-1.649 4.556l.005.002c.19.323 1.198.701 1.452 1.142 2.789-1.428 2.15-3.61.192-5.7Zm108.03-79.966c-1.352 3.181-2.803 5.904-4.303 8.416l-2.359-1.214a69.266 69.266 0 0 0 2.446-4.062c-.182-.661-.356-1.358-.545-2.037-1.634 1.615-3.271 2.981-4.917 4.229a98.227 98.227 0 0 1-1.8 6.133 65.75 65.75 0 0 0 2.554-1.934c-1.88 4.843-3.273 2.827-5.98 5.86.013 1.569-.016 3.158-.066 4.732a91.075 91.075 0 0 1-5.28 3.321c-1.542 2.748-1.239 3.346.792 2.21-.087 1.913-2.471 2.247-3.311 3.978-.071.143.898.549.82.664a31.278 31.278 0 0 1-1.842 2.394c-4.332 4.971-5.702 3.22-6.656 4.125-.763.713-2.344 4.853-1.968 5.323.482.644 8.949-3.066-.62 6.356 6.56-3.026 10.594-10.853 4.568-9.21.984-.76 3.33-3.516 5.276-6.084 1.577-2.065 2.846-3.917 3.063-4.122.71-.669 1.489.364 2.268-.602.466-.625-.675-3.646 4.659-7.2.028-.901.031-1.775.044-2.682.708-.409 1.412-.826 2.112-1.251a123.8 123.8 0 0 1 1.09 6.028c1.992-5.77 6.977-9.221 6.583-14.065 1.736-3.182 2.653-4.985 3.163-2.948.44-1.101.853-2.199 1.27-3.397-.34-.985-.7-1.951-1.061-2.961Zm-116.44 79.653c-.133-1.55-1.445 1.071-1.493 1.239.052 1.062 1.665-.394 1.493-1.239Zm93.066-131.32c6.294 2.912 12.655 9.016 15.638 15.052 3.118 6.052 3.729 11.235 3.792 15.195l2.786-.293c-.554-4.19-1.712-9.57-5.375-15.62-3.528-6.04-10.375-11.861-16.841-14.334Zm-77.776 133.668c.073.72.149 1.442.23 2.163.759-.617 1.42-.741 2.047-.612.976.238 1.892 2.061 2.607 1.582.212-.147-.077-1.413-.408-1.713-.112-.1-1.223-.507-2.054-.848-1.166-.354-2.221-.65-2.422-.572Zm97.926-9.494c-.782.678-1.561 1.352-2.351 2.025l-.404-2.332c.406-.249.813-.498 1.216-.747.511.352 1.024.704 1.539 1.054Zm-9.911 3.595c-1.619.288-3.235.564-4.853.829 5.97-1.98.881-1.272 4.366-3.066l.487 2.237Zm-16.544 1.578c.119-.496.237-.993.354-1.49 1.601-.273 3.195-.557 4.793-.853a359.492 359.492 0 0 1-3.879-4.273c-.577.097-1.155.193-1.734.288.159 2.109.314 4.218.466 6.328Zm-69.188-113.73c-.948.48-3.504 3.48-3.115 3.867 1.642-.153 3.302-.316 4.956-.478l-1.318-2.48c.411.308.827.613 1.241.918.61-.728 1.212-1.452 1.822-2.18.784.506 1.568 1.012 2.35 1.519-.049-1.035-.101-2.07-.149-3.105-4.563.586-3.623 1.96-4.415 2.368-.398.207-.926-.166-1.201-.349l-.171-.08Zm88.049-14.906c-9.037-7.42-17.85-8.782-23.307-9.09-6.403-.224-9.82.714-12.883 1.273-3.038.617-5.306 1.044-7.803 1.03 1.113.594 2.949.573 5.848.257 3.056-.255 6.911-1.186 14.67-.64 5.78.45 15.108 2.677 22.98 9.587 7.953 6.874 11.463 15.79 12.649 21.63 2.153 11.954-.073 17.184-1.664 20.505.436 1.35.854 2.615 1.234 3.912.935-5.854 2.992-11.168 3.043-16.207-.021-4.01-.866-3.74-.859-4.02l-.006-.048c-.48-5.25-1.62-9.88-3.546-14.327-1.961-4.374-4.646-8.999-10.356-13.862Zm-86.955 129.991a2.33 2.33 0 0 0-.35-.549c-1.036-.68-2.344-.567-2.578.731.746.471 1.48.934 2.263 1.398.157.15.326.3.507.45-.095-.432.255-1.825.158-2.03Zm65.495-5.52c-1.034-.365-3.213.443-2.026 1.677.212.22 2.314-1.114 1.389 1.597 2.2-.394 1.225-3.064.637-3.274Zm-28.254-4.379c-.736.608-1.476 1.217-2.209 1.817.212.658.424 1.316.633 1.975.525-1.259 1.053-2.525 1.576-3.792Zm-29.487 9.306c.866 3.227 2.507.131 4.382 2.75.699.015 1.387.025 2.101.031h.005l.004-2.625a143.526 143.526 0 0 1-6.492-.156Zm78.516-54.949c-.766.418-1.53.821-2.3 1.219-.385 1.39-.781 2.755-1.206 4.123.702-.375 1.42-.784 2.125-1.185.471-1.359.951-2.772 1.381-4.157Zm-66.434 54.482c-2.536-.292-3.395 2.528-.139 2.401 1.393-.064 2.827-2.112.139-2.401Zm-67.219-89.882c.933-.144 1.868-.292 2.805-.444.05-.663.098-1.325.146-1.986-.979.814-1.966 1.625-2.951 2.43Zm125.164 83.508.035 1.786c-.813.042-1.63.082-2.441.118.089-.609.176-1.219.263-1.828.713-.023 1.43-.049 2.143-.076Zm-119.373-85.67c.716-.199 1.433-.4 2.15-.605.333-.465.664-.93.995-1.395-.745.031-1.488.06-2.23.087l-.915 1.914Zm86.619 90.262c-1.127-.585-5.092 2.029-1.254 2.195 2.456.098 1.422-2.106 1.254-2.195Zm5.516-1.321c-.877-.196-1.379-.036-1.59.281-.215.305-.149.751.131 1.163.709 1.111 2.911 1.979 5.176-.837-4.505 1.175-3.484-.557-3.717-.607Zm32.451-9.032c.094-.017.381.924 1.139.792 2.723-.472 6.373-.942 8.314-1.364 4.703-.928 18.321-6.649 20.807-4.511.521.463.243 2.408.41 2.453.491.119 2.618-1.444 2.568-.058a409.764 409.764 0 0 1-7.048 2.097c.321-1.056.629-2.11.939-3.166-5.671 2.179-3.767 1.549-4.895 3.965a348.373 348.373 0 0 1-3.59-1.431 376.048 376.048 0 0 1-5.86 3.975c.349-.691.69-1.381 1.031-2.072-3.509-.218-2.422.233-3.865 2.052l-.43-1.698c-2.792 2.149-3.813.58-4.498.72-1.379.28-1.73 7.479-8.539 1.88-1.605 3.705-2.874-2.904-3.535.713-4.516-2.916 2.964-2.98 6.409-3.625l.005-.001c.26-.046-.282-.569.638-.721Zm-18.967 7.077c1.837-3.349-7.342-2.241-3.676 1.637l1.43.218c.755-.616 1.505-1.235 2.251-1.856l-.005.001Zm-78.103-.901c-1.924-.033-1.811.752-2.024 1.091-.13.359.344.583 1.264.006.352-.233.648-.622.76-1.097Zm66.164-134.351c-.351.417-.709.84-.996 1.255 2.707-.51 6.548-1.053 12.691-.5 6.732.468 16.707 3.86 23.263 9.103 6.614 5.103 9.417 9.574 10.057 8.844-3.836-5.781-10.018-11.284-16.336-14.422-6.299-3.197-12.135-4.35-16.878-4.742-5.062-.388-8.801.017-11.801.462Zm48.631 70.901c.636-1.021 2.795-6.086 1.689-5.769a59.23 59.23 0 0 1-4.214 5.655c-.006 1.06-.037 2.134-.062 3.158.673-1.108 2.433-2.757 2.587-3.044Z" fill="#66D2DF" fill-opacity=".14"/></svg>